EncodeSans-Medium.ufo
<glyph name="exclam" format="2">
  <advance width="529.6869696969698"/>
  <unicode hex="0021"/>
  <outline>
    <contour>
      <point x="200.95530303030304" y="400.46909090909094" type="line"/>
      <point x="330.68696969696975" y="400.46909090909094" type="line"/>
      <point x="375.14500000000004" y="931.4524242424243" type="line"/>
      <point x="375.14500000000004" y="1480.0" type="line"/>
      <point x="154.5419696969697" y="1480.0" type="line"/>
      <point x="154.5419696969697" y="931.4524242424243" type="line"/>
    </contour>
    <contour>
      <point x="264.8434848484849" y="-13.910606060606062" type="curve" smooth="yes"/>
      <point x="350.5081818181818" y="-13.910606060606062"/>
      <point x="407.40196969696973" y="37.854696969696974"/>
      <point x="407.40196969696973" y="116.13393939393941" type="curve" smooth="yes"/>
      <point x="407.40196969696973" y="194.41318181818184"/>
      <point x="352.0724242424243" y="247.39636363636367"/>
      <point x="264.8434848484849" y="247.39636363636367" type="curve" smooth="yes"/>
      <point x="177.61454545454546" y="247.39636363636367"/>
      <point x="122.285" y="195.97742424242426"/>
      <point x="122.285" y="116.13393939393941" type="curve" smooth="yes"/>
      <point x="122.285" y="36.29045454545455"/>
      <point x="179.1787878787879" y="-13.910606060606062"/>
    </contour>
  </outline>
</glyph>
<glyph name="numbersign" format="2">
  <advance width="1186.0333333333333"/>
  <unicode hex="0023"/>
  <outline>
    <contour>
      <point x="628.7318181818182" y="0.0" type="line"/>
      <point x="794.4522727272728" y="0.0" type="line"/>
      <point x="948.4522727272728" y="1480.0" type="line"/>
      <point x="782.7318181818182" y="1480.0" type="line"/>
    </contour>
    <contour>
      <point x="100.0" y="437.6872727272727" type="line"/>
      <point x="1086.0333333333333" y="437.6872727272727" type="line"/>
      <point x="1086.0333333333333" y="601.4524242424243" type="line"/>
      <point x="100.0" y="601.4524242424243" type="line"/>
    </contour>
    <contour>
      <point x="237.5810606060606" y="0.0" type="line"/>
      <point x="403.30151515151516" y="0.0" type="line"/>
      <point x="557.3015151515152" y="1480.0" type="line"/>
      <point x="391.5810606060606" y="1480.0" type="line"/>
    </contour>
    <contour>
      <point x="100.0" y="878.5475757575757" type="line"/>
      <point x="1086.0333333333333" y="878.5475757575757" type="line"/>
      <point x="1086.0333333333333" y="1042.3127272727272" type="line"/>
      <point x="100.0" y="1042.3127272727272" type="line"/>
    </contour>
  </outline>
</glyph>
<glyph name="dollar" format="2">
  <advance width="1089.7763636363636"/>
  <unicode hex="0024"/>
  <outline>
    <contour>
      <point x="470.0669696969697" y="-18.78212121212121" type="curve" smooth="yes"/>
      <point x="821.1730303030304" y="-18.78212121212121"/>
      <point x="1021.5919696969697" y="139.81560606060606"/>
      <point x="1021.5919696969697" y="411.6759090909091" type="curve" smooth="yes"/>
      <point x="1021.5919696969697" y="630.0166666666667"/>
      <point x="894.9439393939394" y="756.8378787878788"/>
      <point x="617.2121212121212" y="826.4021212121212" type="curve" smooth="yes"/>
      <point x="527.8378787878788" y="849.4412121212122" type="line" smooth="yes"/>
      <point x="343.15621212121215" y="898.3183333333334"/>
      <point x="280.18409090909097" y="960.4636363636364"/>
      <point x="280.18409090909097" y="1088.2346969696969" type="curve" smooth="yes"/>
      <point x="280.18409090909097" y="1235.3130303030302"/>
      <point x="382.68136363636364" y="1323.676212121212"/>
      <point x="637.5584848484849" y="1323.676212121212" type="curve" smooth="yes"/>
      <point x="741.5584848484848" y="1323.676212121212"/>
      <point x="854.290303030303" y="1308.894090909091"/>
      <point x="953.424393939394" y="1279.4136363636362" type="curve"/>
      <point x="953.424393939394" y="1456.5195454545456" type="line"/>
      <point x="860.8601515151515" y="1483.3910606060606"/>
      <point x="742.385303030303" y="1498.7821212121212"/>
      <point x="627.8713636363636" y="1498.7821212121212" type="curve" smooth="yes"/>
      <point x="253.6480303030303" y="1498.7821212121212"/>
      <point x="68.18439393939393" y="1339.4413636363636"/>
      <point x="68.18439393939393" y="1076.8045454545454" type="curve" smooth="yes"/>
      <point x="68.18439393939393" y="859.0727272727272"/>
      <point x="195.61454545454546" y="731.2515151515152"/>
      <point x="450.044696969697" y="666.8604545454546" type="curve" smooth="yes"/>
      <point x="539.4189393939394" y="643.8213636363636" type="line" smooth="yes"/>
      <point x="737.9665151515152" y="591.7710606060606"/>
      <point x="809.5922727272728" y="530.8883333333333"/>
      <point x="809.5922727272728" y="398.11727272727273" type="curve" smooth="yes"/>
      <point x="809.5922727272728" y="241.3406060606061"/>
      <point x="706.1787878787878" y="156.32378787878793"/>
      <point x="469.3742424242424" y="156.32378787878793" type="curve" smooth="yes"/>
      <point x="359.33515151515155" y="156.32378787878793"/>
      <point x="219.52515151515152" y="176.45227272727277"/>
      <point x="95.1340909090909" y="216.88803030303035" type="curve"/>
      <point x="95.1340909090909" y="39.78212121212121" type="line"/>
      <point x="211.6089393939394" y="1.1731818181818183"/>
      <point x="348.6871212121212" y="-18.78212121212121"/>
    </contour>
    <contour>
      <point x="447.7989393939394" y="-240.0" type="line"/>
      <point x="643.1953030303031" y="-240.0" type="line"/>
      <point x="643.1953030303031" y="37.37424242424243" type="line"/>
      <point x="447.7989393939394" y="31.284848484848492" type="line"/>
    </contour>
    <contour>
      <point x="447.7989393939394" y="1456.5363636363636" type="line"/>
      <point x="643.1953030303031" y="1456.5363636363636" type="line"/>
      <point x="643.1953030303031" y="1720.0" type="line"/>
      <point x="447.7989393939394" y="1720.0" type="line"/>
    </contour>
  </outline>
</glyph>
<glyph name="percent" format="2">
  <advance width="1920.8207575757576"/>
  <unicode hex="0025"/>
  <note>
450
</note>
  <outline>
    <contour>
      <point x="545.0557575757576" y="0.0" type="line"/>
      <point x="721.6421212121213" y="0.0" type="line"/>
      <point x="1375.765" y="1480.0" type="line"/>
      <point x="1199.1786363636363" y="1480.0" type="line"/>
    </contour>
    <contour>
      <point x="456.5865151515152" y="573.3072727272727" type="curve" smooth="yes"/>
      <point x="667.8266666666667" y="573.3072727272727"/>
      <point x="815.1618181818183" y="710.949696969697"/>
      <point x="815.1618181818183" y="1036.044696969697" type="curve" smooth="yes"/>
      <point x="815.1618181818183" y="1361.139696969697"/>
      <point x="669.6534848484848" y="1498.7821212121212"/>
      <point x="456.5865151515152" y="1498.7821212121212" type="curve" smooth="yes"/>
      <point x="243.51954545454544" y="1498.7821212121212"/>
      <point x="98.01121212121211" y="1361.139696969697"/>
      <point x="98.01121212121211" y="1036.044696969697" type="curve" smooth="yes"/>
      <point x="98.01121212121211" y="710.949696969697"/>
      <point x="245.34636363636363" y="573.3072727272727"/>
    </contour>
    <contour>
      <point x="456.5865151515152" y="712.564090909091" type="curve" smooth="yes"/>
      <point x="344.69818181818187" y="712.564090909091"/>
      <point x="267.46909090909094" y="793.4021212121212"/>
      <point x="267.46909090909094" y="1037.2625757575759" type="curve" smooth="yes"/>
      <point x="267.46909090909094" y="1279.9051515151516"/>
      <point x="344.69818181818187" y="1359.5253030303031"/>
      <point x="456.5865151515152" y="1359.5253030303031" type="curve" smooth="yes"/>
      <point x="567.8659090909091" y="1359.5253030303031"/>
      <point x="645.7039393939394" y="1279.9051515151516"/>
      <point x="645.7039393939394" y="1034.8268181818182" type="curve" smooth="yes"/>
      <point x="645.7039393939394" y="790.9663636363637"/>
      <point x="567.8659090909091" y="712.564090909091"/>
    </contour>
    <contour>
      <point x="1464.2342424242424" y="-18.0" type="curve" smooth="yes"/>
      <point x="1676.0833333333335" y="-18.0"/>
      <point x="1822.8095454545455" y="119.64242424242425"/>
      <point x="1822.8095454545455" y="444.73742424242425" type="curve" smooth="yes"/>
      <point x="1822.8095454545455" y="769.8324242424243"/>
      <point x="1676.692272727273" y="907.4748484848485"/>
      <point x="1464.2342424242424" y="907.4748484848485" type="curve" smooth="yes"/>
      <point x="1251.7762121212122" y="907.4748484848485"/>
      <point x="1105.6589393939394" y="769.8324242424243"/>
      <point x="1105.6589393939394" y="444.73742424242425" type="curve" smooth="yes"/>
      <point x="1105.6589393939394" y="119.64242424242425"/>
      <point x="1252.3851515151516" y="-18.0"/>
    </contour>
    <contour>
      <point x="1464.2342424242424" y="121.25681818181819" type="curve" smooth="yes"/>
      <point x="1352.9548484848485" y="121.25681818181819"/>
      <point x="1275.1168181818182" y="202.0948484848485"/>
      <point x="1275.1168181818182" y="445.955303030303" type="curve" smooth="yes"/>
      <point x="1275.1168181818182" y="688.5978787878788"/>
      <point x="1352.9548484848485" y="768.2180303030303"/>
      <point x="1464.2342424242424" y="768.2180303030303" type="curve" smooth="yes"/>
      <point x="1575.5136363636364" y="768.2180303030303"/>
      <point x="1653.3516666666667" y="688.5978787878788"/>
      <point x="1653.3516666666667" y="443.51954545454544" type="curve" smooth="yes"/>
      <point x="1653.3516666666667" y="199.65909090909093"/>
      <point x="1575.5136363636364" y="121.25681818181819"/>
    </contour>
  </outline>
</glyph>
<glyph name="ampersand" format="2">
  <advance width="1527.8545454545456"/>
  <unicode hex="0026"/>
  <outline>
    <contour>
      <point x="1427.4133333333334" y="-20.0" type="line"/>
      <point x="1527.8545454545456" y="134.84893939393942" type="line"/>
      <point x="708.2457575757576" y="734.1618181818183" type="line" smooth="yes"/>
      <point x="535.2065151515152" y="869.0669696969697"/>
      <point x="489.20090909090914" y="947.4301515151515"/>
      <point x="489.20090909090914" y="1063.324090909091" type="curve" smooth="yes"/>
      <point x="489.20090909090914" y="1228.9219696969697"/>
      <point x="588.3462121212121" y="1323.676212121212"/>
      <point x="843.7931818181819" y="1323.676212121212" type="curve" smooth="yes"/>
      <point x="925.8378787878788" y="1323.676212121212"/>
      <point x="1007.659090909091" y="1313.894090909091"/>
      <point x="1081.1395454545454" y="1295.4136363636364" type="curve"/>
      <point x="1081.1395454545454" y="1472.5195454545456" type="line"/>
      <point x="1008.8825757575758" y="1488.5642424242424"/>
      <point x="926.3630303030303" y="1498.7821212121212"/>
      <point x="831.9328787878787" y="1498.7821212121212" type="curve" smooth="yes"/>
      <point x="457.8380303030303" y="1498.7821212121212"/>
      <point x="277.2012121212121" y="1338.7039393939394"/>
      <point x="277.2012121212121" y="1066.6257575757575" type="curve" smooth="yes"/>
      <point x="277.2012121212121" y="899.1843939393939"/>
      <point x="349.89954545454543" y="767.5810606060606"/>
      <point x="607.8045454545454" y="579.3128787878787" type="curve" smooth="yes"/>
    </contour>
    <contour>
      <point x="683.0781818181819" y="-18.0" type="curve" smooth="yes"/>
      <point x="1063.659090909091" y="-18.0"/>
      <point x="1289.9439393939394" y="177.29045454545454"/>
      <point x="1289.9439393939394" y="553.3462121212121" type="curve" smooth="yes"/>
      <point x="1289.9439393939394" y="636.9160606060607"/>
      <point x="1277.7260606060606" y="731.0054545454545"/>
      <point x="1252.6366666666668" y="817.0948484848485" type="curve"/>
      <point x="1078.6145454545454" y="817.0948484848485" type="line"/>
      <point x="1104.3128787878788" y="731.0054545454545"/>
      <point x="1118.7486363636363" y="634.9160606060607"/>
      <point x="1118.7486363636363" y="551.7819696969697" type="curve" smooth="yes"/>
      <point x="1118.7486363636363" y="257.34621212121215"/>
      <point x="957.178787878788" y="138.72606060606063"/>
      <point x="704.2401515151515" y="138.72606060606063" type="curve" smooth="yes"/>
      <point x="457.4634848484849" y="138.72606060606063"/>
      <point x="339.27909090909094" y="252.4859090909091"/>
      <point x="339.27909090909094" y="425.9887878787879" type="curve" smooth="yes"/>
      <point x="339.27909090909094" y="554.5307575757575"/>
      <point x="399.4634848484849" y="648.7207575757576"/>
      <point x="517.2736363636363" y="711.7710606060606" type="curve"/>
      <point x="407.70954545454543" y="806.7039393939394" type="line"/>
      <point x="237.92181818181817" y="736.9553030303031"/>
      <point x="128.06151515151515" y="594.6927272727273"/>
      <point x="128.06151515151515" y="403.5642424242424" type="curve" smooth="yes"/>
      <point x="128.06151515151515" y="151.65363636363637"/>
      <point x="314.9218181818182" y="-18.0"/>
    </contour>
  </outline>
</glyph>
<glyph name="quotesingle" format="2">
  <advance width="436.0557575757576"/>
  <unicode hex="0027"/>
  <outline>
    <contour>
      <point x="155.0112121212121" y="894.2124242424243" type="line"/>
      <point x="281.04454545454547" y="894.2124242424243" type="line"/>
      <point x="323.33500000000004" y="1616.0" type="line"/>
      <point x="112.72075757575757" y="1616.0" type="line"/>
    </contour>
  </outline>
</glyph>
<glyph name="parenleft" format="2">
  <advance width="676.0557575757575"/>
  <unicode hex="0028"/>
  <outline>
    <contour>
      <point x="460.6201515151515" y="-440.0" type="curve"/>
      <point x="681.184090909091" y="-440.0" type="line"/>
      <point x="434.7930303030304" y="-132.30166666666668"/>
      <point x="332.7930303030303" y="205.095"/>
      <point x="332.7930303030303" y="588.0" type="curve" smooth="yes"/>
      <point x="332.7930303030303" y="970.905"/>
      <point x="434.7930303030304" y="1308.3016666666667"/>
      <point x="681.184090909091" y="1616.0" type="curve"/>
      <point x="460.6201515151515" y="1616.0" type="line"/>
      <point x="220.49166666666667" y="1327.6871212121212"/>
      <point x="118.8380303030303" y="976.1228787878788"/>
      <point x="118.8380303030303" y="588.0" type="curve" smooth="yes"/>
      <point x="118.8380303030303" y="199.8771212121212"/>
      <point x="220.49166666666667" y="-151.6871212121212"/>
    </contour>
  </outline>
</glyph>
<glyph name="parenright" format="2">
  <advance width="676.0557575757575"/>
  <unicode hex="0029"/>
  <outline>
    <contour>
      <point x="-5.128333333333359" y="-440.0" type="curve"/>
      <point x="215.43560606060606" y="-440.0" type="line"/>
      <point x="455.5640909090909" y="-151.6871212121212"/>
      <point x="557.2177272727273" y="199.8771212121212"/>
      <point x="557.2177272727273" y="588.0" type="curve" smooth="yes"/>
      <point x="557.2177272727273" y="976.1228787878788"/>
      <point x="455.5640909090909" y="1327.6871212121212"/>
      <point x="215.43560606060606" y="1616.0" type="curve"/>
      <point x="-5.128333333333359" y="1616.0" type="line"/>
      <point x="241.26272727272726" y="1308.3016666666667"/>
      <point x="343.26272727272726" y="970.905"/>
      <point x="343.26272727272726" y="588.0" type="curve" smooth="yes"/>
      <point x="343.26272727272726" y="205.095"/>
      <point x="241.26272727272726" y="-132.30166666666668"/>
    </contour>
  </outline>
</glyph>
<glyph name="asterisk" format="2">
  <advance width="944.6478787878788"/>
  <unicode hex="002A"/>
  <outline>
    <contour>
      <point x="549.9439393939394" y="1169.285" type="line"/>
      <point x="742.0780303030303" y="1204.7710606060607" type="line"/>
      <point x="914.6478787878788" y="1260.424696969697" type="line"/>
      <point x="869.2289393939394" y="1399.0278787878788" type="line"/>
      <point x="697.8769696969697" y="1342.9831818181817" type="line"/>
      <point x="518.4356060606061" y="1256.3798484848485" type="line"/>
      <point x="545.385303030303" y="1453.7318181818182" type="line"/>
      <point x="545.385303030303" y="1616.0" type="line"/>
      <point x="399.26257575757575" y="1616.0" type="line"/>
      <point x="399.26257575757575" y="1453.7318181818182" type="line"/>
      <point x="426.2122727272727" y="1256.3798484848485" type="line"/>
      <point x="246.7709090909091" y="1342.9831818181817" type="line"/>
      <point x="75.4189393939394" y="1399.0278787878788" type="line"/>
      <point x="30.0" y="1260.424696969697" type="line"/>
      <point x="202.56984848484848" y="1204.7710606060607" type="line"/>
      <point x="394.7039393939394" y="1169.285" type="line"/>
      <point x="258.79333333333335" y="1026.5810606060606" type="line"/>
      <point x="160.00560606060606" y="891.3575757575758" type="line"/>
      <point x="278.4859090909091" y="805.2571212121212" type="line"/>
      <point x="377.27363636363634" y="940.0895454545455" type="line"/>
      <point x="472.3239393939394" y="1119.564393939394" type="line"/>
      <point x="567.3742424242424" y="940.0895454545455" type="line"/>
      <point x="666.1619696969697" y="805.2571212121212" type="line"/>
      <point x="784.6422727272727" y="891.3575757575758" type="line"/>
      <point x="685.8545454545455" y="1026.5810606060606" type="line"/>
    </contour>
  </outline>
</glyph>
<glyph name="plus" format="2">
  <advance width="1083.1172727272728"/>
  <unicode hex="002B"/>
  <outline>
    <contour>
      <point x="455.54757575757577" y="345.15090909090907" type="line"/>
      <point x="627.569696969697" y="345.15090909090907" type="line"/>
      <point x="627.569696969697" y="677.9442424242424" type="line"/>
      <point x="943.8825757575758" y="677.9442424242424" type="line"/>
      <point x="943.8825757575758" y="842.0557575757576" type="line"/>
      <point x="627.569696969697" y="842.0557575757576" type="line"/>
      <point x="627.569696969697" y="1174.8490909090908" type="line"/>
      <point x="455.54757575757577" y="1174.8490909090908" type="line"/>
      <point x="455.54757575757577" y="842.0557575757576" type="line"/>
      <point x="139.23469696969696" y="842.0557575757576" type="line"/>
      <point x="139.23469696969696" y="677.9442424242424" type="line"/>
      <point x="455.54757575757577" y="677.9442424242424" type="line"/>
    </contour>
  </outline>
</glyph>
<glyph name="comma" format="2">
  <advance width="489.6869696969697"/>
  <unicode hex="002C"/>
  <outline>
    <contour>
      <point x="148.69833333333332" y="-323.4636363636364" type="curve"/>
      <point x="269.34621212121215" y="-323.4636363636364" type="line"/>
      <point x="338.6310606060606" y="-210.69272727272727"/>
      <point x="386.6198484848485" y="-65.40787878787879"/>
      <point x="386.6198484848485" y="80.10045454545455" type="curve" smooth="yes"/>
      <point x="386.6198484848485" y="200.3237878787879"/>
      <point x="334.0277272727273" y="257.56393939393945"/>
      <point x="241.27924242424243" y="257.56393939393945" type="curve" smooth="yes"/>
      <point x="156.39666666666668" y="257.56393939393945"/>
      <point x="102.285" y="205.75393939393942"/>
      <point x="102.285" y="122.43560606060608" type="curve" smooth="yes"/>
      <point x="102.285" y="39.07257575757576"/>
      <point x="159.9609090909091" y="-13.910606060606062"/>
      <point x="244.84348484848485" y="-13.910606060606062" type="curve" smooth="yes"/>
      <point x="272.4859090909091" y="-13.910606060606062" type="line"/>
      <point x="232.11727272727273" y="27.642424242424248" type="line"/>
      <point x="232.11727272727273" y="-86.87151515151515"/>
      <point x="201.1228787878788" y="-193.8212121212121"/>
    </contour>
  </outline>
</glyph>
<glyph name="hyphen" format="2">
  <advance width="859.7875757575757"/>
  <unicode hex="002D"/>
  <outline>
    <contour>
      <point x="139.23469696969696" y="477.5531818181818" type="line"/>
      <point x="720.5528787878789" y="477.5531818181818" type="line"/>
      <point x="720.5528787878789" y="650.2680303030303" type="line"/>
      <point x="139.23469696969696" y="650.2680303030303" type="line"/>
    </contour>
  </outline>
</glyph>
<glyph name="period" format="2">
  <advance width="489.6869696969697"/>
  <unicode hex="002E"/>
  <outline>
    <contour>
      <point x="244.84348484848485" y="-13.910606060606062" type="curve" smooth="yes"/>
      <point x="330.5081818181818" y="-13.910606060606062"/>
      <point x="387.40196969696973" y="39.4189393939394"/>
      <point x="387.40196969696973" y="121.21772727272729" type="curve" smooth="yes"/>
      <point x="387.40196969696973" y="203.0165151515152"/>
      <point x="332.0724242424243" y="257.56393939393945"/>
      <point x="244.84348484848485" y="257.56393939393945" type="curve" smooth="yes"/>
      <point x="157.61454545454546" y="257.56393939393945"/>
      <point x="102.285" y="204.58075757575762"/>
      <point x="102.285" y="121.21772727272729" type="curve" smooth="yes"/>
      <point x="102.285" y="37.854696969696974"/>
      <point x="159.1787878787879" y="-13.910606060606062"/>
    </contour>
  </outline>
</glyph>
<glyph name="slash" format="2">
  <advance width="667.949393939394"/>
  <unicode hex="002F"/>
  <outline>
    <contour>
      <point x="0.0" y="-240.0" type="line"/>
      <point x="205.48015151515156" y="-240.0" type="line"/>
      <point x="667.949393939394" y="1616.0" type="line"/>
      <point x="462.46924242424245" y="1616.0" type="line"/>
    </contour>
  </outline>
</glyph>
<glyph name="zero" format="2">
  <advance width="1275.8210606060607"/>
  <unicode hex="0030"/>
  <note>
600
</note>
  <outline>
    <contour>
      <point x="637.715" y="-18.78212121212121" type="curve" smooth="yes"/>
      <point x="962.9942424242424" y="-18.78212121212121"/>
      <point x="1166.9830303030303" y="195.9887878787879"/>
      <point x="1166.9830303030303" y="740.0" type="curve" smooth="yes"/>
      <point x="1166.9830303030303" y="1284.011212121212"/>
      <point x="965.4300000000001" y="1498.7821212121212"/>
      <point x="637.715" y="1498.7821212121212" type="curve" smooth="yes"/>
      <point x="310.0" y="1498.7821212121212"/>
      <point x="108.8380303030303" y="1284.011212121212"/>
      <point x="108.8380303030303" y="740.0" type="curve" smooth="yes"/>
      <point x="108.8380303030303" y="195.9887878787879"/>
      <point x="312.4357575757576" y="-18.78212121212121"/>
    </contour>
    <contour>
      <point x="638.1060606060606" y="158.67015151515153" type="curve" smooth="yes"/>
      <point x="441.1227272727273" y="158.67015151515153"/>
      <point x="318.49136363636364" y="292.8154545454546"/>
      <point x="318.49136363636364" y="742.4357575757575" type="curve" smooth="yes"/>
      <point x="318.49136363636364" y="1187.1845454545455"/>
      <point x="441.9048484848485" y="1321.3298484848485"/>
      <point x="638.1060606060606" y="1321.3298484848485" type="curve" smooth="yes"/>
      <point x="833.9162121212121" y="1321.3298484848485"/>
      <point x="957.3296969696969" y="1187.1845454545455"/>
      <point x="957.3296969696969" y="737.5642424242425" type="curve" smooth="yes"/>
      <point x="957.3296969696969" y="292.8154545454546"/>
      <point x="833.9162121212121" y="158.67015151515153"/>
    </contour>
  </outline>
</glyph>
<glyph name="one" format="2">
  <advance width="760.9886363636364"/>
  <unicode hex="0031"/>
  <outline>
    <contour>
      <point x="381.5363636363636" y="0.0" type="line"/>
      <point x="592.6645454545455" y="0.0" type="line"/>
      <point x="592.6645454545455" y="1484.7821212121212" type="line"/>
      <point x="457.59212121212124" y="1484.7821212121212" type="line"/>
      <point x="25.346363636363638" y="1177.134090909091" type="line"/>
      <point x="25.346363636363638" y="973.8215151515151" type="line"/>
      <point x="457.59212121212124" y="1280.2516666666666" type="line"/>
      <point x="381.5363636363636" y="1340.2124242424243" type="line"/>
    </contour>
  </outline>
</glyph>
<glyph name="two" format="2">
  <advance width="1012.6478787878788"/>
  <unicode hex="0032"/>
  <outline>
    <contour>
      <point x="56.44136363636363" y="0.0" type="line"/>
      <point x="952.0333333333333" y="0.0" type="line"/>
      <point x="952.0333333333333" y="177.79863636363638" type="line"/>
      <point x="280.1672727272728" y="177.79863636363638" type="line"/>
      <point x="291.86560606060607" y="121.34060606060608" type="line"/>
      <point x="654.1953030303031" y="589.4357575757576" type="line" smooth="yes"/>
      <point x="818.9830303030303" y="799.9721212121212"/>
      <point x="874.2456060606061" y="938.4916666666667"/>
      <point x="874.8545454545455" y="1094.061515151515" type="curve" smooth="yes"/>
      <point x="876.0724242424243" y="1375.3966666666668"/>
      <point x="700.7372727272727" y="1498.7821212121212"/>
      <point x="381.6871212121212" y="1498.7821212121212" type="curve" smooth="yes"/>
      <point x="260.3407575757576" y="1498.7821212121212"/>
      <point x="125.78772727272727" y="1476.2178787878788"/>
      <point x="38.65924242424242" y="1442.5642424242424" type="curve"/>
      <point x="38.65924242424242" y="1265.4583333333333" type="line"/>
      <point x="133.96651515151515" y="1302.7209090909091"/>
      <point x="245.7430303030303" y="1323.676212121212"/>
      <point x="362.5251515151515" y="1323.676212121212" type="curve" smooth="yes"/>
      <point x="567.9274242424242" y="1323.676212121212"/>
      <point x="665.2459090909091" y="1249.7543939393938"/>
      <point x="665.2459090909091" y="1075.6369696969698" type="curve" smooth="yes"/>
      <point x="665.2459090909091" y="958.6648484848484"/>
      <point x="614.5028787878788" y="843.8268181818182"/>
      <point x="475.5363636363636" y="662.3742424242424" type="curve" smooth="yes"/>
      <point x="56.44136363636363" y="114.69257575757577" type="line"/>
    </contour>
  </outline>
</glyph>
<glyph name="three" format="2">
  <advance width="1034.6981818181819"/>
  <unicode hex="0033"/>
  <outline>
    <contour>
      <point x="414.81560606060606" y="-18.78212121212121" type="curve" smooth="yes"/>
      <point x="781.614393939394" y="-18.78212121212121"/>
      <point x="966.474696969697" y="138.0837878787879"/>
      <point x="966.474696969697" y="403.1675757575758" type="curve" smooth="yes"/>
      <point x="966.474696969697" y="614.3463636363637"/>
      <point x="838.4690909090909" y="744.7430303030303"/>
      <point x="604.9327272727273" y="776.5251515151515" type="curve"/>
      <point x="604.3237878787879" y="756.0" type="line"/>
      <point x="798.9886363636364" y="796.6536363636363"/>
      <point x="917.8657575757576" y="929.5698484848485"/>
      <point x="917.8657575757576" y="1117.011212121212" type="curve" smooth="yes"/>
      <point x="917.8657575757576" y="1359.5251515151515"/>
      <point x="749.2233333333334" y="1498.7821212121212"/>
      <point x="428.1228787878788" y="1498.7821212121212" type="curve" smooth="yes"/>
      <point x="308.08378787878786" y="1498.7821212121212"/>
      <point x="175.70393939393938" y="1478.2178787878788"/>
      <point x="81.35757575757576" y="1444.3910606060606" type="curve"/>
      <point x="81.35757575757576" y="1279.0169696969697" type="line"/>
      <point x="184.2290909090909" y="1316.0616666666667"/>
      <point x="298.1787878787879" y="1334.625909090909"/>
      <point x="408.5698484848485" y="1334.625909090909" type="curve" smooth="yes"/>
      <point x="612.9777272727273" y="1334.625909090909"/>
      <point x="713.7319696969697" y="1252.9163636363637"/>
      <point x="713.7319696969697" y="1100.9777272727272" type="curve" smooth="yes"/>
      <point x="713.7319696969697" y="935.3351515151516"/>
      <point x="593.5754545454545" y="841.709393939394"/>
      <point x="344.1116666666667" y="841.709393939394" type="curve" smooth="yes"/>
      <point x="226.15090909090907" y="841.709393939394" type="line"/>
      <point x="226.15090909090907" y="675.5978787878788" type="line"/>
      <point x="414.955303030303" y="675.5978787878788" type="line" smooth="yes"/>
      <point x="660.2793939393939" y="675.5978787878788"/>
      <point x="765.0783333333334" y="579.3184848484848"/>
      <point x="765.0783333333334" y="414.11727272727273" type="curve" smooth="yes"/>
      <point x="765.0783333333334" y="238.78196969696972"/>
      <point x="649.4078787878788" y="145.3740909090909"/>
      <point x="407.99439393939394" y="145.3740909090909" type="curve" smooth="yes"/>
      <point x="293.73742424242425" y="145.3740909090909"/>
      <point x="163.39666666666668" y="165.37409090909094"/>
      <point x="49.17878787878788" y="201.29030303030305" type="curve"/>
      <point x="49.17878787878788" y="35.91621212121212" type="line"/>
      <point x="160.43575757575758" y="0.43575757575757523"/>
      <point x="286.69272727272727" y="-18.78212121212121"/>
    </contour>
  </outline>
</glyph>
<glyph name="four" format="2">
  <advance width="1208.5584848484848"/>
  <unicode hex="0034"/>
  <outline>
    <contour>
      <point x="44.61454545454545" y="339.8101515151515" type="line"/>
      <point x="1169.9886363636365" y="339.8101515151515" type="line"/>
      <point x="1169.9886363636365" y="507.83227272727277" type="line"/>
      <point x="227.36287878787883" y="507.83227272727277" type="line"/>
      <point x="254.3125757575758" y="454.84909090909093" type="line"/>
      <point x="808.7819696969698" y="1480.0" type="line"/>
      <point x="601.385606060606" y="1480.0" type="line"/>
      <point x="44.61454545454545" y="456.0669696969697" type="line"/>
    </contour>
    <contour>
      <point x="773.6648484848484" y="0.0" type="line"/>
      <point x="966.0221212121212" y="0.0" type="line"/>
      <point x="966.0221212121212" y="980.0" type="line"/>
      <point x="797.8324242424243" y="980.0" type="line"/>
      <point x="773.6648484848484" y="507.83227272727277" type="line"/>
    </contour>
  </outline>
</glyph>
<glyph name="five" format="2">
  <advance width="1045.6534848484848"/>
  <unicode hex="0035"/>
  <outline>
    <contour>
      <point x="441.81560606060606" y="-18.78212121212121" type="curve" smooth="yes"/>
      <point x="803.0948484848485" y="-18.78212121212121"/>
      <point x="991.6925757575758" y="136.2569696969697"/>
      <point x="992.0836363636364" y="425.3351515151515" type="curve" smooth="yes"/>
      <point x="992.474696969697" y="699.8937878787879"/>
      <point x="816.7819696969698" y="841.3239393939394"/>
      <point x="389.18984848484854" y="866.1060606060606" type="curve" smooth="yes"/>
      <point x="202.62560606060606" y="876.715" type="line"/>
      <point x="331.6645454545455" y="792.7821212121212" type="line"/>
      <point x="373.14500000000004" y="1400.8939393939395" type="line"/>
      <point x="279.0948484848485" y="1312.3689393939394" type="line"/>
      <point x="931.2568181818182" y="1312.3689393939394" type="line"/>
      <point x="931.2568181818182" y="1480.0" type="line"/>
      <point x="178.3128787878788" y="1480.0" type="line"/>
      <point x="128.13969696969696" y="714.5140909090909" type="line"/>
      <point x="314.7039393939394" y="703.9051515151515" type="line" smooth="yes"/>
      <point x="677.4078787878788" y="682.6872727272727"/>
      <point x="790.2962121212121" y="597.9777272727273"/>
      <point x="790.2962121212121" y="420.81560606060606" type="curve" smooth="yes"/>
      <point x="790.2962121212121" y="239.73727272727274"/>
      <point x="676.4525757575757" y="146.93833333333336"/>
      <point x="435.60333333333335" y="146.93833333333336" type="curve" smooth="yes"/>
      <point x="318.3016666666667" y="146.93833333333336"/>
      <point x="187.9609090909091" y="167.93833333333336"/>
      <point x="75.56984848484848" y="203.6366666666667" type="curve"/>
      <point x="75.56984848484848" y="38.26257575757576" type="line"/>
      <point x="185.0" y="2.217878787878788"/>
      <point x="312.4748484848485" y="-18.78212121212121"/>
    </contour>
  </outline>
</glyph>
<glyph name="six" format="2">
  <advance width="1180.5975757575757"/>
  <unicode hex="0036"/>
  <outline>
    <contour>
      <point x="653.1954545454546" y="-18.78212121212121" type="curve" smooth="yes"/>
      <point x="931.9495454545455" y="-18.78212121212121"/>
      <point x="1122.4634848484848" y="138.1619696969697"/>
      <point x="1122.4634848484848" y="426.8993939393939" type="curve" smooth="yes"/>
      <point x="1122.4634848484848" y="724.5865151515152"/>
      <point x="929.9495454545455" y="862.4133333333333"/>
      <point x="660.9942424242424" y="862.4133333333333" type="curve" smooth="yes"/>
      <point x="515.8154545454546" y="862.4133333333333"/>
      <point x="368.8545454545455" y="811.4971212121212"/>
      <point x="287.11151515151516" y="726.5362121212121" type="curve"/>
      <point x="287.11151515151516" y="563.7598484848485" type="line"/>
      <point x="371.1171212121212" y="662.5978787878788"/>
      <point x="507.39651515151513" y="703.3409090909091"/>
      <point x="623.7540909090909" y="703.3409090909091" type="curve" smooth="yes"/>
      <point x="808.2178787878788" y="703.3409090909091"/>
      <point x="927.7151515151515" y="617.4134848484848"/>
      <point x="927.7151515151515" y="420.3798484848485" type="curve" smooth="yes"/>
      <point x="927.7151515151515" y="225.73727272727274"/>
      <point x="811.6089393939394" y="141.07242424242426"/>
      <point x="654.5865151515152" y="141.07242424242426" type="curve" smooth="yes"/>
      <point x="455.2959090909091" y="141.07242424242426"/>
      <point x="325.9271212121213" y="261.83227272727277"/>
      <point x="325.9271212121213" y="664.6257575757576" type="curve" smooth="yes"/>
      <point x="325.9271212121213" y="744.670303030303" type="line" smooth="yes"/>
      <point x="325.9271212121213" y="1155.3465151515152"/>
      <point x="478.63666666666666" y="1331.4974242424241"/>
      <point x="780.6534848484848" y="1331.4974242424241" type="curve" smooth="yes"/>
      <point x="872.4300000000001" y="1331.4974242424241"/>
      <point x="969.385303030303" y="1317.715303030303"/>
      <point x="1051.8154545454545" y="1286.1063636363635" type="curve"/>
      <point x="1051.8154545454545" y="1454.6089393939394" type="line"/>
      <point x="970.385303030303" y="1486.7821212121212"/>
      <point x="871.7372727272727" y="1498.7821212121212"/>
      <point x="772.2680303030303" y="1498.7821212121212" type="curve" smooth="yes"/>
      <point x="352.94969696969696" y="1498.7821212121212"/>
      <point x="119.05590909090908" y="1246.2681818181818"/>
      <point x="119.05590909090908" y="692.0" type="curve" smooth="yes"/>
      <point x="119.05590909090908" y="177.29606060606062"/>
      <point x="334.73742424242425" y="-18.78212121212121"/>
    </contour>
  </outline>
</glyph>
<glyph name="seven" format="2">
  <advance width="964.7372727272727"/>
  <unicode hex="0037"/>
  <outline>
    <contour>
      <point x="165.53075757575758" y="0.0" type="line"/>
      <point x="383.61424242424243" y="0.0" type="line"/>
      <point x="906.5193939393939" y="1365.3074242424243" type="line"/>
      <point x="906.5193939393939" y="1480.0" type="line"/>
      <point x="11.608939393939394" y="1480.0" type="line"/>
      <point x="11.608939393939394" y="1302.2013636363636" type="line"/>
      <point x="767.9609090909091" y="1302.2013636363636" type="line"/>
      <point x="702.5587878787878" y="1366.5253030303031" type="line"/>
    </contour>
  </outline>
</glyph>
<glyph name="eight" format="2">
  <advance width="1275.8210606060607"/>
  <unicode hex="0038"/>
  <outline>
    <contour>
      <point x="645.1954545454546" y="-18.78212121212121" type="curve" smooth="yes"/>
      <point x="994.5137878787879" y="-18.78212121212121"/>
      <point x="1180.6813636363636" y="148.42454545454547"/>
      <point x="1180.6813636363636" y="388.5083333333333" type="curve" smooth="yes"/>
      <point x="1180.6813636363636" y="601.854696969697"/>
      <point x="1059.9383333333333" y="729.0669696969697"/>
      <point x="707.6478787878788" y="818.9719696969697" type="curve" smooth="yes"/>
      <point x="418.2065151515152" y="891.1004545454546"/>
      <point x="341.7148484848485" y="968.0278787878788"/>
      <point x="341.7148484848485" y="1112.966515151515" type="curve" smooth="yes"/>
      <point x="341.7148484848485" y="1253.257121212121"/>
      <point x="441.2959090909091" y="1344.793484848485"/>
      <point x="643.0557575757575" y="1344.793484848485" type="curve" smooth="yes"/>
      <point x="838.1675757575757" y="1344.793484848485"/>
      <point x="948.4469696969697" y="1261.257121212121"/>
      <point x="948.4469696969697" y="1107.4022727272727" type="curve" smooth="yes"/>
      <point x="948.4469696969697" y="966.7262121212121"/>
      <point x="876.2625757575757" y="876.1954545454546"/>
      <point x="703.5027272727273" y="800.2345454545455" type="curve"/>
      <point x="841.8936363636363" y="740.6871212121213" type="line"/>
      <point x="1042.4075757575758" y="819.5977272727273"/>
      <point x="1134.5472727272727" y="954.5977272727273"/>
      <point x="1134.5472727272727" y="1125.2178787878788" type="curve" smooth="yes"/>
      <point x="1134.5472727272727" y="1356.7821212121212"/>
      <point x="952.2959090909092" y="1498.7821212121212"/>
      <point x="645.62" y="1498.7821212121212" type="curve" smooth="yes"/>
      <point x="318.96090909090907" y="1498.7821212121212"/>
      <point x="139.10060606060605" y="1343.095"/>
      <point x="139.10060606060605" y="1105.4916666666666" type="curve" smooth="yes"/>
      <point x="139.10060606060605" y="890.4469696969697"/>
      <point x="264.36318181818183" y="748.8045454545454"/>
      <point x="616.4804545454546" y="663.2012121212122" type="curve" smooth="yes"/>
      <point x="894.4022727272727" y="595.7654545454545"/>
      <point x="980.4134848484848" y="524.1899999999999"/>
      <point x="980.4134848484848" y="376.0781818181818" type="curve" smooth="yes"/>
      <point x="980.4134848484848" y="223.17863636363637"/>
      <point x="866.2625757575757" y="135.20651515151516"/>
      <point x="646.1954545454546" y="135.20651515151516" type="curve" smooth="yes"/>
      <point x="411.2959090909091" y="135.20651515151516"/>
      <point x="294.0165151515152" y="226.7428787878788"/>
      <point x="294.0165151515152" y="391.5977272727273" type="curve" smooth="yes"/>
      <point x="294.0165151515152" y="532.7542424242424"/>
      <point x="384.37969696969697" y="651.8101515151515"/>
      <point x="562.569696969697" y="704.8995454545454" type="curve"/>
      <point x="413.3575757575758" y="764.4916666666667" type="line"/>
      <point x="210.88272727272727" y="698.1006060606061"/>
      <point x="93.57545454545455" y="556.3575757575758"/>
      <point x="93.57545454545455" y="370.4357575757576" type="curve" smooth="yes"/>
      <point x="93.57545454545455" y="131.55863636363637"/>
      <point x="275.9218181818182" y="-18.78212121212121"/>
    </contour>
  </outline>
</glyph>
<glyph name="less" format="2">
  <advance width="1083.1172727272728"/>
  <unicode hex="003C"/>
  <outline>
    <contour>
      <point x="943.8825757575758" y="335.6090909090909" type="line"/>
      <point x="943.8825757575758" y="504.59212121212124" type="line"/>
      <point x="266.9775757575758" y="776.3016666666666" type="line"/>
      <point x="266.9775757575758" y="745.6536363636363" type="line"/>
      <point x="943.8825757575758" y="1015.4078787878788" type="line"/>
      <point x="943.8825757575758" y="1184.3909090909092" type="line"/>
      <point x="139.23469696969696" y="855.6087878787879" type="line"/>
      <point x="139.23469696969696" y="664.3912121212121" type="line"/>
    </contour>
  </outline>
</glyph>
<glyph name="equal" format="2">
  <advance width="1083.1172727272728"/>
  <unicode hex="003D"/>
  <outline>
    <contour>
      <point x="139.23469696969696" y="882.6257575757576" type="line"/>
      <point x="943.8825757575758" y="882.6257575757576" type="line"/>
      <point x="943.8825757575758" y="1046.7372727272727" type="line"/>
      <point x="139.23469696969696" y="1046.7372727272727" type="line"/>
    </contour>
    <contour>
      <point x="139.23469696969696" y="473.26272727272726" type="line"/>
      <point x="943.8825757575758" y="473.26272727272726" type="line"/>
      <point x="943.8825757575758" y="637.3742424242424" type="line"/>
      <point x="139.23469696969696" y="637.3742424242424" type="line"/>
    </contour>
  </outline>
</glyph>
<glyph name="greater" format="2">
  <advance width="1083.1172727272728"/>
  <unicode hex="003E"/>
  <outline>
    <contour>
      <point x="139.23469696969696" y="335.6090909090909" type="line"/>
      <point x="943.8825757575758" y="664.3912121212121" type="line"/>
      <point x="943.8825757575758" y="855.6087878787879" type="line"/>
      <point x="139.23469696969696" y="1184.3909090909092" type="line"/>
      <point x="139.23469696969696" y="1015.4078787878788" type="line"/>
      <point x="816.139696969697" y="745.6536363636363" type="line"/>
      <point x="816.139696969697" y="776.3016666666666" type="line"/>
      <point x="139.23469696969696" y="504.59212121212124" type="line"/>
    </contour>
  </outline>
</glyph>
<glyph name="question" format="2">
  <advance width="930.0389393939395"/>
  <unicode hex="003F"/>
  <outline>
    <contour>
      <point x="352.1787878787879" y="390.7260606060606" type="line"/>
      <point x="481.91045454545457" y="390.7260606060606" type="line"/>
      <point x="499.3406060606061" y="681.089393939394" type="line"/>
      <point x="760.0054545454545" y="774.19"/>
      <point x="873.4690909090909" y="902.7095454545455"/>
      <point x="873.4690909090909" y="1115.0559090909092" type="curve" smooth="yes"/>
      <point x="873.4690909090909" y="1359.5251515151515"/>
      <point x="704.8266666666667" y="1498.7821212121212"/>
      <point x="383.72621212121214" y="1498.7821212121212" type="curve" smooth="yes"/>
      <point x="263.6871212121212" y="1498.7821212121212"/>
      <point x="131.30727272727273" y="1478.2178787878788"/>
      <point x="36.96090909090909" y="1444.3910606060606" type="curve"/>
      <point x="36.96090909090909" y="1275.1063636363635" type="line"/>
      <point x="139.83242424242422" y="1312.1510606060606"/>
      <point x="253.0" y="1330.715303030303"/>
      <point x="362.7821212121212" y="1330.715303030303" type="curve" smooth="yes"/>
      <point x="568.5810606060606" y="1330.715303030303"/>
      <point x="669.3353030303031" y="1250.1789393939393"/>
      <point x="669.3353030303031" y="1100.195606060606" type="curve" smooth="yes"/>
      <point x="669.3353030303031" y="953.3854545454545"/>
      <point x="586.8939393939394" y="861.1116666666667"/>
      <point x="316.3240909090909" y="785.9216666666666" type="curve"/>
    </contour>
    <contour>
      <point x="417.2401515151515" y="-13.910606060606062" type="curve" smooth="yes"/>
      <point x="504.1227272727273" y="-13.910606060606062"/>
      <point x="559.7986363636364" y="39.07257575757576"/>
      <point x="559.7986363636364" y="116.13393939393941" type="curve" smooth="yes"/>
      <point x="559.7986363636364" y="194.41318181818184"/>
      <point x="504.46909090909094" y="247.39636363636367"/>
      <point x="417.2401515151515" y="247.39636363636367" type="curve" smooth="yes"/>
      <point x="330.0112121212121" y="247.39636363636367"/>
      <point x="274.6816666666667" y="195.97742424242426"/>
      <point x="274.6816666666667" y="116.13393939393941" type="curve" smooth="yes"/>
      <point x="274.6816666666667" y="37.50833333333334"/>
      <point x="331.57545454545453" y="-13.910606060606062"/>
    </contour>
  </outline>
</glyph>
<glyph name="at" format="2">
  <advance width="1968.6868181818181"/>
  <unicode hex="0040"/>
  <outline>
    <contour>
      <point x="1031.2568181818183" y="-460.0" type="curve" smooth="yes"/>
      <point x="1176.1171212121212" y="-460.0"/>
      <point x="1317.8042424242424" y="-439.5642424242424"/>
      <point x="1444.7036363636364" y="-404.78212121212124" type="curve"/>
      <point x="1444.7036363636364" y="-259.3521212121212" type="line"/>
      <point x="1304.234393939394" y="-297.17893939393934"/>
      <point x="1173.0724242424242" y="-315.78787878787875"/>
      <point x="1031.2568181818183" y="-315.78787878787875" type="curve" smooth="yes"/>
      <point x="514.0501515151516" y="-315.78787878787875"/>
      <point x="264.6925757575758" y="-84.20681818181816"/>
      <point x="264.6925757575758" y="522.4357575757575" type="curve" smooth="yes"/>
      <point x="264.6925757575758" y="1120.5531818181819"/>
      <point x="512.8322727272728" y="1353.7878787878788"/>
      <point x="991.2121212121212" y="1353.7878787878788" type="curve" smooth="yes"/>
      <point x="1469.374090909091" y="1353.7878787878788"/>
      <point x="1714.2512121212121" y="1126.1174242424242"/>
      <point x="1715.8154545454545" y="564.1675757575757" type="curve" smooth="yes"/>
      <point x="1716.9886363636365" y="227.53621212121212"/>
      <point x="1627.6701515151515" y="125.43000000000002"/>
      <point x="1524.5304545454546" y="125.43000000000002" type="curve" smooth="yes"/>
      <point x="1448.3460606060607" y="125.43000000000002"/>
      <point x="1409.6477272727275" y="167.43560606060606"/>
      <point x="1409.6477272727275" y="272.1451515151515" type="curve" smooth="yes"/>
      <point x="1409.6477272727275" y="692.6872727272727" type="line" smooth="yes"/>
      <point x="1409.6477272727275" y="995.5754545454546"/>
      <point x="1263.915909090909" y="1096.7821212121212"/>
      <point x="972.7372727272727" y="1096.7821212121212" type="curve" smooth="yes"/>
      <point x="869.0054545454545" y="1096.7821212121212"/>
      <point x="745.8378787878788" y="1078.6089393939394"/>
      <point x="650.715" y="1045.044696969697" type="curve"/>
      <point x="649.9328787878788" y="881.2348484848485" type="line"/>
      <point x="749.2401515151515" y="916.670606060606"/>
      <point x="858.1507575757576" y="932.6259090909091"/>
      <point x="941.4524242424243" y="932.6259090909091" type="curve" smooth="yes"/>
      <point x="1120.6312121212122" y="932.6259090909091"/>
      <point x="1206.3407575757576" y="880.1007575757576"/>
      <point x="1206.3407575757576" y="700.1174242424242" type="curve" smooth="yes"/>
      <point x="1206.3407575757576" y="249.72060606060606" type="line"/>
      <point x="1139.9775757575758" y="168.3909090909091"/>
      <point x="1044.9607575757575" y="136.03333333333336"/>
      <point x="963.1562121212121" y="136.03333333333336" type="curve" smooth="yes"/>
      <point x="842.999696969697" y="136.03333333333336"/>
      <point x="774.904696969697" y="192.30712121212122"/>
      <point x="774.904696969697" y="304.6759090909091" type="curve" smooth="yes"/>
      <point x="774.904696969697" y="413.12848484848485"/>
      <point x="841.0890909090909" y="469.53075757575755"/>
      <point x="989.8545454545455" y="485.4916666666667" type="curve" smooth="yes"/>
      <point x="1271.1507575757576" y="514.7598484848485" type="line"/>
      <point x="1252.3798484848485" y="639.4189393939394" type="line"/>
      <point x="973.2568181818182" y="610.1507575757576" type="line" smooth="yes"/>
      <point x="690.2401515151515" y="584.2792424242424"/>
      <point x="567.1619696969697" y="477.50272727272727"/>
      <point x="567.1619696969697" y="283.42454545454547" type="curve" smooth="yes"/>
      <point x="567.1619696969697" y="95.94969696969697"/>
      <point x="694.2457575757576" y="-18.346363636363638"/>
      <point x="903.8434848484849" y="-18.346363636363638" type="curve" smooth="yes"/>
      <point x="1030.9775757575758" y="-18.346363636363638"/>
      <point x="1149.0669696969696" y="28.614545454545453"/>
      <point x="1211.2066666666667" y="128.34636363636363" type="curve"/>
      <point x="1224.899393939394" y="128.34636363636363" type="line"/>
      <point x="1265.4077272727272" y="35.13409090909091"/>
      <point x="1351.0892424242425" y="-18.346363636363638"/>
      <point x="1483.379696969697" y="-18.346363636363638" type="curve" smooth="yes"/>
      <point x="1704.6924242424243" y="-18.346363636363638"/>
      <point x="1869.2398484848486" y="144.87151515151515"/>
      <point x="1869.8487878787878" y="570.949696969697" type="curve" smooth="yes"/>
      <point x="1870.4577272727272" y="1198.2625757575759"/>
      <point x="1555.8265151515152" y="1498.0"/>
      <point x="991.2121212121212" y="1498.0" type="curve" smooth="yes"/>
      <point x="426.9887878787879" y="1498.0"/>
      <point x="98.8380303030303" y="1198.2625757575759"/>
      <point x="98.8380303030303" y="520.0" type="curve" smooth="yes"/>
      <point x="98.8380303030303" y="-161.9162121212121"/>
      <point x="428.81560606060606" y="-459.3910606060606"/>
    </contour>
  </outline>
</glyph>
<glyph name="A" format="2">
  <advance width="1381.418787878788"/>
  <unicode hex="0041"/>
  <note>
520
</note>
  <anchor x="691.3183333333334" y="0.0" name="bottom"/>
  <anchor x="1357.323787878788" y="0.0" name="ogonek"/>
  <anchor x="690.9272727272728" y="1520.0" name="top"/>
  <outline>
    <contour>
      <point x="24.094999999999995" y="0.0" type="line"/>
      <point x="232.79303030303035" y="0.0" type="line"/>
      <point x="703.6646969696969" y="1383.2962121212122" type="line"/>
      <point x="674.1898484848485" y="1383.2962121212122" type="line"/>
      <point x="1145.8436363636363" y="0.0" type="line"/>
      <point x="1357.323787878788" y="0.0" type="line"/>
      <point x="841.6421212121213" y="1480.0" type="line"/>
      <point x="539.7766666666666" y="1480.0" type="line"/>
    </contour>
    <contour>
      <point x="318.80439393939395" y="454.08954545454543" type="line"/>
      <point x="1061.4412121212122" y="454.08954545454543" type="line"/>
      <point x="1014.0669696969696" y="627.2401515151515" type="line"/>
      <point x="366.569696969697" y="627.2401515151515" type="line"/>
    </contour>
  </outline>
</glyph>
<glyph name="B" format="2">
  <advance width="1280.9160606060607"/>
  <unicode hex="0042"/>
  <anchor x="655.675909090909" y="0.0" name="bottom"/>
  <anchor x="655.675909090909" y="1480.0" name="top"/>
  <outline>
    <contour>
      <point x="539.0781818181819" y="-13.910606060606062" type="curve" smooth="yes"/>
      <point x="1029.435606060606" y="-13.910606060606062"/>
      <point x="1214.1227272727274" y="134.47484848484848"/>
      <point x="1214.1227272727274" y="406.3407575757576" type="curve" smooth="yes"/>
      <point x="1214.1227272727274" y="611.4692424242425"/>
      <point x="1099.474696969697" y="742.4357575757575"/>
      <point x="881.0165151515153" y="769.8268181818182" type="curve"/>
      <point x="879.189696969697" y="756.0" type="line"/>
      <point x="1081.2568181818183" y="789.3910606060606"/>
      <point x="1172.2959090909092" y="927.1787878787878"/>
      <point x="1172.2959090909092" y="1096.7039393939394" type="curve" smooth="yes"/>
      <point x="1172.2959090909092" y="1365.0893939393939"/>
      <point x="996.6981818181819" y="1496.3463636363635"/>
      <point x="585.1563636363636" y="1496.3463636363635" type="curve" smooth="yes"/>
      <point x="429.5083333333333" y="1496.3463636363635"/>
      <point x="284.6201515151515" y="1479.2625757575759"/>
      <point x="158.3240909090909" y="1452.5698484848485" type="curve"/>
      <point x="158.3240909090909" y="11.173181818181819" type="line"/>
      <point x="284.6704545454545" y="-5.391060606060606"/>
      <point x="419.1675757575758" y="-13.910606060606062"/>
    </contour>
    <contour>
      <point x="588.0054545454545" y="147.50818181818184" type="curve" smooth="yes"/>
      <point x="508.1227272727273" y="147.50818181818184"/>
      <point x="439.7651515151515" y="150.33500000000004"/>
      <point x="365.1506060606061" y="159.59757575757578" type="curve"/>
      <point x="365.1506060606061" y="1315.0560606060606" type="line"/>
      <point x="435.24560606060606" y="1327.709696969697"/>
      <point x="508.9495454545455" y="1334.9275757575758"/>
      <point x="608.0110606060606" y="1334.9275757575758" type="curve" smooth="yes"/>
      <point x="872.0112121212121" y="1334.9275757575758"/>
      <point x="971.8995454545454" y="1262.698484848485"/>
      <point x="971.8995454545454" y="1087.3184848484848" type="curve" smooth="yes"/>
      <point x="971.8995454545454" y="922.4636363636364"/>
      <point x="878.2737878787879" y="840.9272727272728"/>
      <point x="631.715" y="840.9272727272728" type="curve" smooth="yes"/>
      <point x="338.9830303030303" y="840.9272727272728" type="line"/>
      <point x="338.9830303030303" y="675.9889393939394" type="line"/>
      <point x="661.0613636363637" y="675.9889393939394" type="line" smooth="yes"/>
      <point x="907.9218181818181" y="675.9889393939394"/>
      <point x="1015.8548484848485" y="592.8436363636364"/>
      <point x="1015.8548484848485" y="413.7709090909091" type="curve" smooth="yes"/>
      <point x="1015.8548484848485" y="234.26242424242426"/>
      <point x="911.4022727272727" y="147.50818181818184"/>
    </contour>
  </outline>
</glyph>
<glyph name="C" format="2">
  <advance width="1176.8657575757575"/>
  <unicode hex="0043"/>
  <anchor x="726.1507575757576" y="0.0" name="bottom"/>
  <anchor x="717.0166666666667" y="1520.0" name="top"/>
  <outline>
    <contour>
      <point x="799.3909090909091" y="-18.78212121212121" type="curve" smooth="yes"/>
      <point x="921.480303030303" y="-18.78212121212121"/>
      <point x="1036.7372727272727" y="0.6536363636363629"/>
      <point x="1134.2177272727272" y="33.7430303030303" type="curve"/>
      <point x="1134.2177272727272" y="212.80424242424243" type="line"/>
      <point x="1021.3406060606061" y="176.62545454545457"/>
      <point x="923.1674242424242" y="160.23439393939395"/>
      <point x="816.5975757575758" y="160.23439393939395" type="curve" smooth="yes"/>
      <point x="500.7651515151515" y="160.23439393939395"/>
      <point x="320.22318181818184" y="304.4187878787879"/>
      <point x="320.22318181818184" y="741.2178787878788" type="curve" smooth="yes"/>
      <point x="320.22318181818184" y="1163.2739393939394"/>
      <point x="496.24" y="1319.765606060606"/>
      <point x="827.2065151515152" y="1319.765606060606" type="curve" smooth="yes"/>
      <point x="933.2959090909092" y="1319.765606060606"/>
      <point x="1033.2121212121212" y="1306.938787878788"/>
      <point x="1134.2177272727272" y="1278.9778787878788" type="curve"/>
      <point x="1134.2177272727272" y="1458.0390909090909" type="line"/>
      <point x="1032.1730303030304" y="1485.128484848485"/>
      <point x="928.2177272727273" y="1498.7821212121212"/>
      <point x="815.3909090909091" y="1498.7821212121212" type="curve" smooth="yes"/>
      <point x="363.4748484848485" y="1498.7821212121212"/>
      <point x="98.8380303030303" y="1264.5363636363636"/>
      <point x="98.8380303030303" y="737.2178787878788" type="curve" smooth="yes"/>
      <point x="98.8380303030303" y="189.5530303030303"/>
      <point x="366.044696969697" y="-18.78212121212121"/>
    </contour>
  </outline>
</glyph>
<glyph name="D" format="2">
  <advance width="1430.2065151515153"/>
  <unicode hex="0044"/>
  <anchor x="652.0613636363637" y="0.0" name="bottom"/>
  <anchor x="709.3239393939393" y="740.0" name="center"/>
  <anchor x="158.3240909090909" y="762.0" name="stroke"/>
  <anchor x="644.2401515151515" y="1520.0" name="top"/>
  <outline>
    <contour>
      <point x="525.2066666666667" y="-12.737424242424243" type="curve" smooth="yes"/>
      <point x="1060.7316666666666" y="-12.737424242424243"/>
      <point x="1331.368484848485" y="215.3519696969697"/>
      <point x="1331.368484848485" y="740.0" type="curve" smooth="yes"/>
      <point x="1331.368484848485" y="1254.3016666666667"/>
      <point x="1072.469090909091" y="1495.1731818181818"/>
      <point x="569.6703030303031" y="1495.1731818181818" type="curve" smooth="yes"/>
      <point x="434.2960606060606" y="1495.1731818181818"/>
      <point x="283.57545454545453" y="1479.2625757575759"/>
      <point x="158.3240909090909" y="1453.178787878788" type="curve"/>
      <point x="158.3240909090909" y="9.217878787878789" type="line"/>
      <point x="291.6257575757576" y="-6.564242424242424"/>
      <point x="410.0390909090909" y="-12.737424242424243"/>
    </contour>
    <contour>
      <point x="572.9607575757576" y="163.54166666666669" type="curve" smooth="yes"/>
      <point x="495.8154545454546" y="163.54166666666669"/>
      <point x="433.7204545454546" y="166.58636363636367"/>
      <point x="369.45227272727277" y="174.45787878787883" type="curve"/>
      <point x="369.45227272727277" y="1301.5868181818182" type="line"/>
      <point x="439.9886363636364" y="1312.8493939393938"/>
      <point x="514.6925757575758" y="1319.676212121212"/>
      <point x="580.3127272727272" y="1319.676212121212" type="curve" smooth="yes"/>
      <point x="936.6592424242424" y="1319.676212121212"/>
      <point x="1113.8939393939395" y="1148.7375757575758"/>
      <point x="1113.8939393939395" y="740.7821212121212" type="curve" smooth="yes"/>
      <point x="1113.8939393939395" y="328.6087878787879"/>
      <point x="934.6983333333333" y="163.54166666666669"/>
    </contour>
  </outline>
</glyph>
<glyph name="E" format="2">
  <advance width="1192.43"/>
  <unicode hex="0045"/>
  <anchor x="657.8993939393939" y="0.0" name="bottom"/>
  <anchor x="1037.1283333333333" y="0.0" name="ogonek"/>
  <anchor x="656.6815151515152" y="1520.0" name="top"/>
  <anchor x="39.82681818181818" y="1480.0" name="topleft"/>
  <outline>
    <contour>
      <point x="158.3240909090909" y="0.0" type="line"/>
      <point x="1121.0389393939395" y="0.0" type="line"/>
      <point x="1121.0389393939395" y="173.93272727272728" type="line"/>
      <point x="367.1059090909091" y="173.93272727272728" type="line"/>
      <point x="367.1059090909091" y="1306.0672727272727" type="line"/>
      <point x="1111.0389393939395" y="1306.0672727272727" type="line"/>
      <point x="1111.0389393939395" y="1480.0" type="line"/>
      <point x="158.3240909090909" y="1480.0" type="line"/>
    </contour>
    <contour>
      <point x="287.709393939394" y="671.6872727272727" type="line"/>
      <point x="1012.1283333333333" y="671.6872727272727" type="line"/>
      <point x="1012.1283333333333" y="845.62" type="line"/>
      <point x="287.709393939394" y="845.62" type="line"/>
    </contour>
  </outline>
</glyph>
<glyph name="F" format="2">
  <advance width="1151.43"/>
  <unicode hex="0046"/>
  <outline>
    <contour>
      <point x="158.3240909090909" y="0.0" type="line"/>
      <point x="369.45227272727277" y="0.0" type="line"/>
      <point x="369.45227272727277" y="1303.3298484848485" type="line"/>
      <point x="1104.9495454545454" y="1303.3298484848485" type="line"/>
      <point x="1104.9495454545454" y="1480.0" type="line"/>
      <point x="158.3240909090909" y="1480.0" type="line"/>
    </contour>
    <contour>
      <point x="300.0557575757576" y="651.3521212121212" type="line"/>
      <point x="1006.0389393939395" y="651.3521212121212" type="line"/>
      <point x="1006.0389393939395" y="828.0222727272727" type="line"/>
      <point x="300.0557575757576" y="828.0222727272727" type="line"/>
    </contour>
  </outline>
</glyph>
<glyph name="G" format="2">
  <advance width="1370.608787878788"/>
  <unicode hex="0047"/>
  <anchor x="762.1842424242425" y="0.0" name="bottom"/>
  <anchor x="762.1842424242425" y="1520.0" name="top"/>
  <outline>
    <contour>
      <point x="884.0948484848485" y="-13.910606060606062" type="curve" smooth="yes"/>
      <point x="996.0445454545454" y="-13.910606060606062"/>
      <point x="1100.3796969696969" y="-4.782121212121212"/>
      <point x="1226.7260606060606" y="16.21787878787879" type="curve"/>
      <point x="1226.7260606060606" y="720.0" type="line"/>
      <point x="1028.111818181818" y="720.0" type="line"/>
      <point x="1028.111818181818" y="101.31272727272727" type="line"/>
      <point x="1115.0278787878788" y="184.41318181818184" type="line"/>
      <point x="1043.5027272727273" y="171.1506060606061"/>
      <point x="960.5027272727273" y="163.9327272727273"/>
      <point x="870.0166666666667" y="163.9327272727273" type="curve" smooth="yes"/>
      <point x="503.7651515151515" y="163.9327272727273"/>
      <point x="320.05000000000007" y="330.1227272727273"/>
      <point x="319.44106060606066" y="735.6983333333334" type="curve" smooth="yes"/>
      <point x="318.83212121212125" y="1163.4918181818182"/>
      <point x="518.7260606060606" y="1319.3745454545453"/>
      <point x="873.7651515151515" y="1319.765606060606" type="curve" smooth="yes"/>
      <point x="974.9383333333334" y="1319.765606060606"/>
      <point x="1074.9830303030303" y="1308.3745454545453"/>
      <point x="1190.2959090909092" y="1277.804696969697" type="curve"/>
      <point x="1190.2959090909092" y="1456.865909090909" type="line"/>
      <point x="1081.0333333333333" y="1484.7374242424241"/>
      <point x="971.6869696969698" y="1498.7821212121212"/>
      <point x="858.3406060606061" y="1498.7821212121212" type="curve" smooth="yes"/>
      <point x="384.9162121212121" y="1498.7821212121212"/>
      <point x="98.2290909090909" y="1266.3631818181818"/>
      <point x="98.8380303030303" y="737.2178787878788" type="curve" smooth="yes"/>
      <point x="99.44696969696969" y="217.21227272727273"/>
      <point x="365.3910606060606" y="-13.910606060606062"/>
    </contour>
  </outline>
</glyph>
<glyph name="H" format="2">
  <advance width="1469.1730303030304"/>
  <unicode hex="0048"/>
  <anchor x="734.9775757575758" y="0.0" name="bottom"/>
  <anchor x="734.9775757575758" y="1167.7653030303031" name="center"/>
  <anchor x="734.9775757575758" y="1520.0" name="top"/>
  <anchor x="39.04469696969697" y="1480.0" name="topleft"/>
  <outline>
    <contour>
      <point x="158.3240909090909" y="0.0" type="line"/>
      <point x="369.45227272727277" y="0.0" type="line"/>
      <point x="369.45227272727277" y="664.2571212121212" type="line"/>
      <point x="1099.7207575757575" y="664.2571212121212" type="line"/>
      <point x="1099.7207575757575" y="0.0" type="line"/>
      <point x="1310.8489393939394" y="0.0" type="line"/>
      <point x="1310.8489393939394" y="1480.0" type="line"/>
      <point x="1099.7207575757575" y="1480.0" type="line"/>
      <point x="1099.7207575757575" y="853.0501515151516" type="line"/>
      <point x="369.45227272727277" y="853.0501515151516" type="line"/>
      <point x="369.45227272727277" y="1480.0" type="line"/>
      <point x="158.3240909090909" y="1480.0" type="line"/>
    </contour>
  </outline>
</glyph>
<glyph name="I" format="2">
  <advance width="527.7763636363636"/>
  <unicode hex="0049"/>
  <anchor x="263.4971212121212" y="0.0" name="bottom"/>
  <anchor x="369.45227272727277" y="0.0" name="ogonek"/>
  <anchor x="263.8881818181818" y="1520.0" name="top"/>
  <outline>
    <contour>
      <point x="158.3240909090909" y="0.0" type="line"/>
      <point x="369.45227272727277" y="0.0" type="line"/>
      <point x="369.45227272727277" y="1480.0" type="line"/>
      <point x="158.3240909090909" y="1480.0" type="line"/>
    </contour>
  </outline>
</glyph>
<glyph name="J" format="2">
  <advance width="527.7763636363636"/>
  <unicode hex="004A"/>
  <anchor x="401.1171212121212" y="0.0" name="bottom"/>
  <anchor x="264.27924242424245" y="1520.0" name="top"/>
  <outline>
    <contour>
      <point x="124.2568181818182" y="-345.4748484848485" type="line"/>
      <point x="300.1506060606061" y="-139.65363636363637"/>
      <point x="362.7539393939394" y="40.7709090909091"/>
      <point x="369.45227272727277" y="279.2010606060606" type="curve"/>
      <point x="369.45227272727277" y="1480.0" type="line"/>
      <point x="159.1062121212121" y="1480.0" type="line"/>
      <point x="159.1062121212121" y="293.03909090909093" type="line" smooth="yes"/>
      <point x="159.1062121212121" y="66.33515151515152"/>
      <point x="110.88272727272727" y="-85.24030303030302"/>
      <point x="-12.731818181818184" y="-252.98893939393938" type="curve"/>
    </contour>
  </outline>
</glyph>
<glyph name="K" format="2">
  <advance width="1264.7316666666666"/>
  <unicode hex="004B"/>
  <anchor x="660.9719696969697" y="0.0" name="bottom"/>
  <anchor x="657.4524242424243" y="1480.0" name="top"/>
  <outline>
    <contour>
      <point x="1060.290606060606" y="0.0" type="line"/>
      <point x="1294.6757575757576" y="0.0" type="line"/>
      <point x="710.3851515151516" y="789.6424242424242" type="line"/>
      <point x="707.2566666666667" y="732.0112121212121" type="line"/>
      <point x="1252.284696969697" y="1480.0" type="line"/>
      <point x="1024.9833333333333" y="1480.0" type="line"/>
      <point x="497.7765151515151" y="755.6536363636363" type="line"/>
    </contour>
    <contour>
      <point x="158.3240909090909" y="0.0" type="line"/>
      <point x="369.45227272727277" y="0.0" type="line"/>
      <point x="369.45227272727277" y="1480.0" type="line"/>
      <point x="158.3240909090909" y="1480.0" type="line"/>
    </contour>
    <contour>
      <point x="337.0277272727273" y="664.2571212121212" type="line"/>
      <point x="588.7037878787879" y="664.2571212121212" type="line"/>
      <point x="588.7037878787879" y="852.4412121212122" type="line"/>
      <point x="337.0277272727273" y="852.4412121212122" type="line"/>
    </contour>
  </outline>
</glyph>
<glyph name="L" format="2">
  <advance width="1094.2624242424242"/>
  <unicode hex="004C"/>
  <anchor x="621.3798484848485" y="0.0" name="bottom"/>
  <anchor x="716.8378787878788" y="1616.0" name="caronalt"/>
  <anchor x="801.3015151515152" y="827.9663636363637" name="periodcentered"/>
  <anchor x="265.4524242424243" y="805.2848484848485" name="slash"/>
  <anchor x="265.4524242424243" y="1520.0" name="top"/>
  <outline>
    <contour>
      <point x="158.3240909090909" y="0.0" type="line"/>
      <point x="1083.2177272727272" y="0.0" type="line"/>
      <point x="1083.2177272727272" y="179.79863636363638" type="line"/>
      <point x="369.45227272727277" y="179.79863636363638" type="line"/>
      <point x="369.45227272727277" y="1480.0" type="line"/>
      <point x="158.3240909090909" y="1480.0" type="line"/>
    </contour>
  </outline>
</glyph>
<glyph name="M" format="2">
  <advance width="1795.24"/>
  <unicode hex="004D"/>
  <anchor x="908.9607575757576" y="0.0" name="bottom"/>
  <anchor x="908.9607575757576" y="1480.0" name="top"/>
  <outline>
    <contour>
      <point x="162.3240909090909" y="0.0" type="line"/>
      <point x="360.50257575757576" y="0.0" type="line"/>
      <point x="360.50257575757576" y="1296.0784848484848" type="line"/>
      <point x="300.21212121212125" y="1296.0784848484848" type="line"/>
      <point x="806.4357575757576" y="207.8212121212121" type="line"/>
      <point x="988.8042424242425" y="207.8212121212121" type="line"/>
      <point x="1486.3798484848485" y="1296.0784848484848" type="line"/>
      <point x="1434.7374242424244" y="1296.0784848484848" type="line"/>
      <point x="1434.7374242424244" y="0.0" type="line"/>
      <point x="1632.915909090909" y="0.0" type="line"/>
      <point x="1632.915909090909" y="1480.0" type="line"/>
      <point x="1379.5922727272728" y="1480.0" type="line"/>
      <point x="883.62" y="382.1672727272728" type="line"/>
      <point x="919.530606060606" y="382.1672727272728" type="line"/>
      <point x="415.6477272727273" y="1480.0" type="line"/>
      <point x="162.3240909090909" y="1480.0" type="line"/>
    </contour>
  </outline>
</glyph>
<glyph name="N" format="2">
  <advance width="1491.525"/>
  <unicode hex="004E"/>
  <anchor x="746.0669696969697" y="0.0" name="bottom"/>
  <anchor x="746.0669696969697" y="1520.0" name="top"/>
  <outline>
    <contour>
      <point x="158.3240909090909" y="0.0" type="line"/>
      <point x="357.6757575757576" y="0.0" type="line"/>
      <point x="357.6757575757576" y="1229.162424242424" type="line"/>
      <point x="312.9886363636364" y="1229.162424242424" type="line"/>
      <point x="1118.2012121212122" y="0.0" type="line"/>
      <point x="1333.2009090909091" y="0.0" type="line"/>
      <point x="1333.2009090909091" y="1480.0" type="line"/>
      <point x="1133.8492424242424" y="1480.0" type="line"/>
      <point x="1133.8492424242424" y="250.83757575757582" type="line"/>
      <point x="1178.5363636363636" y="250.83757575757582" type="line"/>
      <point x="373.3237878787879" y="1480.0" type="line"/>
      <point x="158.3240909090909" y="1480.0" type="line"/>
    </contour>
  </outline>
</glyph>
<glyph name="O" format="2">
  <advance width="1475.9327272727273"/>
  <unicode hex="004F"/>
  <anchor x="737.9663636363637" y="0.0" name="bottom"/>
  <anchor x="737.9663636363637" y="740.0" name="center"/>
  <anchor x="903.8322727272728" y="0.0" name="ogonek"/>
  <anchor x="737.9663636363637" y="1520.0" name="top"/>
  <anchor x="46.73742424242424" y="1480.0" name="topleft"/>
  <anchor x="915.7372727272727" y="1480.0" name="topright"/>
  <outline>
    <contour>
      <point x="737.9663636363637" y="-18.78212121212121" type="curve" smooth="yes"/>
      <point x="1121.284696969697" y="-18.78212121212121"/>
      <point x="1377.094696969697" y="212.20666666666668"/>
      <point x="1377.094696969697" y="740.0" type="curve" smooth="yes"/>
      <point x="1377.094696969697" y="1267.7933333333333"/>
      <point x="1123.5025757575759" y="1498.7821212121212"/>
      <point x="737.9663636363637" y="1498.7821212121212" type="curve" smooth="yes"/>
      <point x="354.2569696969697" y="1498.7821212121212"/>
      <point x="98.8380303030303" y="1268.5754545454545"/>
      <point x="98.8380303030303" y="740.0" type="curve" smooth="yes"/>
      <point x="98.8380303030303" y="211.42454545454547"/>
      <point x="352.8212121212121" y="-18.78212121212121"/>
    </contour>
    <contour>
      <point x="737.9663636363637" y="157.32378787878793" type="curve" smooth="yes"/>
      <point x="480.7260606060606" y="157.32378787878793"/>
      <point x="316.3125757575758" y="311.2065151515152"/>
      <point x="316.3125757575758" y="745.5642424242425" type="curve" smooth="yes"/>
      <point x="316.3125757575758" y="1168.793484848485"/>
      <point x="481.8992424242424" y="1322.676212121212"/>
      <point x="737.9663636363637" y="1322.676212121212" type="curve" smooth="yes"/>
      <point x="994.0334848484848" y="1322.676212121212"/>
      <point x="1159.6201515151515" y="1167.620303030303"/>
      <point x="1159.6201515151515" y="734.4357575757575" type="curve" smooth="yes"/>
      <point x="1159.6201515151515" y="312.37969696969697"/>
      <point x="995.2066666666667" y="157.32378787878793"/>
    </contour>
  </outline>
</glyph>
<glyph name="P" format="2">
  <advance width="1257.9104545454545"/>
  <unicode hex="0050"/>
  <outline>
    <contour>
      <point x="158.3240909090909" y="0.0" type="line"/>
      <point x="369.45227272727277" y="0.0" type="line"/>
      <point x="369.45227272727277" y="475.8157575757576" type="line"/>
      <point x="431.63666666666666" y="470.9442424242424"/>
      <point x="484.7316666666667" y="468.335303030303"/>
      <point x="548.480303030303" y="468.335303030303" type="curve" smooth="yes"/>
      <point x="972.4356060606061" y="468.335303030303"/>
      <point x="1173.3796969696969" y="647.2012121212122"/>
      <point x="1173.3796969696969" y="982.7542424242424" type="curve" smooth="yes"/>
      <point x="1173.3796969696969" y="1337.916212121212"/>
      <point x="963.9551515151516" y="1496.3463636363635"/>
      <point x="558.5474242424243" y="1496.3463636363635" type="curve" smooth="yes"/>
      <point x="413.0837878787879" y="1496.3463636363635"/>
      <point x="285.79333333333335" y="1481.2178787878788"/>
      <point x="158.3240909090909" y="1456.6983333333333" type="curve"/>
    </contour>
    <contour>
      <point x="551.8713636363636" y="633.6646969696969" type="curve" smooth="yes"/>
      <point x="484.1227272727273" y="633.6646969696969"/>
      <point x="428.76515151515156" y="636.8825757575758"/>
      <point x="369.45227272727277" y="644.9272727272728" type="curve"/>
      <point x="369.45227272727277" y="1314.4918181818182" type="line"/>
      <point x="432.5081818181818" y="1325.3633333333332"/>
      <point x="496.4356060606061" y="1331.0169696969697"/>
      <point x="574.9719696969697" y="1331.0169696969697" type="curve" smooth="yes"/>
      <point x="838.7486363636364" y="1331.0169696969697"/>
      <point x="965.6816666666666" y="1225.698484848485"/>
      <point x="965.6816666666666" y="980.145303030303" type="curve" smooth="yes"/>
      <point x="965.6816666666666" y="742.3798484848485"/>
      <point x="841.1843939393939" y="633.6646969696969"/>
    </contour>
  </outline>
</glyph>
<glyph name="Q" format="2">
  <advance width="1475.9327272727273"/>
  <unicode hex="0051"/>
  <outline>
    <contour>
      <point x="1320.1506060606062" y="-255.86575757575758" type="curve"/>
      <point x="1354.3963636363637" y="-85.06151515151515" type="line"/>
      <point x="1130.6198484848485" y="-62.58666666666666"/>
      <point x="891.7874242424243" y="-19.893939393939384"/>
      <point x="691.2009090909091" y="62.53621212121214" type="curve"/>
      <point x="637.5418181818181" y="7.2513636363636405" type="line"/>
      <point x="1125.8936363636365" y="-53.69833333333333"/>
      <point x="1377.094696969697" y="218.5530303030303"/>
      <point x="1377.094696969697" y="740.0" type="curve" smooth="yes"/>
      <point x="1377.094696969697" y="1271.4469696969697"/>
      <point x="1121.6757575757576" y="1498.7821212121212"/>
      <point x="737.9663636363637" y="1498.7821212121212" type="curve" smooth="yes"/>
      <point x="354.2569696969697" y="1498.7821212121212"/>
      <point x="98.8380303030303" y="1268.5754545454545"/>
      <point x="98.8380303030303" y="736.089393939394" type="curve" smooth="yes"/>
      <point x="98.8380303030303" y="157.11166666666668"/>
      <point x="374.08378787878786" y="-132.3239393939394"/>
    </contour>
    <contour>
      <point x="737.9663636363637" y="157.32378787878793" type="curve" smooth="yes"/>
      <point x="479.9439393939394" y="157.32378787878793"/>
      <point x="316.3125757575758" y="310.42439393939395"/>
      <point x="316.3125757575758" y="745.5642424242425" type="curve" smooth="yes"/>
      <point x="316.3125757575758" y="1168.793484848485"/>
      <point x="481.8992424242424" y="1322.676212121212"/>
      <point x="737.9663636363637" y="1322.676212121212" type="curve" smooth="yes"/>
      <point x="994.0334848484848" y="1322.676212121212"/>
      <point x="1159.6201515151515" y="1167.620303030303"/>
      <point x="1159.6201515151515" y="734.4357575757575" type="curve" smooth="yes"/>
      <point x="1159.6201515151515" y="312.37969696969697"/>
      <point x="995.2066666666667" y="157.32378787878793"/>
    </contour>
  </outline>
</glyph>
<glyph name="R" format="2">
  <advance width="1328.1786363636363"/>
  <unicode hex="0052"/>
  <anchor x="695.1954545454546" y="0.0" name="bottom"/>
  <anchor x="643.8434848484849" y="1520.0" name="top"/>
  <outline>
    <contour>
      <point x="158.3240909090909" y="0.0" type="line"/>
      <point x="366.3237878787879" y="0.0" type="line"/>
      <point x="366.3237878787879" y="598.0392424242424" type="line"/>
      <point x="427.80984848484854" y="593.9945454545455"/>
      <point x="481.0333333333333" y="590.7766666666666"/>
      <point x="556.6981818181819" y="590.7766666666666" type="curve" smooth="yes"/>
      <point x="951.4412121212122" y="590.7766666666666"/>
      <point x="1171.513787878788" y="745.1174242424242"/>
      <point x="1170.2959090909092" y="1047.1062121212121" type="curve" smooth="yes"/>
      <point x="1170.2959090909092" y="1355.0056060606062"/>
      <point x="973.4412121212122" y="1496.3463636363635"/>
      <point x="573.1563636363636" y="1496.3463636363635" type="curve" smooth="yes"/>
      <point x="416.5530303030303" y="1496.3463636363635"/>
      <point x="277.3128787878788" y="1477.4357575757576"/>
      <point x="158.3240909090909" y="1453.178787878788" type="curve"/>
    </contour>
    <contour>
      <point x="1053.385606060606" y="0.0" type="line"/>
      <point x="1287.335" y="0.0" type="line"/>
      <point x="773.8768181818182" y="692.4413636363637" type="line"/>
      <point x="545.055909090909" y="692.4413636363637" type="line"/>
    </contour>
    <contour>
      <point x="559.3909090909091" y="754.3239393939394" type="curve" smooth="yes"/>
      <point x="483.7707575757576" y="754.3239393939394"/>
      <point x="436.7260606060606" y="757.3239393939394"/>
      <point x="366.3237878787879" y="763.5418181818181" type="curve"/>
      <point x="366.3237878787879" y="1314.4471212121211" type="line"/>
      <point x="434.7707575757576" y="1326.3186363636364"/>
      <point x="499.0389393939394" y="1333.7543939393938"/>
      <point x="590.2736363636363" y="1333.7543939393938" type="curve" smooth="yes"/>
      <point x="854.5810606060606" y="1333.7543939393938"/>
      <point x="970.5084848484848" y="1249.1789393939393"/>
      <point x="970.5084848484848" y="1045.279393939394" type="curve" smooth="yes"/>
      <point x="970.5084848484848" y="845.3407575757576"/>
      <point x="845.4469696969697" y="754.3239393939394"/>
    </contour>
  </outline>
</glyph>
<glyph name="S" format="2">
  <advance width="1089.7763636363636"/>
  <unicode hex="0053"/>
  <anchor x="554.2345454545455" y="0.0" name="bottom"/>
  <anchor x="554.2345454545455" y="1520.0" name="top"/>
  <outline>
    <contour>
      <point x="474.36863636363637" y="-18.78212121212121" type="curve" smooth="yes"/>
      <point x="821.1730303030304" y="-18.78212121212121"/>
      <point x="1021.5919696969697" y="139.81560606060606"/>
      <point x="1021.5919696969697" y="411.6759090909091" type="curve" smooth="yes"/>
      <point x="1021.5919696969697" y="630.0166666666667"/>
      <point x="894.9439393939394" y="756.8378787878788"/>
      <point x="617.2121212121212" y="826.4021212121212" type="curve" smooth="yes"/>
      <point x="527.8378787878788" y="849.4412121212122" type="line" smooth="yes"/>
      <point x="343.15621212121215" y="898.3183333333334"/>
      <point x="280.18409090909097" y="960.4636363636364"/>
      <point x="280.18409090909097" y="1088.2346969696969" type="curve" smooth="yes"/>
      <point x="280.18409090909097" y="1235.3130303030302"/>
      <point x="382.68136363636364" y="1323.676212121212"/>
      <point x="630.5193939393939" y="1323.676212121212" type="curve" smooth="yes"/>
      <point x="741.5584848484848" y="1323.676212121212"/>
      <point x="854.290303030303" y="1308.1119696969697"/>
      <point x="953.424393939394" y="1277.4583333333333" type="curve"/>
      <point x="953.424393939394" y="1454.5642424242424" type="line"/>
      <point x="860.8601515151515" y="1482.6089393939394"/>
      <point x="741.6031818181818" y="1498.7821212121212"/>
      <point x="622.0054545454545" y="1498.7821212121212" type="curve" smooth="yes"/>
      <point x="253.6480303030303" y="1498.7821212121212"/>
      <point x="68.18439393939393" y="1339.4413636363636"/>
      <point x="68.18439393939393" y="1076.8045454545454" type="curve" smooth="yes"/>
      <point x="68.18439393939393" y="859.0727272727272"/>
      <point x="195.61454545454546" y="731.2515151515152"/>
      <point x="450.044696969697" y="666.8604545454546" type="curve" smooth="yes"/>
      <point x="539.4189393939394" y="643.8213636363636" type="line" smooth="yes"/>
      <point x="737.9665151515152" y="591.7710606060606"/>
      <point x="809.5922727272728" y="530.8883333333333"/>
      <point x="809.5922727272728" y="398.11727272727273" type="curve" smooth="yes"/>
      <point x="809.5922727272728" y="241.3406060606061"/>
      <point x="706.1787878787878" y="156.32378787878793"/>
      <point x="475.6312121212121" y="156.32378787878793" type="curve" smooth="yes"/>
      <point x="358.5530303030303" y="156.32378787878793"/>
      <point x="219.52515151515152" y="177.23439393939395"/>
      <point x="95.1340909090909" y="218.84333333333336" type="curve"/>
      <point x="95.1340909090909" y="41.73742424242424" type="line"/>
      <point x="211.6089393939394" y="1.9553030303030305"/>
      <point x="348.6871212121212" y="-18.78212121212121"/>
    </contour>
  </outline>
</glyph>
<glyph name="T" format="2">
  <advance width="1208.5919696969697"/>
  <unicode hex="0054"/>
  <anchor x="604.4915151515152" y="0.0" name="bottom"/>
  <anchor x="604.4915151515152" y="760.8939393939394" name="center"/>
  <anchor x="604.4915151515152" y="1520.0" name="top"/>
  <outline>
    <contour>
      <point x="498.5363636363636" y="0.0" type="line"/>
      <point x="710.0556060606061" y="0.0" type="line"/>
      <point x="710.0556060606061" y="1300.2013636363636" type="line"/>
      <point x="1194.9830303030303" y="1300.2013636363636" type="line"/>
      <point x="1194.9830303030303" y="1480.0" type="line"/>
      <point x="13.608939393939394" y="1480.0" type="line"/>
      <point x="13.608939393939394" y="1300.2013636363636" type="line"/>
      <point x="498.5363636363636" y="1300.2013636363636" type="line"/>
    </contour>
  </outline>
</glyph>
<glyph name="U" format="2">
  <advance width="1440.435606060606"/>
  <unicode hex="0055"/>
  <anchor x="722.5865151515152" y="0.0" name="bottom"/>
  <anchor x="904.513787878788" y="1.2178787878787878" name="ogonek"/>
  <anchor x="722.5865151515152" y="1520.0" name="top"/>
  <anchor x="1095.8436363636363" y="1480.0" name="topright"/>
  <outline>
    <contour>
      <point x="722.5865151515152" y="-18.78212121212121" type="curve" smooth="yes"/>
      <point x="1114.1674242424242" y="-18.78212121212121"/>
      <point x="1289.3293939393939" y="170.33515151515152"/>
      <point x="1289.3293939393939" y="575.9272727272728" type="curve" smooth="yes"/>
      <point x="1289.3293939393939" y="1480.0" type="line"/>
      <point x="1082.5475757575757" y="1480.0" type="line"/>
      <point x="1082.5475757575757" y="553.804393939394" type="line" smooth="yes"/>
      <point x="1082.5475757575757" y="278.46909090909094"/>
      <point x="969.3184848484848" y="159.06121212121215"/>
      <point x="722.5865151515152" y="159.06121212121215" type="curve" smooth="yes"/>
      <point x="475.8545454545455" y="159.06121212121215"/>
      <point x="362.23439393939395" y="278.46909090909094"/>
      <point x="362.23439393939395" y="553.804393939394" type="curve" smooth="yes"/>
      <point x="362.23439393939395" y="1480.0" type="line"/>
      <point x="151.1062121212121" y="1480.0" type="line"/>
      <point x="151.1062121212121" y="575.9272727272728" type="line" smooth="yes"/>
      <point x="151.1062121212121" y="170.33515151515152"/>
      <point x="328.2681818181818" y="-18.78212121212121"/>
    </contour>
  </outline>
</glyph>
<glyph name="V" format="2">
  <advance width="1349.24"/>
  <unicode hex="0056"/>
  <outline>
    <contour>
      <point x="520.0783333333334" y="0.0" type="line"/>
      <point x="829.1616666666667" y="0.0" type="line"/>
      <point x="1341.234393939394" y="1480.0" type="line"/>
      <point x="1133.3631818181818" y="1480.0" type="line"/>
      <point x="656.8881818181818" y="92.01106060606062" type="line"/>
      <point x="703.3909090909091" y="92.01106060606062" type="line"/>
      <point x="230.4354545454546" y="1480.0" type="line"/>
      <point x="8.005606060606057" y="1480.0" type="line"/>
    </contour>
  </outline>
</glyph>
<glyph name="W" format="2">
  <advance width="2164.5192424242423"/>
  <unicode hex="0057"/>
  <anchor x="1083.1730303030304" y="0.0" name="bottom"/>
  <anchor x="1083.1730303030304" y="1520.0" name="top"/>
  <outline>
    <contour>
      <point x="457.0280303030303" y="0.0" type="line"/>
      <point x="730.915909090909" y="0.0" type="line"/>
      <point x="1113.6366666666668" y="1348.3130303030302" type="line"/>
      <point x="1058.3127272727272" y="1348.3130303030302" type="line"/>
      <point x="1433.6033333333332" y="0.0" type="line"/>
      <point x="1707.4912121212121" y="0.0" type="line"/>
      <point x="2116.4186363636363" y="1480.0" type="line"/>
      <point x="1914.4580303030302" y="1480.0" type="line"/>
      <point x="1539.301515151515" y="97.4859090909091" type="line"/>
      <point x="1587.7595454545456" y="97.4859090909091" type="line"/>
      <point x="1208.5583333333334" y="1480.0" type="line"/>
      <point x="966.7374242424243" y="1480.0" type="line"/>
      <point x="580.715" y="97.4859090909091" type="line"/>
      <point x="633.474696969697" y="97.4859090909091" type="line"/>
      <point x="262.8377272727273" y="1480.0" type="line"/>
      <point x="47.49166666666666" y="1480.0" type="line"/>
    </contour>
  </outline>
</glyph>
<glyph name="X" format="2">
  <advance width="1307.6422727272727"/>
  <unicode hex="0058"/>
  <outline>
    <contour>
      <point x="1069.4972727272727" y="0.0" type="line"/>
      <point x="1307.6198484848485" y="0.0" type="line"/>
      <point x="777.1393939393939" y="760.5139393939394" type="line"/>
      <point x="654.0166666666667" y="917.4522727272728" type="line"/>
      <point x="260.61424242424243" y="1480.0" type="line"/>
      <point x="21.927424242424237" y="1480.0" type="line"/>
      <point x="528.329696969697" y="757.949696969697" type="line"/>
      <point x="651.4524242424243" y="601.575606060606" type="line"/>
    </contour>
    <contour>
      <point x="-2.150757575757588" y="0.0" type="line"/>
      <point x="232.79863636363638" y="0.0" type="line"/>
      <point x="651.4524242424243" y="601.575606060606" type="line"/>
      <point x="777.1393939393939" y="760.5139393939394" type="line"/>
      <point x="1280.0221212121212" y="1480.0" type="line"/>
      <point x="1047.6369696969696" y="1480.0" type="line"/>
      <point x="654.0166666666667" y="917.4522727272728" type="line"/>
      <point x="528.329696969697" y="757.949696969697" type="line"/>
    </contour>
  </outline>
</glyph>
<glyph name="Y" format="2">
  <advance width="1208.5919696969697"/>
  <unicode hex="0059"/>
  <anchor x="604.1004545454546" y="0.0" name="bottom"/>
  <anchor x="604.4915151515152" y="1520.0" name="top"/>
  <anchor x="1.8771212121212102" y="1480.0" name="topleft"/>
  <outline>
    <contour>
      <point x="499.70954545454543" y="0.0" type="line"/>
      <point x="710.8377272727273" y="0.0" type="line"/>
      <point x="710.8377272727273" y="732.8100000000001" type="line"/>
      <point x="666.2456060606061" y="578.0895454545455" type="line"/>
      <point x="1236.0165151515153" y="1480.0" type="line"/>
      <point x="1022.2737878787879" y="1480.0" type="line"/>
      <point x="576.759696969697" y="779.0501515151516" type="line"/>
      <point x="642.8266666666667" y="779.0501515151516" type="line"/>
      <point x="191.48575757575762" y="1480.0" type="line"/>
      <point x="-37.37984848484849" y="1480.0" type="line"/>
      <point x="544.3016666666666" y="578.0895454545455" type="line"/>
      <point x="499.70954545454543" y="735.1563636363636" type="line"/>
    </contour>
  </outline>
</glyph>
<glyph name="Z" format="2">
  <advance width="1178.8657575757577"/>
  <unicode hex="005A"/>
  <anchor x="588.759696969697" y="0.0" name="bottom"/>
  <anchor x="590.3239393939394" y="1520.0" name="top"/>
  <outline>
    <contour>
      <point x="61.04469696969697" y="0.0" type="line"/>
      <point x="1117.8210606060607" y="0.0" type="line"/>
      <point x="1117.8210606060607" y="178.58075757575762" type="line"/>
      <point x="298.28454545454554" y="178.58075757575762" type="line"/>
      <point x="306.80969696969703" y="133.2456060606061" type="line"/>
      <point x="1106.6031818181818" y="1362.9610606060605" type="line"/>
      <point x="1106.6031818181818" y="1480.0" type="line"/>
      <point x="72.26257575757576" y="1480.0" type="line"/>
      <point x="72.26257575757576" y="1301.4192424242424" type="line"/>
      <point x="869.3633333333333" y="1301.4192424242424" type="line"/>
      <point x="860.8381818181819" y="1346.7543939393938" type="line"/>
      <point x="61.04469696969697" y="117.03893939393942" type="line"/>
    </contour>
  </outline>
</glyph>
<glyph name="bracketleft" format="2">
  <advance width="676.0557575757575"/>
  <unicode hex="005B"/>
  <outline>
    <contour>
      <point x="178.3240909090909" y="-440.0" type="line"/>
      <point x="706.6703030303031" y="-440.0" type="line"/>
      <point x="706.6703030303031" y="-271.97787878787875" type="line"/>
      <point x="385.93272727272733" y="-271.97787878787875" type="line"/>
      <point x="385.93272727272733" y="1447.9778787878788" type="line"/>
      <point x="710.5809090909091" y="1447.9778787878788" type="line"/>
      <point x="710.5809090909091" y="1616.0" type="line"/>
      <point x="178.3240909090909" y="1616.0" type="line"/>
    </contour>
  </outline>
</glyph>
<glyph name="backslash" format="2">
  <advance width="670.3851515151516"/>
  <unicode hex="005C"/>
  <outline>
    <contour>
      <point x="463.6871212121212" y="-240.0" type="line"/>
      <point x="670.3851515151516" y="-240.0" type="line"/>
      <point x="206.69803030303035" y="1616.0" type="line"/>
      <point x="0.0" y="1616.0" type="line"/>
    </contour>
  </outline>
</glyph>
<glyph name="bracketright" format="2">
  <advance width="676.0557575757575"/>
  <unicode hex="005D"/>
  <outline>
    <contour>
      <point x="-30.61454545454545" y="-440.0" type="line"/>
      <point x="497.7316666666667" y="-440.0" type="line"/>
      <point x="497.7316666666667" y="1616.0" type="line"/>
      <point x="-34.525151515151514" y="1616.0" type="line"/>
      <point x="-34.525151515151514" y="1447.9778787878788" type="line"/>
      <point x="290.1230303030303" y="1447.9778787878788" type="line"/>
      <point x="290.1230303030303" y="-271.97787878787875" type="line"/>
      <point x="-30.61454545454545" y="-271.97787878787875" type="line"/>
    </contour>
  </outline>
</glyph>
<glyph name="underscore" format="2">
  <advance width="1148.6478787878789"/>
  <unicode hex="005F"/>
  <outline>
    <contour>
      <point x="91.08939393939394" y="-168.41318181818184" type="line"/>
      <point x="1057.5584848484848" y="-168.41318181818184" type="line"/>
      <point x="1057.5584848484848" y="-0.39106060606060616" type="line"/>
      <point x="91.08939393939394" y="-0.39106060606060616" type="line"/>
    </contour>
  </outline>
</glyph>
<glyph name="a" format="2">
  <advance width="1056.0389393939395"/>
  <unicode hex="0061"/>
  <anchor x="532.6312121212121" y="0.0" name="bottom"/>
  <anchor x="925.4578787878788" y="0.0" name="ogonek"/>
  <anchor x="524.1060606060606" y="1200.0" name="top"/>
  <outline>
    <contour>
      <point x="419.65363636363634" y="-18.346363636363638" type="curve" smooth="yes"/>
      <point x="544.2234848484849" y="-18.346363636363638"/>
      <point x="656.6201515151515" y="27.83242424242424"/>
      <point x="725.9274242424242" y="117.44136363636363" type="curve"/>
      <point x="737.8380303030303" y="117.44136363636363" type="line"/>
      <point x="752.8324242424243" y="0.0" type="line"/>
      <point x="925.4578787878788" y="0.0" type="line"/>
      <point x="925.4578787878788" y="692.8157575757575" type="line" smooth="yes"/>
      <point x="925.4578787878788" y="1003.3966666666666"/>
      <point x="779.7260606060606" y="1104.6033333333332"/>
      <point x="483.2010606060606" y="1104.6033333333332" type="curve" smooth="yes"/>
      <point x="379.9887878787879" y="1104.6033333333332"/>
      <point x="254.0837878787879" y="1088.3854545454546"/>
      <point x="157.39666666666668" y="1057.1675757575758" type="curve"/>
      <point x="157.39666666666668" y="893.3577272727273" type="line"/>
      <point x="258.2681818181818" y="926.4471212121211"/>
      <point x="367.96090909090907" y="940.4471212121211"/>
      <point x="451.5251515151515" y="940.4471212121211" type="curve" smooth="yes"/>
      <point x="636.4413636363636" y="940.4471212121211"/>
      <point x="722.1509090909091" y="887.9219696969697"/>
      <point x="722.1509090909091" y="704.1565151515151" type="curve" smooth="yes"/>
      <point x="722.1509090909091" y="248.15636363636364" type="line"/>
      <point x="653.4413636363636" y="166.04454545454547"/>
      <point x="563.5083333333333" y="134.46909090909094"/>
      <point x="478.96636363636367" y="134.46909090909094" type="curve" smooth="yes"/>
      <point x="354.5081818181818" y="134.46909090909094"/>
      <point x="290.7148484848485" y="193.48030303030305"/>
      <point x="290.7148484848485" y="303.1116666666667" type="curve" smooth="yes"/>
      <point x="290.7148484848485" y="408.82681818181817"/>
      <point x="355.1171212121212" y="468.18439393939394"/>
      <point x="512.3183333333334" y="484.145303030303" type="curve" smooth="yes"/>
      <point x="788.7877272727272" y="511.80454545454546" type="line"/>
      <point x="768.19" y="639.2010606060607" type="line"/>
      <point x="495.15636363636366" y="611.5418181818181" type="line" smooth="yes"/>
      <point x="206.05030303030304" y="586.4524242424243"/>
      <point x="82.97212121212121" y="477.50272727272727"/>
      <point x="82.97212121212121" y="283.42454545454547" type="curve" smooth="yes"/>
      <point x="82.97212121212121" y="97.73181818181818"/>
      <point x="209.4469696969697" y="-18.346363636363638"/>
    </contour>
  </outline>
</glyph>
<glyph name="b" format="2">
  <advance width="1159.379696969697"/>
  <unicode hex="0062"/>
  <anchor x="583.3630303030303" y="0.0" name="bottom"/>
  <anchor x="245.45242424242426" y="1616.0" name="top"/>
  <outline>
    <contour>
      <point x="502.10045454545457" y="-19.173181818181817" type="curve" smooth="yes"/>
      <point x="879.3740909090909" y="-19.564242424242426"/>
      <point x="1072.8880303030303" y="174.34075757575758"/>
      <point x="1072.8880303030303" y="565.0837878787879" type="curve" smooth="yes"/>
      <point x="1072.8880303030303" y="954.9609090909091"/>
      <point x="882.6310606060606" y="1104.6033333333332"/>
      <point x="655.284696969697" y="1104.6033333333332" type="curve" smooth="yes"/>
      <point x="526.3237878787879" y="1104.6033333333332"/>
      <point x="425.189696969697" y="1053.4692424242423"/>
      <point x="360.145" y="977.5139393939394" type="curve"/>
      <point x="349.0612121212122" y="977.5139393939394" type="line"/>
      <point x="349.0612121212122" y="1616.0" type="line"/>
      <point x="141.45257575757574" y="1616.0" type="line"/>
      <point x="141.45257575757574" y="33.38545454545455" type="line"/>
      <point x="250.1340909090909" y="-1.8268181818181812"/>
      <point x="380.854696969697" y="-19.173181818181817"/>
    </contour>
    <contour>
      <point x="519.0054545454545" y="144.59196969696973" type="curve" smooth="yes"/>
      <point x="455.16742424242426" y="144.59196969696973"/>
      <point x="393.329393939394" y="154.0724242424243"/>
      <point x="349.0612121212122" y="166.7707575757576" type="curve"/>
      <point x="349.0612121212122" y="822.0727272727272" type="line"/>
      <point x="407.80984848484854" y="895.7040909090908"/>
      <point x="497.48030303030305" y="929.8884848484848"/>
      <point x="585.9775757575758" y="929.8884848484848" type="curve" smooth="yes"/>
      <point x="746.3016666666667" y="929.8884848484848"/>
      <point x="862.4525757575757" y="845.614696969697"/>
      <point x="862.4525757575757" y="547.3072727272727" type="curve" smooth="yes"/>
      <point x="862.4525757575757" y="260.1339393939394"/>
      <point x="744.3016666666667" y="144.59196969696973"/>
    </contour>
  </outline>
</glyph>
<glyph name="c" format="2">
  <advance width="901.474696969697"/>
  <unicode hex="0063"/>
  <anchor x="528.2848484848485" y="0.0" name="bottom"/>
  <anchor x="520.7262121212121" y="1200.0" name="top"/>
  <outline>
    <contour>
      <point x="593.1395454545454" y="-19.564242424242426" type="curve" smooth="yes"/>
      <point x="685.1339393939394" y="-19.564242424242426"/>
      <point x="777.1730303030304" y="-4.564242424242424"/>
      <point x="860.6534848484848" y="24.307272727272725" type="curve"/>
      <point x="860.6534848484848" y="194.76515151515153" type="line"/>
      <point x="765.7819696969697" y="165.24000000000004"/>
      <point x="693.2121212121212" y="152.80424242424246"/>
      <point x="623.9942424242424" y="152.80424242424246" type="curve" smooth="yes"/>
      <point x="412.1953030303031" y="152.80424242424246"/>
      <point x="301.2287878787879" y="257.9495454545455"/>
      <point x="301.2287878787879" y="546.3463636363637" type="curve" smooth="yes"/>
      <point x="301.2287878787879" y="827.5699999999999"/>
      <point x="415.11151515151516" y="932.2348484848485"/>
      <point x="656.9551515151516" y="932.2348484848485" type="curve" smooth="yes"/>
      <point x="722.7372727272727" y="932.2348484848485"/>
      <point x="789.8266666666667" y="923.7990909090909"/>
      <point x="860.6534848484848" y="907.1007575757576" type="curve"/>
      <point x="860.6534848484848" y="1077.5586363636364" type="line"/>
      <point x="789.9607575757576" y="1095.9943939393938"/>
      <point x="710.8322727272728" y="1104.6033333333332"/>
      <point x="631.4915151515152" y="1104.6033333333332" type="curve" smooth="yes"/>
      <point x="282.03909090909093" y="1104.6033333333332"/>
      <point x="86.49166666666666" y="934.4804545454546"/>
      <point x="86.49166666666666" y="542.7374242424243" type="curve" smooth="yes"/>
      <point x="86.49166666666666" y="153.1228787878788"/>
      <point x="267.910606060606" y="-19.564242424242426"/>
    </contour>
  </outline>
</glyph>
<glyph name="d" format="2">
  <advance width="1159.379696969697"/>
  <unicode hex="0064"/>
  <anchor x="583.0557575757575" y="0.0" name="bottom"/>
  <anchor x="1126.195303030303" y="1616.0" name="caronalt"/>
  <anchor x="576.7987878787878" y="541.9553030303031" name="center"/>
  <anchor x="1017.9271212121212" y="1354.8268181818182" name="stroke"/>
  <anchor x="572.1060606060606" y="1200.0" name="top"/>
  <anchor x="1111.5081818181818" y="1087.821212121212" name="topright"/>
  <outline>
    <contour>
      <point x="520.2625757575757" y="-18.78212121212121" type="curve" smooth="yes"/>
      <point x="649.8715151515152" y="-18.78212121212121"/>
      <point x="752.7877272727272" y="36.26257575757576"/>
      <point x="816.8324242424243" y="116.65363636363637" type="curve"/>
      <point x="828.7430303030303" y="116.65363636363637" type="line"/>
      <point x="842.1731818181818" y="0.0" type="line"/>
      <point x="1017.9271212121212" y="0.0" type="line"/>
      <point x="1017.9271212121212" y="1616.0" type="line"/>
      <point x="810.3184848484848" y="1616.0" type="line"/>
      <point x="810.3184848484848" y="1092.4692424242423" type="line"/>
      <point x="762.8324242424243" y="1099.3407575757576"/>
      <point x="704.6480303030303" y="1104.9943939393938"/>
      <point x="648.5083333333333" y="1104.9943939393938" type="curve" smooth="yes"/>
      <point x="281.1787878787879" y="1104.9943939393938"/>
      <point x="86.49166666666666" y="909.9162121212121"/>
      <point x="86.49166666666666" y="521.5195454545454" type="curve" smooth="yes"/>
      <point x="86.49166666666666" y="131.21227272727273"/>
      <point x="281.1787878787879" y="-18.78212121212121"/>
    </contour>
    <contour>
      <point x="573.709393939394" y="155.54166666666669" type="curve" smooth="yes"/>
      <point x="410.42439393939395" y="155.54166666666669"/>
      <point x="296.9271212121213" y="242.25121212121212"/>
      <point x="296.9271212121213" y="538.905" type="curve" smooth="yes"/>
      <point x="296.9271212121213" y="825.2962121212121"/>
      <point x="415.07803030303035" y="940.8381818181817"/>
      <point x="647.0725757575758" y="940.8381818181817" type="curve" smooth="yes"/>
      <point x="703.0390909090909" y="940.8381818181817"/>
      <point x="766.050303030303" y="933.7934848484848"/>
      <point x="810.3184848484848" y="923.7040909090908" type="curve"/>
      <point x="810.3184848484848" y="271.74848484848485" type="line"/>
      <point x="751.9609090909091" y="190.89924242424246"/>
      <point x="661.3351515151516" y="155.54166666666669"/>
    </contour>
  </outline>
</glyph>
<glyph name="e" format="2">
  <advance width="1053.608787878788"/>
  <unicode hex="0065"/>
  <anchor x="543.1954545454546" y="0.0" name="bottom"/>
  <anchor x="859.2734848484848" y="0.0" name="ogonek"/>
  <anchor x="543.1954545454546" y="1200.0" name="top"/>
  <outline>
    <contour>
      <point x="626.7484848484848" y="-19.564242424242426" type="curve" smooth="yes"/>
      <point x="722.3518181818182" y="-19.564242424242426"/>
      <point x="816.9551515151516" y="-7.519545454545455"/>
      <point x="925.5137878787879" y="21.96090909090909" type="curve"/>
      <point x="925.5137878787879" y="184.98863636363637" type="line"/>
      <point x="826.8154545454546" y="158.24560606060606"/>
      <point x="736.1674242424242" y="143.8098484848485"/>
      <point x="653.4300000000001" y="143.8098484848485" type="curve" smooth="yes"/>
      <point x="401.21212121212125" y="143.8098484848485"/>
      <point x="295.3628787878788" y="240.569696969697"/>
      <point x="295.3628787878788" y="511.145303030303" type="curve" smooth="yes"/>
      <point x="295.3628787878788" y="588.715" type="line" smooth="yes"/>
      <point x="295.3628787878788" y="867.0671212121212"/>
      <point x="388.77636363636367" y="962.7375757575758"/>
      <point x="544.1507575757576" y="962.7375757575758" type="curve" smooth="yes"/>
      <point x="698.5251515151515" y="962.7375757575758"/>
      <point x="784.8492424242424" y="866.0671212121212"/>
      <point x="784.8492424242424" y="588.3239393939394" type="curve"/>
      <point x="825.145303030303" y="610.804393939394" type="line"/>
      <point x="202.00545454545457" y="610.804393939394" type="line"/>
      <point x="202.00545454545457" y="479.10621212121214" type="line"/>
      <point x="981.3796969696971" y="479.10621212121214" type="line"/>
      <point x="981.3796969696971" y="538.8268181818182" type="line" smooth="yes"/>
      <point x="981.3796969696971" y="921.095"/>
      <point x="825.2121212121212" y="1104.6033333333332"/>
      <point x="546.1060606060606" y="1104.6033333333332" type="curve" smooth="yes"/>
      <point x="260.00560606060606" y="1104.6033333333332"/>
      <point x="86.49166666666666" y="920.4860606060606"/>
      <point x="86.49166666666666" y="544.3016666666666" type="curve" smooth="yes"/>
      <point x="86.49166666666666" y="145.69272727272727"/>
      <point x="266.05030303030304" y="-19.564242424242426"/>
    </contour>
  </outline>
</glyph>
<glyph name="f" format="2">
  <advance width="742.474696969697"/>
  <unicode hex="0066"/>
  <outline>
    <contour>
      <point x="217.0112121212121" y="0.0" type="line"/>
      <point x="423.4466666666667" y="0.0" type="line"/>
      <point x="423.4466666666667" y="1235.385606060606" type="line" smooth="yes"/>
      <point x="423.4466666666667" y="1399.4080303030303"/>
      <point x="500.3237878787879" y="1465.9778787878788"/>
      <point x="665.5919696969697" y="1465.9778787878788" type="curve" smooth="yes"/>
      <point x="707.9439393939394" y="1465.9778787878788"/>
      <point x="747.9048484848486" y="1462.1510606060606"/>
      <point x="791.2121212121212" y="1455.1063636363635" type="curve"/>
      <point x="791.2121212121212" y="1624.0" type="line"/>
      <point x="742.3015151515151" y="1632.0"/>
      <point x="691.0836363636364" y="1636.0"/>
      <point x="640.2624242424242" y="1636.0" type="curve" smooth="yes"/>
      <point x="362.86030303030304" y="1636.0"/>
      <point x="217.0112121212121" y="1490.7598484848486"/>
      <point x="217.0112121212121" y="1225.7375757575758" type="curve" smooth="yes"/>
    </contour>
    <contour>
      <point x="20.474848484848486" y="919.7990909090909" type="line"/>
      <point x="748.3015151515151" y="919.7990909090909" type="line"/>
      <point x="748.3015151515151" y="1087.821212121212" type="line"/>
      <point x="20.474848484848486" y="1087.821212121212" type="line"/>
    </contour>
  </outline>
</glyph>
<glyph name="g" format="2">
  <advance width="1159.379696969697"/>
  <unicode hex="0067"/>
  <anchor x="590.1507575757576" y="-440.0" name="bottom"/>
  <anchor x="601.1004545454546" y="1200.0" name="top"/>
  <outline>
    <contour>
      <point x="491.4189393939394" y="-460.0" type="curve" smooth="yes"/>
      <point x="843.1171212121212" y="-460.0"/>
      <point x="1017.9271212121212" y="-311.31848484848484"/>
      <point x="1017.9271212121212" y="54.39651515151516" type="curve" smooth="yes"/>
      <point x="1017.9271212121212" y="1052.044696969697" type="line"/>
      <point x="913.9830303030303" y="1085.4748484848485"/>
      <point x="778.525" y="1104.6033333333332"/>
      <point x="657.6703030303031" y="1104.6033333333332" type="curve" smooth="yes"/>
      <point x="280.00560606060606" y="1104.2122727272726"/>
      <point x="86.49166666666666" y="907.9609090909091"/>
      <point x="86.49166666666666" y="521.910606060606" type="curve" smooth="yes"/>
      <point x="86.49166666666666" y="138.29045454545457"/>
      <point x="279.4860606060606" y="-11.743030303030302"/>
      <point x="504.09499999999997" y="-11.743030303030302" type="curve" smooth="yes"/>
      <point x="633.055909090909" y="-11.743030303030302"/>
      <point x="734.19" y="39.391060606060606"/>
      <point x="799.234696969697" y="115.34636363636363" type="curve"/>
      <point x="810.3184848484848" y="115.34636363636363" type="line"/>
      <point x="810.3184848484848" y="19.6759090909091" type="line" smooth="yes"/>
      <point x="810.3184848484848" y="-209.96666666666664"/>
      <point x="705.9609090909091" y="-294.2795454545454"/>
      <point x="477.94969696969696" y="-294.2795454545454" type="curve" smooth="yes"/>
      <point x="381.2569696969697" y="-294.2795454545454"/>
      <point x="273.3519696969697" y="-278.670606060606"/>
      <point x="157.74863636363636" y="-243.62590909090906" type="curve"/>
      <point x="157.74863636363636" y="-412.51954545454544" type="line"/>
      <point x="262.12848484848485" y="-444.73742424242425"/>
      <point x="386.94969696969696" y="-460.0"/>
    </contour>
    <contour>
      <point x="573.4021212121212" y="161.79863636363638" type="curve" smooth="yes"/>
      <point x="412.2959090909091" y="161.79863636363638"/>
      <point x="296.9271212121213" y="245.68136363636367"/>
      <point x="296.9271212121213" y="540.4692424242425" type="curve" smooth="yes"/>
      <point x="296.9271212121213" y="825.2962121212121"/>
      <point x="417.42439393939395" y="940.8381818181817"/>
      <point x="640.3742424242424" y="940.8381818181817" type="curve" smooth="yes"/>
      <point x="704.2122727272728" y="940.8381818181817"/>
      <point x="766.050303030303" y="931.9666666666667"/>
      <point x="810.3184848484848" y="920.8772727272727" type="curve"/>
      <point x="810.3184848484848" y="269.61439393939395" type="line"/>
      <point x="751.5698484848485" y="195.98303030303032"/>
      <point x="660.6815151515152" y="161.79863636363638"/>
    </contour>
  </outline>
</glyph>
<glyph name="h" format="2">
  <advance width="1162.474696969697"/>
  <unicode hex="0068"/>
  <anchor x="587.3686363636364" y="0.0" name="bottom"/>
  <anchor x="587.3686363636364" y="543.910606060606" name="center"/>
  <anchor x="141.45257575757574" y="1353.6536363636365" name="stroke"/>
  <anchor x="587.3686363636364" y="1616.0" name="top"/>
  <outline>
    <contour>
      <point x="141.45257575757574" y="0.0" type="line"/>
      <point x="349.0612121212122" y="0.0" type="line"/>
      <point x="349.0612121212122" y="793.7319696969697" type="line"/>
      <point x="418.42439393939395" y="884.4080303030303"/>
      <point x="526.8378787878788" y="921.2404545454546"/>
      <point x="619.0278787878788" y="921.2404545454546" type="curve" smooth="yes"/>
      <point x="743.2681818181818" y="921.2404545454546"/>
      <point x="824.285" y="866.2739393939394"/>
      <point x="824.285" y="695.8101515151515" type="curve" smooth="yes"/>
      <point x="824.285" y="0.0" type="line"/>
      <point x="1031.8936363636365" y="0.0" type="line"/>
      <point x="1031.8936363636365" y="707.324090909091" type="line" smooth="yes"/>
      <point x="1031.8936363636365" y="998.1340909090909"/>
      <point x="883.335" y="1104.6033333333332"/>
      <point x="684.9886363636364" y="1104.6033333333332" type="curve" smooth="yes"/>
      <point x="556.290303030303" y="1104.6033333333332"/>
      <point x="443.8042424242425" y="1058.7765151515152"/>
      <point x="360.145" y="970.2066666666667" type="curve"/>
      <point x="349.0612121212122" y="970.2066666666667" type="line"/>
      <point x="349.0612121212122" y="1616.0" type="line"/>
      <point x="141.45257575757574" y="1616.0" type="line"/>
    </contour>
  </outline>
</glyph>
<glyph name="l" format="2">
  <advance width="490.51378787878787"/>
  <unicode hex="006C"/>
  <anchor x="245.06136363636364" y="0.0" name="bottom"/>
  <anchor x="457.329393939394" y="1616.0" name="caronalt"/>
  <anchor x="555.3795454545455" y="794.0" name="periodcentered"/>
  <anchor x="245.45242424242426" y="714.0" name="slash"/>
  <anchor x="245.45242424242426" y="1616.0" name="top"/>
  <outline>
    <contour>
      <point x="141.45257575757574" y="0.0" type="line"/>
      <point x="349.0612121212122" y="0.0" type="line"/>
      <point x="349.0612121212122" y="1616.0" type="line"/>
      <point x="141.45257575757574" y="1616.0" type="line"/>
    </contour>
  </outline>
</glyph>
<glyph name="m" format="2">
  <advance width="1727.8098484848485"/>
  <unicode hex="006D"/>
  <anchor x="873.3183333333334" y="0.0" name="bottom"/>
  <anchor x="873.3183333333334" y="1200.0" name="top"/>
  <outline>
    <contour>
      <point x="141.45257575757574" y="0.0" type="line"/>
      <point x="349.0612121212122" y="0.0" type="line"/>
      <point x="349.0612121212122" y="790.6872727272727" type="line"/>
      <point x="410.9886363636364" y="884.4080303030303"/>
      <point x="507.5306060606061" y="922.4583333333333"/>
      <point x="589.804393939394" y="922.4583333333333" type="curve" smooth="yes"/>
      <point x="698.5195454545454" y="922.4583333333333"/>
      <point x="770.8827272727273" y="866.665"/>
      <point x="770.8827272727273" y="696.5475757575757" type="curve" smooth="yes"/>
      <point x="770.8827272727273" y="0.0" type="line"/>
      <point x="974.9718181818182" y="0.0" type="line"/>
      <point x="974.9718181818182" y="712.4078787878788" type="line" smooth="yes"/>
      <point x="974.9718181818182" y="998.9162121212121"/>
      <point x="837.8489393939394" y="1104.6033333333332"/>
      <point x="652.7260606060606" y="1104.6033333333332" type="curve" smooth="yes"/>
      <point x="530.4243939393939" y="1104.6033333333332"/>
      <point x="421.89924242424246" y="1058.5586363636364"/>
      <point x="340.9830303030303" y="967.9887878787879" type="curve"/>
      <point x="329.0724242424243" y="967.9887878787879" type="line"/>
      <point x="314.46909090909094" y="1087.821212121212" type="line"/>
      <point x="141.45257575757574" y="1087.821212121212" type="line"/>
    </contour>
    <contour>
      <point x="1390.011212121212" y="0.0" type="line"/>
      <point x="1597.228787878788" y="0.0" type="line"/>
      <point x="1597.228787878788" y="706.5419696969697" type="line" smooth="yes"/>
      <point x="1597.228787878788" y="998.1340909090909"/>
      <point x="1454.323787878788" y="1104.6033333333332"/>
      <point x="1259.5528787878789" y="1104.6033333333332" type="curve" smooth="yes"/>
      <point x="1139.2512121212121" y="1104.6033333333332"/>
      <point x="1005.5081818181818" y="1056.821212121212"/>
      <point x="902.7651515151515" y="924.854696969697" type="curve"/>
      <point x="949.8824242424243" y="772.4190909090909" type="line"/>
      <point x="1013.2009090909091" y="884.4080303030303"/>
      <point x="1118.9216666666666" y="922.4583333333333"/>
      <point x="1203.5418181818181" y="922.4583333333333" type="curve" smooth="yes"/>
      <point x="1312.4748484848485" y="922.4583333333333"/>
      <point x="1390.011212121212" y="866.665"/>
      <point x="1390.011212121212" y="696.5475757575757" type="curve" smooth="yes"/>
    </contour>
  </outline>
</glyph>
<glyph name="n" format="2">
  <advance width="1162.474696969697"/>
  <unicode hex="006E"/>
  <anchor x="12.217878787878789" y="1200.0" name="apostrophe"/>
  <anchor x="587.3686363636364" y="0.0" name="bottom"/>
  <anchor x="587.3686363636364" y="1200.0" name="top"/>
  <outline>
    <contour>
      <point x="141.45257575757574" y="0.0" type="line"/>
      <point x="349.0612121212122" y="0.0" type="line"/>
      <point x="349.0612121212122" y="794.3409090909091" type="line"/>
      <point x="419.6422727272727" y="886.8437878787879"/>
      <point x="529.709393939394" y="922.4583333333333"/>
      <point x="619.0278787878788" y="922.4583333333333" type="curve" smooth="yes"/>
      <point x="745.095" y="922.4583333333333"/>
      <point x="824.285" y="865.4471212121211"/>
      <point x="824.285" y="695.7654545454545" type="curve" smooth="yes"/>
      <point x="824.285" y="0.0" type="line"/>
      <point x="1031.8936363636365" y="0.0" type="line"/>
      <point x="1031.8936363636365" y="706.7151515151515" type="line" smooth="yes"/>
      <point x="1031.8936363636365" y="997.1340909090909"/>
      <point x="883.335" y="1104.6033333333332"/>
      <point x="675.7763636363636" y="1104.6033333333332" type="curve" smooth="yes"/>
      <point x="544.9048484848485" y="1104.6033333333332"/>
      <point x="426.94393939393944" y="1056.1228787878788"/>
      <point x="340.9830303030303" y="968.5977272727273" type="curve"/>
      <point x="329.0724242424243" y="968.5977272727273" type="line"/>
      <point x="314.46909090909094" y="1087.821212121212" type="line"/>
      <point x="141.45257575757574" y="1087.821212121212" type="line"/>
    </contour>
  </outline>
</glyph>
<glyph name="o" format="2">
  <advance width="1139.3406060606062"/>
  <unicode hex="006F"/>
  <anchor x="569.6703030303031" y="0.0" name="bottom"/>
  <anchor x="569.6703030303031" y="543.910606060606" name="center"/>
  <anchor x="725.9607575757576" y="0.0" name="ogonek"/>
  <anchor x="569.6703030303031" y="1200.0" name="top"/>
  <anchor x="646.7877272727272" y="1087.821212121212" name="topright"/>
  <outline>
    <contour>
      <point x="569.6703030303031" y="-19.564242424242426" type="curve" smooth="yes"/>
      <point x="863.5137878787879" y="-19.564242424242426"/>
      <point x="1052.8489393939394" y="155.905"/>
      <point x="1052.8489393939394" y="543.1284848484848" type="curve" smooth="yes"/>
      <point x="1052.8489393939394" y="931.2234848484849"/>
      <point x="867.8154545454546" y="1104.6033333333332"/>
      <point x="569.6703030303031" y="1104.6033333333332" type="curve" smooth="yes"/>
      <point x="271.5251515151515" y="1104.6033333333332"/>
      <point x="86.49166666666666" y="930.7430303030303"/>
      <point x="86.49166666666666" y="542.3463636363637" type="curve" smooth="yes"/>
      <point x="86.49166666666666" y="153.46924242424242"/>
      <point x="275.82681818181817" y="-19.564242424242426"/>
    </contour>
    <contour>
      <point x="569.6703030303031" y="144.20090909090914" type="curve" smooth="yes"/>
      <point x="400.68696969696975" y="144.20090909090914"/>
      <point x="296.9271212121213" y="241.2177272727273"/>
      <point x="296.9271212121213" y="544.9553030303031" type="curve" smooth="yes"/>
      <point x="296.9271212121213" y="845.0392424242424"/>
      <point x="401.46909090909094" y="940.8381818181817"/>
      <point x="569.6703030303031" y="940.8381818181817" type="curve" smooth="yes"/>
      <point x="737.8715151515152" y="940.8381818181817"/>
      <point x="842.4134848484848" y="845.0392424242424"/>
      <point x="842.4134848484848" y="540.5195454545454" type="curve" smooth="yes"/>
      <point x="842.4134848484848" y="241.2177272727273"/>
      <point x="738.6536363636363" y="144.20090909090914"/>
    </contour>
  </outline>
</glyph>
<glyph name="p" format="2">
  <advance width="1159.379696969697"/>
  <unicode hex="0070"/>
  <outline>
    <contour>
      <point x="141.45257575757574" y="-440.0" type="line"/>
      <point x="349.0612121212122" y="-440.0" type="line"/>
      <point x="349.0612121212122" y="-7.256969696969699" type="line"/>
      <point x="396.54727272727274" y="-13.519545454545456"/>
      <point x="454.7316666666667" y="-19.173181818181817"/>
      <point x="510.87136363636364" y="-19.173181818181817" type="curve" smooth="yes"/>
      <point x="878.8098484848485" y="-19.173181818181817"/>
      <point x="1072.8880303030303" y="175.905"/>
      <point x="1072.8880303030303" y="564.3016666666666" type="curve" smooth="yes"/>
      <point x="1072.8880303030303" y="958.8715151515152"/>
      <point x="875.7651515151515" y="1104.6033333333332"/>
      <point x="639.1171212121212" y="1104.6033333333332" type="curve" smooth="yes"/>
      <point x="509.5081818181818" y="1104.6033333333332"/>
      <point x="406.5919696969697" y="1049.5586363636364"/>
      <point x="342.54727272727274" y="969.1675757575757" type="curve"/>
      <point x="331.24560606060606" y="969.1675757575757" type="line"/>
      <point x="317.2065151515152" y="1087.821212121212" type="line"/>
      <point x="141.45257575757574" y="1087.821212121212" type="line"/>
    </contour>
    <contour>
      <point x="512.3071212121213" y="144.98303030303032" type="curve" smooth="yes"/>
      <point x="456.3406060606061" y="144.98303030303032"/>
      <point x="393.329393939394" y="152.0277272727273"/>
      <point x="349.0612121212122" y="162.11712121212125" type="curve"/>
      <point x="349.0612121212122" y="814.0727272727272" type="line"/>
      <point x="407.4187878787879" y="894.9219696969697"/>
      <point x="498.04454545454547" y="930.2795454545454"/>
      <point x="585.670303030303" y="930.2795454545454" type="curve" smooth="yes"/>
      <point x="745.910606060606" y="930.2795454545454"/>
      <point x="862.4525757575757" y="846.0057575757576"/>
      <point x="862.4525757575757" y="546.9162121212121" type="curve" smooth="yes"/>
      <point x="862.4525757575757" y="260.52500000000003"/>
      <point x="744.3016666666667" y="144.98303030303032"/>
    </contour>
  </outline>
</glyph>
<glyph name="q" format="2">
  <advance width="1159.379696969697"/>
  <unicode hex="0071"/>
  <outline>
    <contour>
      <point x="810.3184848484848" y="-440.0" type="line"/>
      <point x="1017.9271212121212" y="-440.0" type="line"/>
      <point x="1017.9271212121212" y="1052.044696969697" type="line"/>
      <point x="913.9830303030303" y="1085.4748484848485"/>
      <point x="778.525" y="1104.6033333333332"/>
      <point x="657.2792424242424" y="1104.6033333333332" type="curve" smooth="yes"/>
      <point x="280.00560606060606" y="1104.6033333333332"/>
      <point x="86.49166666666666" y="911.089393939394"/>
      <point x="86.49166666666666" y="520.3463636363637" type="curve" smooth="yes"/>
      <point x="86.49166666666666" y="130.46924242424242"/>
      <point x="276.74863636363636" y="-19.173181818181817"/>
      <point x="504.09499999999997" y="-19.173181818181817" type="curve" smooth="yes"/>
      <point x="633.055909090909" y="-19.173181818181817"/>
      <point x="734.19" y="31.96090909090909"/>
      <point x="799.234696969697" y="107.91621212121211" type="curve"/>
      <point x="810.3184848484848" y="107.91621212121211" type="line"/>
    </contour>
    <contour>
      <point x="573.4021212121212" y="155.54166666666669" type="curve" smooth="yes"/>
      <point x="413.07803030303035" y="155.54166666666669"/>
      <point x="296.9271212121213" y="239.81545454545457"/>
      <point x="296.9271212121213" y="538.1228787878788" type="curve" smooth="yes"/>
      <point x="296.9271212121213" y="825.2962121212121"/>
      <point x="417.42439393939395" y="940.8381818181817"/>
      <point x="639.9831818181818" y="940.8381818181817" type="curve" smooth="yes"/>
      <point x="704.2122727272728" y="940.8381818181817"/>
      <point x="766.050303030303" y="931.9666666666667"/>
      <point x="810.3184848484848" y="920.8772727272727" type="curve"/>
      <point x="810.3184848484848" y="263.35742424242426" type="line"/>
      <point x="751.5698484848485" y="189.72606060606063"/>
      <point x="660.6815151515152" y="155.54166666666669"/>
    </contour>
  </outline>
</glyph>
<glyph name="r" format="2">
  <advance width="749.2568181818182"/>
  <unicode hex="0072"/>
  <anchor x="245.45242424242426" y="0.0" name="bottom"/>
  <anchor x="431.7206060606061" y="1200.0" name="top"/>
  <outline>
    <contour>
      <point x="141.45257575757574" y="0.0" type="line"/>
      <point x="349.0612121212122" y="0.0" type="line"/>
      <point x="349.0612121212122" y="769.519696969697" type="line"/>
      <point x="415.20090909090914" y="862.6259090909091"/>
      <point x="536.474696969697" y="908.5030303030303"/>
      <point x="639.1339393939394" y="908.5030303030303" type="curve" smooth="yes"/>
      <point x="672.9160606060607" y="908.5030303030303"/>
      <point x="705.5193939393939" y="907.1119696969697"/>
      <point x="737.0389393939395" y="901.5477272727272" type="curve"/>
      <point x="737.0389393939395" y="1092.3407575757576" type="line"/>
      <point x="711.2121212121212" y="1096.949696969697"/>
      <point x="682.9104545454546" y="1099.7318181818182"/>
      <point x="650.3015151515151" y="1099.7318181818182" type="curve" smooth="yes"/>
      <point x="528.3015151515151" y="1099.7318181818182"/>
      <point x="411.8154545454546" y="1048.033484848485"/>
      <point x="341.76515151515156" y="943.949696969697" type="curve"/>
      <point x="329.8545454545455" y="943.949696969697" type="line"/>
      <point x="313.2959090909091" y="1087.821212121212" type="line"/>
      <point x="141.45257575757574" y="1087.821212121212" type="line"/>
    </contour>
  </outline>
</glyph>
<glyph name="s" format="2">
  <advance width="924.0445454545454"/>
  <unicode hex="0073"/>
  <anchor x="467.2401515151515" y="0.0" name="bottom"/>
  <anchor x="467.2401515151515" y="1200.0" name="top"/>
  <outline>
    <contour>
      <point x="418.98318181818183" y="-19.564242424242426" type="curve" smooth="yes"/>
      <point x="705.8769696969697" y="-19.564242424242426"/>
      <point x="861.2512121212121" y="105.38545454545455"/>
      <point x="861.2512121212121" y="308.54742424242426" type="curve" smooth="yes"/>
      <point x="861.2512121212121" y="479.5753030303031"/>
      <point x="774.0445454545454" y="568.8378787878788"/>
      <point x="575.7372727272727" y="609.7540909090909" type="curve" smooth="yes"/>
      <point x="419.7540909090909" y="640.1004545454546" type="line" smooth="yes"/>
      <point x="313.5975757575758" y="662.9328787878788"/>
      <point x="277.06681818181823" y="710.6871212121213"/>
      <point x="277.06681818181823" y="785.2737878787879" type="curve" smooth="yes"/>
      <point x="277.06681818181823" y="874.3409090909091"/>
      <point x="341.99424242424243" y="945.9219696969697"/>
      <point x="541.3127272727273" y="945.9219696969697" type="curve" smooth="yes"/>
      <point x="632.8713636363636" y="945.9219696969697"/>
      <point x="716.2512121212121" y="935.1845454545454"/>
      <point x="802.9048484848486" y="911.575606060606" type="curve"/>
      <point x="802.9048484848486" y="1071.865909090909" type="line"/>
      <point x="724.1674242424242" y="1092.6480303030303"/>
      <point x="632.9607575757576" y="1104.6033333333332"/>
      <point x="536.2289393939394" y="1104.6033333333332" type="curve" smooth="yes"/>
      <point x="226.7821212121212" y="1104.6033333333332"/>
      <point x="80.53636363636363" y="970.7821212121212"/>
      <point x="80.53636363636363" y="779.9274242424242" type="curve" smooth="yes"/>
      <point x="80.53636363636363" y="619.1118181818182"/>
      <point x="161.3128787878788" y="520.0280303030303"/>
      <point x="361.96090909090907" y="478.93863636363636" type="curve" smooth="yes"/>
      <point x="517.944090909091" y="448.5922727272727" type="line" smooth="yes"/>
      <point x="624.1006060606061" y="425.7598484848485"/>
      <point x="664.7207575757576" y="384.9218181818182"/>
      <point x="664.7207575757576" y="299.4189393939394" type="curve" smooth="yes"/>
      <point x="664.7207575757576" y="198.04454545454547"/>
      <point x="592.7486363636364" y="139.11712121212122"/>
      <point x="417.68151515151516" y="139.11712121212122" type="curve" smooth="yes"/>
      <point x="311.4748484848485" y="139.11712121212122"/>
      <point x="209.57545454545453" y="153.63666666666668"/>
      <point x="103.57545454545453" y="185.63666666666668" type="curve"/>
      <point x="103.57545454545453" y="25.346363636363638" type="line"/>
      <point x="199.3519696969697" y="-5.0"/>
      <point x="305.1228787878788" y="-19.564242424242426"/>
    </contour>
  </outline>
</glyph>
<glyph name="t" format="2">
  <advance width="776.9048484848486"/>
  <unicode hex="0074"/>
  <anchor x="482.2457575757576" y="0.0" name="bottom"/>
  <anchor x="579.2959090909092" y="1616.0" name="caronalt"/>
  <anchor x="209.0112121212121" y="619.7207575757576" name="stroke"/>
  <anchor x="313.0110606060606" y="1495.6424242424243" name="top"/>
  <anchor x="717.659090909091" y="1616.0" name="topright"/>
  <outline>
    <contour>
      <point x="577.5865151515152" y="-19.173181818181817" type="curve" smooth="yes"/>
      <point x="637.5362121212121" y="-19.173181818181817"/>
      <point x="699.7428787878788" y="-11.435757575757576"/>
      <point x="754.8713636363636" y="1.3463636363636367" type="curve"/>
      <point x="754.8713636363636" y="171.80424242424246" type="line"/>
      <point x="704.9551515151516" y="161.54166666666669"/>
      <point x="666.6478787878788" y="156.32378787878793"/>
      <point x="627.7316666666667" y="156.32378787878793" type="curve" smooth="yes"/>
      <point x="485.06681818181823" y="156.32378787878793"/>
      <point x="416.6198484848485" y="215.63666666666668"/>
      <point x="416.6198484848485" y="388.08924242424246" type="curve" smooth="yes"/>
      <point x="416.6198484848485" y="1480.0" type="line"/>
      <point x="244.77651515151516" y="1480.0" type="line"/>
      <point x="209.0112121212121" y="1087.821212121212" type="line"/>
      <point x="209.0112121212121" y="354.9719696969697" type="line" smooth="yes"/>
      <point x="209.0112121212121" y="93.86030303030303"/>
      <point x="343.044696969697" y="-19.173181818181817"/>
    </contour>
    <contour>
      <point x="12.474848484848486" y="919.7990909090909" type="line"/>
      <point x="741.474696969697" y="919.7990909090909" type="line"/>
      <point x="741.474696969697" y="1087.821212121212" type="line"/>
      <point x="12.474848484848486" y="1087.821212121212" type="line"/>
    </contour>
  </outline>
</glyph>
<glyph name="u" format="2">
  <advance width="1152.8657575757575"/>
  <unicode hex="0075"/>
  <anchor x="571.4971212121212" y="0.0" name="bottom"/>
  <anchor x="1011.4131818181818" y="0.0" name="ogonek"/>
  <anchor x="571.4971212121212" y="1200.0" name="top"/>
  <anchor x="822.1843939393939" y="1087.821212121212" name="topright"/>
  <outline>
    <contour>
      <point x="486.3910606060606" y="-18.391060606060606" type="curve" smooth="yes"/>
      <point x="609.3072727272727" y="-18.391060606060606"/>
      <point x="724.5307575757575" y="27.044696969696968"/>
      <point x="812.6648484848484" y="116.17878787878787" type="curve"/>
      <point x="823.7933333333333" y="116.17878787878787" type="line"/>
      <point x="838.3966666666666" y="0.0" type="line"/>
      <point x="1011.4131818181818" y="0.0" type="line"/>
      <point x="1011.4131818181818" y="1087.821212121212" type="line"/>
      <point x="803.8045454545454" y="1087.821212121212" type="line"/>
      <point x="803.8045454545454" y="291.87136363636364" type="line"/>
      <point x="735.050303030303" y="201.80424242424246"/>
      <point x="626.6368181818182" y="163.75393939393945"/>
      <point x="538.4468181818182" y="163.75393939393945" type="curve" smooth="yes"/>
      <point x="419.2065151515152" y="163.75393939393945"/>
      <point x="338.189696969697" y="219.93833333333336"/>
      <point x="338.189696969697" y="389.62" type="curve" smooth="yes"/>
      <point x="338.189696969697" y="1087.821212121212" type="line"/>
      <point x="130.5810606060606" y="1087.821212121212" type="line"/>
      <point x="130.5810606060606" y="378.1060606060606" type="line" smooth="yes"/>
      <point x="130.5810606060606" y="88.07818181818182"/>
      <point x="279.9218181818182" y="-18.391060606060606"/>
    </contour>
  </outline>
</glyph>
<glyph name="v" format="2">
  <advance width="1090.0277272727274"/>
  <unicode hex="0076"/>
  <anchor x="545.9272727272728" y="0.0" name="bottom"/>
  <anchor x="545.9272727272728" y="1200.0" name="top"/>
  <outline>
    <contour>
      <point x="413.0671212121212" y="0.0" type="line"/>
      <point x="676.5695454545455" y="0.0" type="line"/>
      <point x="1079.4969696969697" y="1087.821212121212" type="line"/>
      <point x="872.3631818181818" y="1087.821212121212" type="line"/>
      <point x="540.4468181818182" y="156.44666666666672" type="line"/>
      <point x="561.5753030303031" y="156.44666666666672" type="line"/>
      <point x="229.65893939393942" y="1087.821212121212" type="line"/>
      <point x="10.530757575757573" y="1087.821212121212" type="line"/>
    </contour>
  </outline>
</glyph>
<glyph name="w" format="2">
  <advance width="1728.0221212121212"/>
  <unicode hex="0077"/>
  <anchor x="865.0110606060606" y="0.0" name="bottom"/>
  <anchor x="865.62" y="1200.0" name="top"/>
  <outline>
    <contour>
      <point x="365.80454545454546" y="0.0" type="line"/>
      <point x="603.7148484848485" y="0.0" type="line"/>
      <point x="874.9663636363637" y="917.4639393939394" type="line"/>
      <point x="857.1842424242425" y="917.4639393939394" type="line"/>
      <point x="1125.6983333333333" y="0.0" type="line"/>
      <point x="1363.6086363636364" y="0.0" type="line"/>
      <point x="1672.8824242424243" y="1087.821212121212" type="line"/>
      <point x="1480.2625757575756" y="1087.821212121212" type="line"/>
      <point x="1228.659090909091" y="190.5583333333334" type="line"/>
      <point x="1247.7875757575757" y="190.5583333333334" type="line"/>
      <point x="987.4857575757576" y="1087.821212121212" type="line"/>
      <point x="749.5754545454545" y="1087.821212121212" type="line"/>
      <point x="487.92727272727274" y="190.5583333333334" type="line"/>
      <point x="503.53621212121215" y="190.5583333333334" type="line"/>
      <point x="255.62545454545457" y="1087.821212121212" type="line"/>
      <point x="55.13969696969696" y="1087.821212121212" type="line"/>
    </contour>
  </outline>
</glyph>
<glyph name="x" format="2">
  <advance width="1043.8489393939394"/>
  <unicode hex="0078"/>
  <anchor x="522.8378787878788" y="0.0" name="bottom"/>
  <anchor x="523.2289393939394" y="1200.0" name="top"/>
  <outline>
    <contour>
      <point x="803.9721212121212" y="0.0" type="line"/>
      <point x="1037.4019696969697" y="0.0" type="line"/>
      <point x="644.3963636363637" y="551.0837878787879" type="line"/>
      <point x="524.7931818181818" y="698.3740909090909" type="line"/>
      <point x="249.094696969697" y="1087.821212121212" type="line"/>
      <point x="15.664848484848479" y="1087.821212121212" type="line"/>
      <point x="398.8883333333333" y="547.910606060606" type="line"/>
      <point x="520.4468181818181" y="402.0113636363636" type="line"/>
    </contour>
    <contour>
      <point x="8.66484848484848" y="0.0" type="line"/>
      <point x="236.40196969696973" y="0.0" type="line"/>
      <point x="520.4468181818181" y="402.0113636363636" type="line"/>
      <point x="644.3963636363637" y="551.0837878787879" type="line"/>
      <point x="1026.4466666666667" y="1087.821212121212" type="line"/>
      <point x="799.9274242424242" y="1087.821212121212" type="line"/>
      <point x="524.7931818181818" y="698.3740909090909" type="line"/>
      <point x="398.8883333333333" y="547.910606060606" type="line"/>
    </contour>
  </outline>
</glyph>
<glyph name="y" format="2">
  <advance width="1090.0277272727274"/>
  <unicode hex="0079"/>
  <anchor x="862.6086363636364" y="0.0" name="bottom"/>
  <anchor x="545.9272727272728" y="1200.0" name="top"/>
  <outline>
    <contour>
      <point x="307.60333333333335" y="-440.0" type="line"/>
      <point x="513.3460606060606" y="-440.0" type="line"/>
      <point x="1079.4969696969697" y="1087.821212121212" type="line"/>
      <point x="872.3631818181818" y="1087.821212121212" type="line"/>
      <point x="540.4468181818182" y="156.44666666666672" type="line"/>
      <point x="471.82681818181817" y="0.0" type="line"/>
    </contour>
    <contour>
      <point x="413.0671212121212" y="0.0" type="line"/>
      <point x="608.9886363636364" y="0.0" type="line"/>
      <point x="229.65893939393942" y="1087.821212121212" type="line"/>
      <point x="10.530757575757573" y="1087.821212121212" type="line"/>
    </contour>
  </outline>
</glyph>
<glyph name="z" format="2">
  <advance width="947.1227272727273"/>
  <unicode hex="007A"/>
  <anchor x="479.1898484848485" y="0.0" name="bottom"/>
  <anchor x="479.1898484848485" y="1200.0" name="top"/>
  <outline>
    <contour>
      <point x="63.346363636363634" y="0.0" type="line"/>
      <point x="894.0333333333333" y="0.0" type="line"/>
      <point x="894.0333333333333" y="168.02212121212125" type="line"/>
      <point x="291.29575757575765" y="168.02212121212125" type="line"/>
      <point x="291.29575757575765" y="124.64227272727275" type="line"/>
      <point x="882.8154545454546" y="957.8772727272727" type="line"/>
      <point x="882.8154545454546" y="1087.821212121212" type="line"/>
      <point x="74.56424242424242" y="1087.821212121212" type="line"/>
      <point x="74.56424242424242" y="919.7990909090909" type="line"/>
      <point x="654.8660606060606" y="919.7990909090909" type="line"/>
      <point x="654.8660606060606" y="963.1789393939393" type="line"/>
      <point x="63.346363636363634" y="129.94393939393942" type="line"/>
    </contour>
  </outline>
</glyph>
<glyph name="braceleft" format="2">
  <advance width="716.0557575757575"/>
  <unicode hex="007B"/>
  <outline>
    <contour>
      <point x="600.4692424242425" y="-460.0" type="curve" smooth="yes"/>
      <point x="657.3742424242424" y="-460.0"/>
      <point x="710.0222727272727" y="-455.21787878787876"/>
      <point x="750.5809090909091" y="-448.4357575757576" type="curve"/>
      <point x="750.5809090909091" y="-288.41363636363633" type="line"/>
      <point x="628.5362121212121" y="-288.41363636363633" type="line" smooth="yes"/>
      <point x="493.37969696969697" y="-288.41363636363633"/>
      <point x="425.93272727272733" y="-232.57560606060605"/>
      <point x="425.93272727272733" y="-97.59227272727271" type="curve" smooth="yes"/>
      <point x="425.93272727272733" y="377.57545454545453" type="line" smooth="yes"/>
      <point x="425.93272727272733" y="537.0390909090909"/>
      <point x="355.68696969696975" y="623.1172727272727"/>
      <point x="184.16757575757578" y="638.949696969697" type="curve"/>
      <point x="184.16757575757578" y="612.8715151515152" type="line"/>
      <point x="355.68696969696975" y="628.7039393939394"/>
      <point x="425.93272727272733" y="714.7821212121212"/>
      <point x="425.93272727272733" y="874.2457575757576" type="curve" smooth="yes"/>
      <point x="425.93272727272733" y="1273.5922727272728" type="line" smooth="yes"/>
      <point x="425.93272727272733" y="1408.575606060606"/>
      <point x="493.37969696969697" y="1464.4136363636364"/>
      <point x="628.5362121212121" y="1464.4136363636364" type="curve" smooth="yes"/>
      <point x="750.5809090909091" y="1464.4136363636364" type="line"/>
      <point x="750.5809090909091" y="1624.4357575757576" type="line"/>
      <point x="710.0222727272727" y="1631.2178787878788"/>
      <point x="657.3742424242424" y="1636.0"/>
      <point x="600.4692424242425" y="1636.0" type="curve" smooth="yes"/>
      <point x="347.57545454545453" y="1636.0"/>
      <point x="218.3240909090909" y="1513.7486363636363"/>
      <point x="218.3240909090909" y="1275.5866666666666" type="curve" smooth="yes"/>
      <point x="218.3240909090909" y="865.81" type="line" smooth="yes"/>
      <point x="218.3240909090909" y="760.0110606060606"/>
      <point x="163.3631818181818" y="709.9216666666666"/>
      <point x="63.653636363636366" y="709.9216666666666" type="curve" smooth="yes"/>
      <point x="27.927424242424237" y="709.9216666666666" type="line"/>
      <point x="27.927424242424237" y="541.8995454545454" type="line"/>
      <point x="63.653636363636366" y="541.8995454545454" type="line" smooth="yes"/>
      <point x="163.3631818181818" y="541.8995454545454"/>
      <point x="218.3240909090909" y="491.8101515151515"/>
      <point x="218.3240909090909" y="386.0112121212121" type="curve" smooth="yes"/>
      <point x="218.3240909090909" y="-99.58666666666666" type="line" smooth="yes"/>
      <point x="218.3240909090909" y="-337.74863636363636"/>
      <point x="347.57545454545453" y="-460.0"/>
    </contour>
  </outline>
</glyph>
<glyph name="bar" format="2">
  <advance width="506.65909090909093"/>
  <unicode hex="007C"/>
  <outline>
    <contour>
      <point x="158.3240909090909" y="-440.0" type="line"/>
      <point x="348.33500000000004" y="-440.0" type="line"/>
      <point x="348.33500000000004" y="1616.0" type="line"/>
      <point x="158.3240909090909" y="1616.0" type="line"/>
    </contour>
  </outline>
</glyph>
<glyph name="braceright" format="2">
  <advance width="716.0557575757575"/>
  <unicode hex="007D"/>
  <outline>
    <contour>
      <point x="115.58651515151516" y="-460.0" type="curve" smooth="yes"/>
      <point x="368.48030303030305" y="-460.0"/>
      <point x="497.7316666666667" y="-337.74863636363636"/>
      <point x="497.7316666666667" y="-99.58666666666666" type="curve" smooth="yes"/>
      <point x="497.7316666666667" y="386.0112121212121" type="line" smooth="yes"/>
      <point x="497.7316666666667" y="491.8101515151515"/>
      <point x="552.6925757575758" y="541.8995454545454"/>
      <point x="652.4021212121212" y="541.8995454545454" type="curve" smooth="yes"/>
      <point x="688.1283333333333" y="541.8995454545454" type="line"/>
      <point x="688.1283333333333" y="709.9216666666666" type="line"/>
      <point x="652.4021212121212" y="709.9216666666666" type="line" smooth="yes"/>
      <point x="552.6925757575758" y="709.9216666666666"/>
      <point x="497.7316666666667" y="760.0110606060606"/>
      <point x="497.7316666666667" y="865.81" type="curve" smooth="yes"/>
      <point x="497.7316666666667" y="1275.5866666666666" type="line" smooth="yes"/>
      <point x="497.7316666666667" y="1513.7486363636363"/>
      <point x="368.48030303030305" y="1636.0"/>
      <point x="115.58651515151516" y="1636.0" type="curve" smooth="yes"/>
      <point x="58.68151515151516" y="1636.0"/>
      <point x="6.033484848484854" y="1631.2178787878788"/>
      <point x="-34.525151515151514" y="1624.4357575757576" type="curve"/>
      <point x="-34.525151515151514" y="1464.4136363636364" type="line"/>
      <point x="87.51954545454545" y="1464.4136363636364" type="line" smooth="yes"/>
      <point x="222.6760606060606" y="1464.4136363636364"/>
      <point x="290.1230303030303" y="1408.575606060606"/>
      <point x="290.1230303030303" y="1273.5922727272728" type="curve" smooth="yes"/>
      <point x="290.1230303030303" y="874.2457575757576" type="line" smooth="yes"/>
      <point x="290.1230303030303" y="714.7821212121212"/>
      <point x="361.54196969696966" y="628.7039393939394"/>
      <point x="531.8881818181818" y="612.8715151515152" type="curve"/>
      <point x="531.8881818181818" y="638.949696969697" type="line"/>
      <point x="361.54196969696966" y="623.1172727272727"/>
      <point x="290.1230303030303" y="537.0390909090909"/>
      <point x="290.1230303030303" y="377.57545454545453" type="curve" smooth="yes"/>
      <point x="290.1230303030303" y="-97.59227272727271" type="line" smooth="yes"/>
      <point x="290.1230303030303" y="-232.57560606060605"/>
      <point x="222.6760606060606" y="-288.41363636363633"/>
      <point x="87.51954545454545" y="-288.41363636363633" type="curve" smooth="yes"/>
      <point x="-34.525151515151514" y="-288.41363636363633" type="line"/>
      <point x="-34.525151515151514" y="-448.4357575757576" type="line"/>
      <point x="6.033484848484854" y="-455.21787878787876"/>
      <point x="58.68151515151516" y="-460.0"/>
    </contour>
  </outline>
</glyph>
<glyph name="asciitilde" format="2">
  <advance width="1083.1172727272728"/>
  <unicode hex="007E"/>
  <outline>
    <contour>
      <point x="726.854696969697" y="617.0727272727272" type="curve" smooth="yes"/>
      <point x="817.759696969697" y="617.0727272727272"/>
      <point x="890.1060606060606" y="648.290606060606"/>
      <point x="943.8825757575758" y="711.7654545454545" type="curve"/>
      <point x="943.8825757575758" y="887.62" type="line"/>
      <point x="878.9328787878787" y="813.2736363636363"/>
      <point x="811.4133333333333" y="778.8378787878788"/>
      <point x="727.2010606060607" y="778.8378787878788" type="curve" smooth="yes"/>
      <point x="612.2513636363636" y="778.8378787878788"/>
      <point x="500.7765151515151" y="895.62"/>
      <point x="356.26257575757575" y="895.62" type="curve" smooth="yes"/>
      <point x="265.3575757575758" y="895.62"/>
      <point x="193.0112121212121" y="864.4021212121212"/>
      <point x="139.23469696969696" y="800.9272727272728" type="curve"/>
      <point x="139.23469696969696" y="625.0727272727272" type="line"/>
      <point x="204.18439393939394" y="699.4190909090909"/>
      <point x="271.7039393939394" y="733.8548484848485"/>
      <point x="355.91621212121214" y="733.8548484848485" type="curve" smooth="yes"/>
      <point x="470.8659090909091" y="733.8548484848485"/>
      <point x="582.3407575757576" y="617.0727272727272"/>
    </contour>
  </outline>
</glyph>
<glyph name="exclamdown" format="2">
  <advance width="529.6869696969698"/>
  <unicode hex="00A1"/>
  <outline>
    <contour>
      <point x="200.95530303030304" y="677.1845454545454" type="line"/>
      <point x="154.5419696969697" y="151.285" type="line"/>
      <point x="154.5419696969697" y="-380.0" type="line"/>
      <point x="375.14500000000004" y="-380.0" type="line"/>
      <point x="375.14500000000004" y="151.285" type="line"/>
      <point x="330.68696969696975" y="677.1845454545454" type="line"/>
    </contour>
    <contour>
      <point x="264.8434848484849" y="1101.7318181818182" type="curve" smooth="yes"/>
      <point x="179.1787878787879" y="1101.7318181818182"/>
      <point x="122.285" y="1049.966515151515"/>
      <point x="122.285" y="966.6034848484849" type="curve" smooth="yes"/>
      <point x="122.285" y="883.2404545454546"/>
      <point x="177.61454545454546" y="830.2572727272727"/>
      <point x="264.8434848484849" y="830.2572727272727" type="curve" smooth="yes"/>
      <point x="352.0724242424243" y="830.2572727272727"/>
      <point x="407.40196969696973" y="884.8046969696969"/>
      <point x="407.40196969696973" y="966.6034848484849" type="curve" smooth="yes"/>
      <point x="407.40196969696973" y="1048.4022727272727"/>
      <point x="350.5081818181818" y="1101.7318181818182"/>
    </contour>
  </outline>
</glyph>
<glyph name="cent" format="2">
  <advance width="906.474696969697"/>
  <unicode hex="00A2"/>
  <outline>
    <contour>
      <point x="593.1395454545454" y="-19.564242424242426" type="curve" smooth="yes"/>
      <point x="685.1339393939394" y="-19.564242424242426"/>
      <point x="777.1730303030304" y="-4.564242424242424"/>
      <point x="860.6534848484848" y="24.307272727272725" type="curve"/>
      <point x="860.6534848484848" y="194.76515151515153" type="line"/>
      <point x="765.7819696969697" y="165.24000000000004"/>
      <point x="693.2121212121212" y="152.80424242424246"/>
      <point x="623.9942424242424" y="152.80424242424246" type="curve" smooth="yes"/>
      <point x="412.1953030303031" y="152.80424242424246"/>
      <point x="301.2287878787879" y="257.9495454545455"/>
      <point x="301.2287878787879" y="546.3463636363637" type="curve" smooth="yes"/>
      <point x="301.2287878787879" y="827.5699999999999"/>
      <point x="413.284696969697" y="932.2348484848485"/>
      <point x="654.5193939393939" y="932.2348484848485" type="curve" smooth="yes"/>
      <point x="722.1283333333333" y="932.2348484848485"/>
      <point x="788.6087878787879" y="923.7990909090909"/>
      <point x="860.6534848484848" y="907.1007575757576" type="curve"/>
      <point x="860.6534848484848" y="1077.5586363636364" type="line"/>
      <point x="787.525" y="1095.9943939393938"/>
      <point x="712.0501515151516" y="1104.6033333333332"/>
      <point x="632.1004545454546" y="1104.6033333333332" type="curve" smooth="yes"/>
      <point x="281.4301515151515" y="1104.6033333333332"/>
      <point x="86.49166666666666" y="934.4804545454546"/>
      <point x="86.49166666666666" y="542.7374242424243" type="curve" smooth="yes"/>
      <point x="86.49166666666666" y="153.1228787878788"/>
      <point x="267.3016666666667" y="-19.564242424242426"/>
    </contour>
    <contour>
      <point x="486.0559090909091" y="-240.0" type="line"/>
      <point x="665.8098484848485" y="-240.0" type="line"/>
      <point x="665.8098484848485" y="23.46363636363637" type="line"/>
      <point x="486.0559090909091" y="23.46363636363637" type="line"/>
    </contour>
    <contour>
      <point x="486.0559090909091" y="1064.3575757575757" type="line"/>
      <point x="665.8098484848485" y="1064.3575757575757" type="line"/>
      <point x="665.8098484848485" y="1327.821212121212" type="line"/>
      <point x="486.0559090909091" y="1327.821212121212" type="line"/>
    </contour>
  </outline>
</glyph>
<glyph name="sterling" format="2">
  <advance width="1289.6534848484848"/>
  <unicode hex="00A3"/>
  <outline>
    <contour>
      <point x="288.9721212121212" y="67.97757575757576" type="line"/>
      <point x="494.62545454545455" y="67.97757575757576" type="line"/>
      <point x="494.62545454545455" y="1037.8436363636363" type="line" smooth="yes"/>
      <point x="494.62545454545455" y="1243.793484848485"/>
      <point x="607.5584848484849" y="1323.676212121212"/>
      <point x="863.2177272727273" y="1323.676212121212" type="curve" smooth="yes"/>
      <point x="967.2177272727273" y="1323.676212121212"/>
      <point x="1079.9495454545454" y="1308.894090909091"/>
      <point x="1179.0836363636363" y="1279.4136363636362" type="curve"/>
      <point x="1179.0836363636363" y="1456.5195454545456" type="line"/>
      <point x="1086.519393939394" y="1483.3910606060606"/>
      <point x="968.0445454545454" y="1498.7821212121212"/>
      <point x="852.9216666666666" y="1498.7821212121212" type="curve" smooth="yes"/>
      <point x="479.30727272727273" y="1498.7821212121212"/>
      <point x="288.9721212121212" y="1342.8380303030303"/>
      <point x="288.9721212121212" y="1030.8045454545454" type="curve" smooth="yes"/>
    </contour>
    <contour>
      <point x="76.08939393939394" y="0.0" type="line"/>
      <point x="1220.6031818181818" y="0.0" type="line"/>
      <point x="1220.6031818181818" y="172.71484848484852" type="line"/>
      <point x="76.08939393939394" y="172.71484848484852" type="line"/>
    </contour>
    <contour>
      <point x="76.08939393939394" y="669.8995454545454" type="line"/>
      <point x="997.3518181818182" y="669.8995454545454" type="line"/>
      <point x="997.3518181818182" y="830.1004545454546" type="line"/>
      <point x="76.08939393939394" y="830.1004545454546" type="line"/>
    </contour>
  </outline>
</glyph>
<glyph name="yen" format="2">
  <advance width="1239.474696969697"/>
  <unicode hex="00A5"/>
  <outline>
    <contour>
      <point x="515.1509090909091" y="0.0" type="line"/>
      <point x="726.2790909090909" y="0.0" type="line"/>
      <point x="726.2790909090909" y="732.8100000000001" type="line"/>
      <point x="681.6869696969698" y="578.0895454545455" type="line"/>
      <point x="1253.8936363636365" y="1480.0" type="line"/>
      <point x="1040.1509090909092" y="1480.0" type="line"/>
      <point x="592.2010606060607" y="779.0501515151516" type="line"/>
      <point x="658.2680303030303" y="779.0501515151516" type="line"/>
      <point x="209.36287878787883" y="1480.0" type="line"/>
      <point x="-19.50272727272728" y="1480.0" type="line"/>
      <point x="559.7430303030303" y="578.0895454545455" type="line"/>
      <point x="515.1509090909091" y="735.1563636363636" type="line"/>
    </contour>
    <contour>
      <point x="199.06151515151515" y="287.54196969696966" type="line"/>
      <point x="1042.368484848485" y="287.54196969696966" type="line"/>
      <point x="1042.368484848485" y="421.15075757575755" type="line"/>
      <point x="199.06151515151515" y="421.15075757575755" type="line"/>
    </contour>
    <contour>
      <point x="199.06151515151515" y="626.8492424242424" type="line"/>
      <point x="1042.368484848485" y="626.8492424242424" type="line"/>
      <point x="1042.368484848485" y="760.4580303030303" type="line"/>
      <point x="199.06151515151515" y="760.4580303030303" type="line"/>
    </contour>
  </outline>
</glyph>
<glyph name="brokenbar" format="2">
  <advance width="506.65909090909093"/>
  <unicode hex="00A6"/>
  <outline>
    <contour>
      <point x="158.3240909090909" y="836.0" type="line"/>
      <point x="348.33500000000004" y="836.0" type="line"/>
      <point x="348.33500000000004" y="1616.0" type="line"/>
      <point x="158.3240909090909" y="1616.0" type="line"/>
    </contour>
    <contour>
      <point x="158.3240909090909" y="-440.0" type="line"/>
      <point x="348.33500000000004" y="-440.0" type="line"/>
      <point x="348.33500000000004" y="340.0" type="line"/>
      <point x="158.3240909090909" y="340.0" type="line"/>
    </contour>
  </outline>
</glyph>
<glyph name="section" format="2">
  <advance width="1042.9048484848486"/>
  <unicode hex="00A7"/>
  <outline>
    <contour>
      <point x="448.98318181818183" y="-19.564242424242426" type="curve" smooth="yes"/>
      <point x="746.4356060606061" y="-19.564242424242426"/>
      <point x="897.8992424242424" y="105.38545454545455"/>
      <point x="897.8992424242424" y="305.4189393939394" type="curve" smooth="yes"/>
      <point x="897.8992424242424" y="458.84909090909093"/>
      <point x="811.8657575757576" y="546.1116666666667"/>
      <point x="619.424393939394" y="587.8100000000001" type="curve" smooth="yes"/>
      <point x="442.32393939393944" y="623.6312121212121" type="line" smooth="yes"/>
      <point x="326.7819696969697" y="648.8100000000001"/>
      <point x="285.86015151515153" y="704.4301515151515"/>
      <point x="285.86015151515153" y="786.055909090909" type="curve" smooth="yes"/>
      <point x="285.86015151515153" y="844.8045454545454"/>
      <point x="312.43" y="895.5084848484848"/>
      <point x="370.3071212121212" y="939.2459090909091" type="curve"/>
      <point x="254.7821212121212" y="1020.1787878787878" type="line"/>
      <point x="164.4860606060606" y="963.6592424242424"/>
      <point x="110.53636363636363" y="880.5307575757575"/>
      <point x="110.53636363636363" y="775.234696969697" type="curve" smooth="yes"/>
      <point x="110.53636363636363" y="613.2459090909091"/>
      <point x="199.9162121212121" y="518.6369696969697"/>
      <point x="381.79333333333335" y="479.32969696969695" type="curve" smooth="yes"/>
      <point x="558.5027272727273" y="443.50848484848484" type="line" smooth="yes"/>
      <point x="663.4860606060606" y="420.6760606060606"/>
      <point x="705.6704545454545" y="379.0559090909091"/>
      <point x="705.6704545454545" y="292.7709090909091" type="curve" smooth="yes"/>
      <point x="705.6704545454545" y="192.569696969697"/>
      <point x="634.8715151515152" y="132.46909090909094"/>
      <point x="448.4636363636364" y="132.46909090909094" type="curve" smooth="yes"/>
      <point x="348.1228787878788" y="132.46909090909094"/>
      <point x="251.30727272727273" y="144.64227272727277"/>
      <point x="144.1340909090909" y="175.07803030303032" type="curve"/>
      <point x="144.1340909090909" y="21.826818181818183" type="line"/>
      <point x="239.91060606060606" y="-6.173181818181819"/>
      <point x="345.68151515151516" y="-19.564242424242426"/>
    </contour>
    <contour>
      <point x="784.3462121212121" y="455.73742424242425" type="line"/>
      <point x="875.5081818181818" y="512.4301515151515"/>
      <point x="932.3684848484849" y="595.2960606060606"/>
      <point x="932.3684848484849" y="707.3742424242424" type="curve" smooth="yes"/>
      <point x="932.3684848484849" y="871.3630303030303"/>
      <point x="846.335" y="962.1898484848485"/>
      <point x="657.4131818181818" y="1002.3239393939394" type="curve" smooth="yes"/>
      <point x="476.79318181818184" y="1037.3630303030304" type="line" smooth="yes"/>
      <point x="371.8098484848485" y="1060.1954545454546"/>
      <point x="333.3237878787879" y="1108.3407575757576"/>
      <point x="333.3237878787879" y="1184.100606060606" type="curve" smooth="yes"/>
      <point x="333.3237878787879" y="1272.385606060606"/>
      <point x="400.5975757575758" y="1344.7487878787879"/>
      <point x="615.1674242424242" y="1344.7487878787879" type="curve" smooth="yes"/>
      <point x="698.5137878787879" y="1344.7487878787879"/>
      <point x="772.1171212121212" y="1336.7487878787879"/>
      <point x="859.5528787878789" y="1315.0951515151514" type="curve"/>
      <point x="859.5528787878789" y="1468.3463636363635" type="line"/>
      <point x="780.8154545454546" y="1486.7821212121212"/>
      <point x="693.5193939393939" y="1496.7821212121212"/>
      <point x="602.2624242424242" y="1496.7821212121212" type="curve" smooth="yes"/>
      <point x="282.2569696969697" y="1496.7821212121212"/>
      <point x="141.095" y="1362.9609090909091"/>
      <point x="141.095" y="1173.279393939394" type="curve" smooth="yes"/>
      <point x="141.095" y="1025.7598484848486"/>
      <point x="229.69272727272727" y="933.5419696969697"/>
      <point x="419.7821212121212" y="893.0615151515151" type="curve" smooth="yes"/>
      <point x="596.4915151515152" y="857.240303030303" type="line" smooth="yes"/>
      <point x="712.0334848484848" y="832.0615151515151"/>
      <point x="757.0446969696969" y="782.9665151515152"/>
      <point x="757.0446969696969" y="692.7709090909091" type="curve" smooth="yes"/>
      <point x="757.0446969696969" y="628.9775757575758"/>
      <point x="728.910606060606" y="581.6646969696969"/>
      <point x="664.0837878787879" y="538.1898484848485" type="curve"/>
    </contour>
  </outline>
</glyph>
<glyph name="copyright" format="2">
  <advance width="1690.3687878787878"/>
  <unicode hex="00A9"/>
  <outline>
    <contour>
      <point x="845.1843939393939" y="-22.0" type="curve" smooth="yes"/>
      <point x="1293.5307575757577" y="-22.0"/>
      <point x="1591.5307575757577" y="282.0"/>
      <point x="1591.5307575757577" y="740.0" type="curve" smooth="yes"/>
      <point x="1591.5307575757577" y="1198.0"/>
      <point x="1293.5307575757577" y="1502.0"/>
      <point x="845.1843939393939" y="1502.0" type="curve" smooth="yes"/>
      <point x="396.8380303030303" y="1502.0"/>
      <point x="98.8380303030303" y="1198.0"/>
      <point x="98.8380303030303" y="740.0" type="curve" smooth="yes"/>
      <point x="98.8380303030303" y="282.0"/>
      <point x="396.8380303030303" y="-22.0"/>
    </contour>
    <contour>
      <point x="893.2625757575757" y="324.0" type="curve" smooth="yes"/>
      <point x="972.8268181818182" y="324.0"/>
      <point x="1044.8268181818182" y="336.0"/>
      <point x="1105.7877272727274" y="361.30727272727273" type="curve"/>
      <point x="1105.7877272727274" y="499.26242424242423" type="line"/>
      <point x="1025.3519696969697" y="472.73727272727274"/>
      <point x="965.0837878787879" y="464.30151515151516"/>
      <point x="907.8659090909091" y="464.30151515151516" type="curve" smooth="yes"/>
      <point x="744.715" y="464.30151515151516"/>
      <point x="646.1786363636364" y="552.4021212121212"/>
      <point x="646.1786363636364" y="735.6536363636363" type="curve" smooth="yes"/>
      <point x="646.1786363636364" y="916.0336363636363"/>
      <point x="742.3686363636364" y="1003.6984848484848"/>
      <point x="925.9553030303031" y="1003.6984848484848" type="curve" smooth="yes"/>
      <point x="990.4804545454546" y="1003.6984848484848"/>
      <point x="1044.5698484848485" y="995.2627272727273"/>
      <point x="1105.7877272727274" y="980.3912121212121" type="curve"/>
      <point x="1105.7877272727274" y="1118.3463636363635" type="line"/>
      <point x="1044.916212121212" y="1136.0"/>
      <point x="984.1340909090909" y="1144.0"/>
      <point x="913.7877272727272" y="1144.0" type="curve" smooth="yes"/>
      <point x="643.5307575757575" y="1144.0"/>
      <point x="485.01681818181817" y="994.4357575757575"/>
      <point x="485.01681818181817" y="733.2178787878788" type="curve" smooth="yes"/>
      <point x="485.01681818181817" y="466.69272727272727"/>
      <point x="646.8380303030303" y="324.0"/>
    </contour>
    <contour>
      <point x="845.1843939393939" y="102.31272727272729" type="curve" smooth="yes"/>
      <point x="465.7765151515151" y="102.31272727272729"/>
      <point x="227.06136363636364" y="352.50272727272727"/>
      <point x="227.06136363636364" y="740.0" type="curve" smooth="yes"/>
      <point x="227.06136363636364" y="1127.4972727272727"/>
      <point x="465.7765151515151" y="1377.6872727272728"/>
      <point x="845.1843939393939" y="1377.6872727272728" type="curve" smooth="yes"/>
      <point x="1224.5922727272728" y="1377.6872727272728"/>
      <point x="1463.3074242424243" y="1127.4972727272727"/>
      <point x="1463.3074242424243" y="740.0" type="curve" smooth="yes"/>
      <point x="1463.3074242424243" y="352.50272727272727"/>
      <point x="1224.5922727272728" y="102.31272727272729"/>
    </contour>
  </outline>
</glyph>
<glyph name="ordfeminine" format="2">
  <advance width="888.2233333333334"/>
  <unicode hex="00AA"/>
  <outline>
    <contour>
      <point x="343.00560606060606" y="594.4357575757575" type="curve" smooth="yes"/>
      <point x="446.18439393939394" y="594.4357575757575"/>
      <point x="541.7542424242424" y="631.7877272727272"/>
      <point x="599.4972727272727" y="703.7877272727272" type="curve"/>
      <point x="609.7989393939393" y="703.7877272727272" type="line"/>
      <point x="624.4022727272727" y="610.0" type="line"/>
      <point x="785.5975757575758" y="610.0" type="line"/>
      <point x="785.5975757575758" y="1154.5084848484848" type="line" smooth="yes"/>
      <point x="785.5975757575758" y="1410.2681818181818"/>
      <point x="661.0836363636364" y="1495.9106060606061"/>
      <point x="401.7709090909091" y="1495.9106060606061" type="curve" smooth="yes"/>
      <point x="312.55863636363637" y="1495.9106060606061"/>
      <point x="208.2178787878788" y="1482.6927272727273"/>
      <point x="123.7039393939394" y="1456.4748484848485" type="curve"/>
      <point x="123.7039393939394" y="1308.3968181818182" type="line"/>
      <point x="207.40227272727273" y="1334.486212121212"/>
      <point x="296.13969696969696" y="1347.0951515151514"/>
      <point x="369.05030303030304" y="1347.0951515151514" type="curve" smooth="yes"/>
      <point x="528.139696969697" y="1347.0951515151514"/>
      <point x="593.7207575757576" y="1305.3521212121211"/>
      <point x="593.7207575757576" y="1176.061515151515" type="curve" smooth="yes"/>
      <point x="593.7207575757576" y="813.4636363636364" type="line"/>
      <point x="540.7933333333333" y="755.2680303030303"/>
      <point x="470.46924242424245" y="731.1283333333333"/>
      <point x="405.92727272727274" y="731.1283333333333" type="curve" smooth="yes"/>
      <point x="303.3406060606061" y="731.1283333333333"/>
      <point x="251.37409090909094" y="777.0948484848485"/>
      <point x="251.37409090909094" y="861.9384848484849" type="curve" smooth="yes"/>
      <point x="251.37409090909094" y="941.9553030303031"/>
      <point x="302.77636363636367" y="986.095"/>
      <point x="428.75969696969696" y="997.8380303030303" type="curve" smooth="yes"/>
      <point x="655.7486363636364" y="1017.6704545454545" type="line"/>
      <point x="634.7598484848485" y="1123.988787878788" type="line"/>
      <point x="404.2960606060606" y="1103.3742424242425" type="line" smooth="yes"/>
      <point x="160.96651515151515" y="1085.0669696969696"/>
      <point x="59.798939393939385" y="998.3742424242424"/>
      <point x="59.798939393939385" y="839.5139393939394" type="curve" smooth="yes"/>
      <point x="59.798939393939385" y="691.994393939394"/>
      <point x="163.5810606060606" y="594.4357575757575"/>
    </contour>
  </outline>
</glyph>
<glyph name="logicalnot" format="2">
  <advance width="1333.2178787878788"/>
  <unicode hex="00AC"/>
  <outline>
    <contour>
      <point x="1030.614696969697" y="195.12848484848485" type="line"/>
      <point x="1202.6368181818182" y="195.12848484848485" type="line"/>
      <point x="1202.6368181818182" y="842.0557575757576" type="line"/>
      <point x="139.23469696969696" y="842.0557575757576" type="line"/>
      <point x="139.23469696969696" y="677.9442424242424" type="line"/>
      <point x="1030.614696969697" y="677.9442424242424" type="line"/>
    </contour>
  </outline>
</glyph>
<glyph name="registered" format="2">
  <advance width="1482.9051515151516"/>
  <unicode hex="00AE"/>
  <outline>
    <contour>
      <point x="741.4525757575758" y="268.0" type="curve" smooth="yes"/>
      <point x="1103.4525757575757" y="268.0"/>
      <point x="1351.4525757575757" y="518.0"/>
      <point x="1351.4525757575757" y="882.0" type="curve" smooth="yes"/>
      <point x="1351.4525757575757" y="1246.0"/>
      <point x="1103.4525757575757" y="1498.0"/>
      <point x="741.4525757575758" y="1498.0" type="curve" smooth="yes"/>
      <point x="379.45257575757574" y="1498.0"/>
      <point x="131.45257575757574" y="1246.0"/>
      <point x="131.45257575757574" y="882.0" type="curve" smooth="yes"/>
      <point x="131.45257575757574" y="518.0"/>
      <point x="379.45257575757574" y="268.0"/>
    </contour>
    <contour>
      <point x="891.2962121212121" y="600.0" type="line"/>
      <point x="1008.7486363636364" y="600.0" type="line"/>
      <point x="842.1340909090909" y="844.3575757575758" type="line"/>
      <point x="741.4637878787879" y="818.3575757575758" type="line"/>
    </contour>
    <contour>
      <point x="741.4525757575758" y="369.19545454545454" type="curve" smooth="yes"/>
      <point x="436.91621212121214" y="369.19545454545454"/>
      <point x="238.55863636363637" y="571.1172727272727"/>
      <point x="238.55863636363637" y="882.0" type="curve" smooth="yes"/>
      <point x="238.55863636363637" y="1193.6648484848486"/>
      <point x="436.91621212121214" y="1396.8045454545454"/>
      <point x="741.4525757575758" y="1396.8045454545454" type="curve" smooth="yes"/>
      <point x="1045.9889393939393" y="1396.8045454545454"/>
      <point x="1244.3465151515152" y="1193.6648484848486"/>
      <point x="1244.3465151515152" y="882.0" type="curve" smooth="yes"/>
      <point x="1244.3465151515152" y="571.1172727272727"/>
      <point x="1045.9889393939393" y="369.19545454545454"/>
    </contour>
    <contour>
      <point x="527.9777272727273" y="600.0" type="line"/>
      <point x="633.0837878787879" y="600.0" type="line"/>
      <point x="635.4301515151515" y="810.3575757575758" type="line"/>
      <point x="729.7989393939393" y="810.3575757575758" type="line" smooth="yes"/>
      <point x="898.8380303030303" y="810.3575757575758"/>
      <point x="981.6201515151515" y="875.5754545454546"/>
      <point x="981.6201515151515" y="1000.1787878787878" type="curve" smooth="yes"/>
      <point x="981.6201515151515" y="1124.7821212121212"/>
      <point x="896.8380303030303" y="1192.0"/>
      <point x="729.7989393939393" y="1192.0" type="curve" smooth="yes"/>
      <point x="527.9777272727273" y="1192.0" type="line"/>
    </contour>
    <contour>
      <point x="635.4301515151515" y="899.7318181818182" type="line"/>
      <point x="635.4301515151515" y="1102.6257575757575" type="line"/>
      <point x="747.2737878787879" y="1102.6257575757575" type="line" smooth="yes"/>
      <point x="834.2459090909091" y="1102.6257575757575"/>
      <point x="878.0783333333333" y="1068.8827272727272"/>
      <point x="878.0783333333333" y="1000.1787878787878" type="curve" smooth="yes"/>
      <point x="878.0783333333333" y="931.4748484848485"/>
      <point x="836.2459090909091" y="899.7318181818182"/>
      <point x="747.2737878787879" y="899.7318181818182" type="curve" smooth="yes"/>
    </contour>
  </outline>
</glyph>
<glyph name="degree" format="2">
  <advance width="976.9609090909091"/>
  <unicode hex="00B0"/>
  <outline>
    <contour>
      <point x="488.48045454545456" y="788.9833333333333" type="curve" smooth="yes"/>
      <point x="695.7765151515151" y="788.9833333333333"/>
      <point x="845.5083333333333" y="938.3687878787879"/>
      <point x="845.5083333333333" y="1143.6648484848486" type="curve" smooth="yes"/>
      <point x="845.5083333333333" y="1348.9609090909091"/>
      <point x="695.7765151515151" y="1497.5642424242424"/>
      <point x="488.48045454545456" y="1497.5642424242424" type="curve" smooth="yes"/>
      <point x="281.18439393939394" y="1497.5642424242424"/>
      <point x="131.45257575757574" y="1348.9609090909091"/>
      <point x="131.45257575757574" y="1143.6648484848486" type="curve" smooth="yes"/>
      <point x="131.45257575757574" y="938.3687878787879"/>
      <point x="281.18439393939394" y="788.9833333333333"/>
    </contour>
    <contour>
      <point x="488.48045454545456" y="920.6368181818182" type="curve" smooth="yes"/>
      <point x="362.4189393939394" y="920.6368181818182"/>
      <point x="271.1898484848485" y="1006.6480303030303"/>
      <point x="271.1898484848485" y="1143.6648484848486" type="curve" smooth="yes"/>
      <point x="271.1898484848485" y="1281.0727272727272"/>
      <point x="363.2010606060606" y="1365.9107575757575"/>
      <point x="488.48045454545456" y="1365.9107575757575" type="curve" smooth="yes"/>
      <point x="613.7598484848485" y="1365.9107575757575"/>
      <point x="705.7710606060606" y="1281.0727272727272"/>
      <point x="705.7710606060606" y="1143.6648484848486" type="curve" smooth="yes"/>
      <point x="705.7710606060606" y="1006.6480303030303"/>
      <point x="614.5419696969697" y="920.6368181818182"/>
    </contour>
  </outline>
</glyph>
<glyph name="plusminus" format="2">
  <advance width="1083.1172727272728"/>
  <unicode hex="00B1"/>
  <outline>
    <contour>
      <point x="455.54757575757577" y="348.0669696969697" type="line"/>
      <point x="627.569696969697" y="348.0669696969697" type="line"/>
      <point x="627.569696969697" y="669.1284848484848" type="line"/>
      <point x="943.8825757575758" y="669.1284848484848" type="line"/>
      <point x="943.8825757575758" y="833.24" type="line"/>
      <point x="627.569696969697" y="833.24" type="line"/>
      <point x="627.569696969697" y="1154.301515151515" type="line"/>
      <point x="455.54757575757577" y="1154.301515151515" type="line"/>
      <point x="455.54757575757577" y="833.24" type="line"/>
      <point x="139.23469696969696" y="833.24" type="line"/>
      <point x="139.23469696969696" y="669.1284848484848" type="line"/>
      <point x="455.54757575757577" y="669.1284848484848" type="line"/>
    </contour>
    <contour>
      <point x="139.23469696969696" y="0.39106060606060616" type="line"/>
      <point x="943.8825757575758" y="0.39106060606060616" type="line"/>
      <point x="943.8825757575758" y="164.50257575757578" type="line"/>
      <point x="139.23469696969696" y="164.50257575757578" type="line"/>
    </contour>
  </outline>
</glyph>
<glyph name="micro" format="2">
  <advance width="1152.8657575757575"/>
  <unicode hex="00B5"/>
  <outline>
    <contour>
      <point x="523.5418181818181" y="-18.391060606060606" type="curve" smooth="yes"/>
      <point x="631.9887878787879" y="-18.391060606060606"/>
      <point x="734.3072727272727" y="27.044696969696968"/>
      <point x="812.6648484848484" y="116.17878787878787" type="curve"/>
      <point x="823.7933333333333" y="116.17878787878787" type="line"/>
      <point x="838.3966666666666" y="0.0" type="line"/>
      <point x="1011.4131818181818" y="0.0" type="line"/>
      <point x="1011.4131818181818" y="1087.821212121212" type="line"/>
      <point x="803.8045454545454" y="1087.821212121212" type="line"/>
      <point x="803.8045454545454" y="291.87136363636364" type="line"/>
      <point x="735.050303030303" y="201.80424242424246"/>
      <point x="626.6368181818182" y="163.75393939393945"/>
      <point x="538.4468181818182" y="163.75393939393945" type="curve" smooth="yes"/>
      <point x="419.2065151515152" y="163.75393939393945"/>
      <point x="338.189696969697" y="219.93833333333336"/>
      <point x="338.189696969697" y="389.62" type="curve" smooth="yes"/>
      <point x="338.189696969697" y="559.9439393939394" type="line"/>
      <point x="229.18424242424246" y="559.9439393939394" type="line"/>
      <point x="229.18424242424246" y="378.1060606060606" type="line" smooth="yes"/>
      <point x="229.18424242424246" y="88.07818181818182"/>
      <point x="345.2289393939394" y="-18.391060606060606"/>
    </contour>
    <contour>
      <point x="130.5810606060606" y="-440.0" type="line"/>
      <point x="338.189696969697" y="-440.0" type="line"/>
      <point x="338.189696969697" y="1087.4301515151515" type="line"/>
      <point x="130.5810606060606" y="1087.4301515151515" type="line"/>
    </contour>
  </outline>
</glyph>
<glyph name="paragraph" format="2">
  <advance width="1257.9104545454545"/>
  <unicode hex="00B6"/>
  <outline>
    <contour>
      <point x="657.6090909090909" y="0.0" type="line"/>
      <point x="813.5977272727273" y="0.0" type="line"/>
      <point x="813.5977272727273" y="1480.0" type="line"/>
      <point x="731.4692424242425" y="1489.955303030303"/>
      <point x="635.7765151515151" y="1496.3463636363635"/>
      <point x="538.994393939394" y="1496.3463636363635" type="curve" smooth="yes"/>
      <point x="234.74863636363636" y="1496.3463636363635"/>
      <point x="84.53075757575758" y="1337.916212121212"/>
      <point x="84.53075757575758" y="982.7542424242424" type="curve" smooth="yes"/>
      <point x="84.53075757575758" y="647.2012121212122"/>
      <point x="227.8771212121212" y="468.335303030303"/>
      <point x="534.7598484848485" y="468.335303030303" type="curve" smooth="yes"/>
      <point x="580.0727272727272" y="468.335303030303"/>
      <point x="616.1230303030303" y="470.5531818181818"/>
      <point x="657.6090909090909" y="474.8157575757576" type="curve"/>
    </contour>
    <contour>
      <point x="943.5977272727273" y="0.0" type="line"/>
      <point x="1099.5863636363638" y="0.0" type="line"/>
      <point x="1099.5863636363638" y="1480.0" type="line"/>
      <point x="943.5977272727273" y="1480.0" type="line"/>
    </contour>
  </outline>
</glyph>
<glyph name="ordmasculine" format="2">
  <advance width="962.659090909091"/>
  <unicode hex="00BA"/>
  <outline>
    <contour>
      <point x="481.32954545454544" y="594.4357575757575" type="curve" smooth="yes"/>
      <point x="737.3462121212121" y="594.4357575757575"/>
      <point x="896.4690909090909" y="744.0334848484848"/>
      <point x="896.4690909090909" y="1046.3910606060606" type="curve" smooth="yes"/>
      <point x="896.4690909090909" y="1348.7486363636363"/>
      <point x="737.3462121212121" y="1495.9106060606061"/>
      <point x="481.32954545454544" y="1495.9106060606061" type="curve" smooth="yes"/>
      <point x="225.3128787878788" y="1495.9106060606061"/>
      <point x="66.19" y="1350.7039393939394"/>
      <point x="66.19" y="1046.3910606060606" type="curve" smooth="yes"/>
      <point x="66.19" y="742.0781818181819"/>
      <point x="225.3128787878788" y="594.4357575757575"/>
    </contour>
    <contour>
      <point x="481.32954545454544" y="743.8601515151515" type="curve" smooth="yes"/>
      <point x="348.12833333333333" y="743.8601515151515"/>
      <point x="260.8936363636364" y="818.614393939394"/>
      <point x="260.8936363636364" y="1046.3910606060606" type="curve" smooth="yes"/>
      <point x="260.8936363636364" y="1274.5587878787878"/>
      <point x="348.12833333333333" y="1346.486212121212"/>
      <point x="481.32954545454544" y="1346.486212121212" type="curve" smooth="yes"/>
      <point x="615.3128787878788" y="1346.486212121212"/>
      <point x="701.7654545454545" y="1274.5587878787878"/>
      <point x="701.7654545454545" y="1046.3910606060606" type="curve" smooth="yes"/>
      <point x="701.7654545454545" y="818.614393939394"/>
      <point x="615.3128787878788" y="743.8601515151515"/>
    </contour>
  </outline>
</glyph>
<glyph name="questiondown" format="2">
  <advance width="930.0389393939395"/>
  <unicode hex="00BF"/>
  <outline>
    <contour>
      <point x="577.8601515151515" y="697.0951515151515" type="line"/>
      <point x="448.12848484848485" y="697.0951515151515" type="line"/>
      <point x="430.6983333333333" y="406.7318181818182" type="line"/>
      <point x="170.03348484848485" y="313.6312121212121"/>
      <point x="56.569848484848485" y="185.11166666666668"/>
      <point x="56.569848484848485" y="-22.36318181818181" type="curve" smooth="yes"/>
      <point x="56.569848484848485" y="-260.7430303030303"/>
      <point x="225.21227272727273" y="-400.0"/>
      <point x="546.3127272727273" y="-400.0" type="curve" smooth="yes"/>
      <point x="666.3518181818182" y="-400.0"/>
      <point x="798.7316666666667" y="-379.4357575757576"/>
      <point x="893.0780303030303" y="-345.6089393939394" type="curve"/>
      <point x="893.0780303030303" y="-176.3242424242424" type="line"/>
      <point x="790.2065151515152" y="-213.36893939393937"/>
      <point x="677.0389393939395" y="-231.9331818181818"/>
      <point x="567.2568181818182" y="-231.9331818181818" type="curve" smooth="yes"/>
      <point x="361.4578787878788" y="-231.9331818181818"/>
      <point x="260.7036363636364" y="-151.39681818181816"/>
      <point x="260.7036363636364" y="-7.502878787878778" type="curve" smooth="yes"/>
      <point x="260.7036363636364" y="134.43575757575758"/>
      <point x="343.14500000000004" y="226.70954545454543"/>
      <point x="613.7148484848485" y="301.89954545454543" type="curve"/>
    </contour>
    <contour>
      <point x="512.7987878787878" y="1101.7318181818182" type="curve" smooth="yes"/>
      <point x="425.91621212121214" y="1101.7318181818182"/>
      <point x="370.24030303030304" y="1048.7486363636363"/>
      <point x="370.24030303030304" y="971.6872727272727" type="curve" smooth="yes"/>
      <point x="370.24030303030304" y="893.4080303030303"/>
      <point x="425.5698484848485" y="840.4248484848484"/>
      <point x="512.7987878787878" y="840.4248484848484" type="curve" smooth="yes"/>
      <point x="600.0277272727274" y="840.4248484848484"/>
      <point x="655.3572727272727" y="891.8437878787879"/>
      <point x="655.3572727272727" y="971.6872727272727" type="curve" smooth="yes"/>
      <point x="655.3572727272727" y="1050.3128787878788"/>
      <point x="598.4634848484849" y="1101.7318181818182"/>
    </contour>
  </outline>
</glyph>
<glyph name="AE" format="2">
  <advance width="1894.6086363636364"/>
  <unicode hex="00C6"/>
  <anchor x="1007.3127272727273" y="0.0" name="bottom"/>
  <anchor x="951.8992424242424" y="1520.0" name="top"/>
  <outline>
    <contour>
      <point x="24.094999999999995" y="0.0" type="line"/>
      <point x="233.96621212121215" y="0.0" type="line"/>
      <point x="689.0222727272727" y="1306.0672727272727" type="line"/>
      <point x="946.1618181818183" y="1306.0672727272727" type="line"/>
      <point x="947.379696969697" y="1480.0" type="line"/>
      <point x="546.475" y="1480.0" type="line"/>
    </contour>
    <contour>
      <point x="322.45803030303034" y="453.69848484848484" type="line"/>
      <point x="980.3965151515151" y="453.69848484848484" type="line"/>
      <point x="980.3965151515151" y="627.6312121212121" type="line"/>
      <point x="370.22333333333336" y="627.6312121212121" type="line"/>
    </contour>
    <contour>
      <point x="951.2401515151515" y="0.0" type="line"/>
      <point x="1823.2175757575758" y="0.0" type="line"/>
      <point x="1823.2175757575758" y="173.93272727272728" type="line"/>
      <point x="1147.2454545454545" y="173.93272727272728" type="line"/>
      <point x="1064.720303030303" y="1306.0672727272727" type="line"/>
      <point x="1813.2175757575758" y="1306.0672727272727" type="line"/>
      <point x="1813.2175757575758" y="1480.0" type="line"/>
      <point x="847.854696969697" y="1480.0" type="line"/>
    </contour>
    <contour>
      <point x="1014.4634848484849" y="671.6872727272727" type="line"/>
      <point x="1714.3069696969696" y="671.6872727272727" type="line"/>
      <point x="1714.3069696969696" y="845.62" type="line"/>
      <point x="1014.4634848484849" y="845.62" type="line"/>
    </contour>
  </outline>
</glyph>
<glyph name="multiply" format="2">
  <advance width="1011.9775757575758"/>
  <unicode hex="00D7"/>
  <outline>
    <contour>
      <point x="223.7987878787879" y="362.6369696969697" type="line"/>
      <point x="505.9887878787879" y="644.8269696969696" type="line"/>
      <point x="788.1787878787878" y="362.6369696969697" type="line"/>
      <point x="903.3518181818182" y="477.81" type="line"/>
      <point x="621.1618181818183" y="760.0" type="line"/>
      <point x="903.3518181818182" y="1042.19" type="line"/>
      <point x="788.1787878787878" y="1157.3630303030304" type="line"/>
      <point x="505.9887878787879" y="875.1730303030304" type="line"/>
      <point x="223.7987878787879" y="1157.3630303030304" type="line"/>
      <point x="108.62575757575758" y="1042.19" type="line"/>
      <point x="390.8157575757576" y="760.0" type="line"/>
      <point x="108.62575757575758" y="477.81" type="line"/>
    </contour>
  </outline>
</glyph>
<glyph name="Thorn" format="2">
  <advance width="1267.9104545454545"/>
  <unicode hex="00DE"/>
  <outline>
    <contour>
      <point x="158.3240909090909" y="0.0" type="line"/>
      <point x="369.45227272727277" y="0.0" type="line"/>
      <point x="369.45227272727277" y="253.67045454545453" type="line"/>
      <point x="431.63666666666666" y="248.79893939393938"/>
      <point x="485.9048484848485" y="246.19"/>
      <point x="550.0445454545454" y="246.19" type="curve" smooth="yes"/>
      <point x="972.8266666666667" y="246.19"/>
      <point x="1173.3796969696969" y="424.27378787878786"/>
      <point x="1173.3796969696969" y="760.6089393939394" type="curve" smooth="yes"/>
      <point x="1173.3796969696969" y="1115.770909090909"/>
      <point x="964.7372727272727" y="1274.2010606060605"/>
      <point x="561.2848484848485" y="1274.2010606060605" type="curve" smooth="yes"/>
      <point x="485.2624242424243" y="1274.2010606060605"/>
      <point x="419.8992424242424" y="1267.3295454545455"/>
      <point x="369.45227272727277" y="1260.0222727272728" type="curve"/>
      <point x="369.45227272727277" y="1480.6089393939394" type="line"/>
      <point x="158.3240909090909" y="1480.6089393939394" type="line"/>
    </contour>
    <contour>
      <point x="551.8713636363636" y="411.5193939393939" type="curve" smooth="yes"/>
      <point x="484.1227272727273" y="411.5193939393939"/>
      <point x="428.76515151515156" y="414.73727272727274"/>
      <point x="369.45227272727277" y="422.3909090909091" type="curve"/>
      <point x="369.45227272727277" y="1092.3465151515152" type="line"/>
      <point x="432.5081818181818" y="1103.2180303030302"/>
      <point x="496.4356060606061" y="1108.8716666666667"/>
      <point x="574.9719696969697" y="1108.8716666666667" type="curve" smooth="yes"/>
      <point x="838.7486363636364" y="1108.8716666666667"/>
      <point x="965.6816666666666" y="1003.5531818181818"/>
      <point x="965.6816666666666" y="758.0" type="curve" smooth="yes"/>
      <point x="965.6816666666666" y="520.2345454545455"/>
      <point x="841.1843939393939" y="411.5193939393939"/>
    </contour>
  </outline>
</glyph>
<glyph name="germandbls" format="2">
  <advance width="1443.6421212121213"/>
  <unicode hex="00DF"/>
  <outline>
    <contour>
      <point x="929.24" y="-19.564242424242426" type="curve" smooth="yes"/>
      <point x="1225.4745454545455" y="-19.564242424242426"/>
      <point x="1380.8487878787878" y="105.38545454545455"/>
      <point x="1380.8487878787878" y="308.54742424242426" type="curve" smooth="yes"/>
      <point x="1380.8487878787878" y="479.5753030303031"/>
      <point x="1294.8600000000001" y="568.2289393939394"/>
      <point x="1095.3348484848484" y="609.7540909090909" type="curve" smooth="yes"/>
      <point x="939.3516666666667" y="640.1004545454546" type="line" smooth="yes"/>
      <point x="834.4130303030304" y="662.9328787878788"/>
      <point x="796.664393939394" y="710.6871212121213"/>
      <point x="796.664393939394" y="785.2737878787879" type="curve" smooth="yes"/>
      <point x="796.664393939394" y="874.3409090909091"/>
      <point x="861.5918181818182" y="945.9219696969697"/>
      <point x="1069.904696969697" y="945.9219696969697" type="curve" smooth="yes"/>
      <point x="1133.6030303030302" y="945.9219696969697"/>
      <point x="1178.8600000000001" y="940.8772727272727"/>
      <point x="1220.770606060606" y="934.0504545454545" type="curve"/>
      <point x="1236.6812121212122" y="995.6928787878787"/>
      <point x="1250.2454545454545" y="1077.519696969697"/>
      <point x="1250.2454545454545" y="1153.8604545454546" type="curve" smooth="yes"/>
      <point x="1250.2454545454545" y="1493.0559090909092"/>
      <point x="1045.2622727272728" y="1636.0"/>
      <point x="762.379696969697" y="1636.0" type="curve" smooth="yes"/>
      <point x="419.33515151515155" y="1636.0"/>
      <point x="217.0112121212121" y="1447.8492424242424"/>
      <point x="217.0112121212121" y="1089.430303030303" type="curve" smooth="yes"/>
      <point x="217.0112121212121" y="0.0" type="line"/>
      <point x="424.6198484848485" y="0.0" type="line"/>
      <point x="424.6198484848485" y="1088.514090909091" type="line" smooth="yes"/>
      <point x="424.6198484848485" y="1368.1845454545455"/>
      <point x="547.9774242424243" y="1483.9666666666667"/>
      <point x="775.6757575757576" y="1483.9666666666667" type="curve" smooth="yes"/>
      <point x="960.5528787878789" y="1483.9666666666667"/>
      <point x="1095.519393939394" y="1400.3968181818182"/>
      <point x="1094.9104545454545" y="1166.111818181818" type="curve" smooth="yes"/>
      <point x="1094.9104545454545" y="1111.335303030303"/>
      <point x="1086.9551515151516" y="1054.0336363636363"/>
      <point x="1073.8266666666666" y="1001.6034848484849" type="curve"/>
      <point x="1189.4298484848487" y="1090.2569696969697" type="line"/>
      <point x="1146.6030303030304" y="1096.083787878788"/>
      <point x="1084.6589393939394" y="1098.6927272727273"/>
      <point x="1045.2678787878788" y="1098.6927272727273" type="curve" smooth="yes"/>
      <point x="746.7707575757577" y="1098.6927272727273"/>
      <point x="600.1339393939394" y="970.1731818181818"/>
      <point x="600.1339393939394" y="778.7095454545455" type="curve" smooth="yes"/>
      <point x="600.1339393939394" y="619.1118181818182"/>
      <point x="680.9104545454545" y="519.4190909090909"/>
      <point x="881.5584848484848" y="478.93863636363636" type="curve" smooth="yes"/>
      <point x="1037.5416666666667" y="448.5922727272727" type="line" smooth="yes"/>
      <point x="1143.6981818181819" y="425.7598484848485"/>
      <point x="1184.3183333333334" y="384.9218181818182"/>
      <point x="1184.3183333333334" y="299.4189393939394" type="curve" smooth="yes"/>
      <point x="1184.3183333333334" y="198.04454545454547"/>
      <point x="1112.3462121212121" y="139.11712121212122"/>
      <point x="927.5025757575758" y="139.11712121212122" type="curve" smooth="yes"/>
      <point x="829.5081818181818" y="139.11712121212122"/>
      <point x="725.2624242424242" y="152.63666666666668"/>
      <point x="623.1730303030304" y="181.50818181818184" type="curve"/>
      <point x="623.1730303030304" y="21.21787878787879" type="line"/>
      <point x="718.9495454545455" y="-6.782121212121212"/>
      <point x="825.8936363636363" y="-19.564242424242426"/>
    </contour>
    <contour>
      <point x="20.474848484848486" y="916.2348484848485" type="line"/>
      <point x="306.29045454545457" y="916.2348484848485" type="line"/>
      <point x="306.29045454545457" y="1087.821212121212" type="line"/>
      <point x="20.474848484848486" y="1087.821212121212" type="line"/>
    </contour>
  </outline>
</glyph>
<glyph name="ae" format="2">
  <advance width="1675.7037878787878"/>
  <unicode hex="00E6"/>
  <anchor x="827.3239393939393" y="0.0" name="bottom"/>
  <anchor x="827.3239393939393" y="1200.0" name="top"/>
  <outline>
    <contour>
      <point x="1252.0613636363637" y="-19.564242424242426" type="curve" smooth="yes"/>
      <point x="1345.664696969697" y="-19.564242424242426"/>
      <point x="1440.2680303030304" y="-7.519545454545455"/>
      <point x="1547.608787878788" y="21.96090909090909" type="curve"/>
      <point x="1547.608787878788" y="184.98863636363637" type="line"/>
      <point x="1450.1283333333333" y="158.24560606060606"/>
      <point x="1359.480303030303" y="143.8098484848485"/>
      <point x="1277.9607575757577" y="143.8098484848485" type="curve" smooth="yes"/>
      <point x="1031.3071212121213" y="143.8098484848485"/>
      <point x="925.4578787878788" y="240.569696969697"/>
      <point x="925.4578787878788" y="511.145303030303" type="curve" smooth="yes"/>
      <point x="925.4578787878788" y="588.715" type="line" smooth="yes"/>
      <point x="925.4578787878788" y="867.0671212121212"/>
      <point x="1017.0445454545454" y="963.3465151515152"/>
      <point x="1169.0278787878788" y="963.3465151515152" type="curve" smooth="yes"/>
      <point x="1320.6201515151515" y="963.3465151515152"/>
      <point x="1406.9442424242425" y="867.8939393939394"/>
      <point x="1406.9442424242425" y="584.670303030303" type="curve"/>
      <point x="1447.240303030303" y="610.804393939394" type="line"/>
      <point x="882.424393939394" y="610.804393939394" type="line"/>
      <point x="882.424393939394" y="479.10621212121214" type="line"/>
      <point x="1603.474696969697" y="479.10621212121214" type="line"/>
      <point x="1603.474696969697" y="540.0446969696969" type="line" smooth="yes"/>
      <point x="1603.474696969697" y="925.050303030303"/>
      <point x="1444.1786363636363" y="1105.2122727272726"/>
      <point x="1178.804393939394" y="1105.2122727272726" type="curve" smooth="yes"/>
      <point x="914.0837878787879" y="1105.2122727272726"/>
      <point x="753.5698484848485" y="921.9665151515152"/>
      <point x="753.5698484848485" y="562.7318181818182" type="curve"/>
      <point x="723.7151515151515" y="545.5195454545454" type="line"/>
      <point x="723.7151515151515" y="145.69272727272727"/>
      <point x="897.7095454545455" y="-19.564242424242426"/>
    </contour>
    <contour>
      <point x="436.5139393939394" y="-18.346363636363638" type="curve" smooth="yes"/>
      <point x="579.0781818181819" y="-18.346363636363638"/>
      <point x="719.1228787878788" y="30.69833333333333"/>
      <point x="837.910606060606" y="191.01681818181817" type="curve"/>
      <point x="769.9721212121212" y="301.11727272727273" type="line"/>
      <point x="687.005606060606" y="174.82666666666668"/>
      <point x="583.1563636363636" y="134.86015151515153"/>
      <point x="481.74848484848485" y="134.86015151515153" type="curve" smooth="yes"/>
      <point x="356.94393939393944" y="134.86015151515153"/>
      <point x="290.7148484848485" y="193.08924242424246"/>
      <point x="290.7148484848485" y="301.32954545454544" type="curve" smooth="yes"/>
      <point x="290.7148484848485" y="406.65363636363634"/>
      <point x="353.1171212121212" y="482.6257575757576"/>
      <point x="530.5865151515152" y="482.6257575757576" type="curve" smooth="yes"/>
      <point x="769.7486363636364" y="482.6257575757576" type="line"/>
      <point x="769.7486363636364" y="610.804393939394" type="line"/>
      <point x="515.6424242424242" y="610.804393939394" type="line" smooth="yes"/>
      <point x="206.00560606060606" y="610.804393939394"/>
      <point x="82.97212121212121" y="476.89378787878786"/>
      <point x="82.97212121212121" y="284.3798484848485" type="curve" smooth="yes"/>
      <point x="82.97212121212121" y="96.34075757575758"/>
      <point x="212.49166666666667" y="-18.346363636363638"/>
    </contour>
    <contour>
      <point x="723.7151515151515" y="545.5195454545454" type="line"/>
      <point x="895.9942424242424" y="533.3407575757576" type="line"/>
      <point x="895.9942424242424" y="699.3353030303031" type="line" smooth="yes"/>
      <point x="895.9942424242424" y="996.3575757575758"/>
      <point x="758.3462121212121" y="1104.6033333333332"/>
      <point x="475.7709090909091" y="1104.6033333333332" type="curve" smooth="yes"/>
      <point x="374.5139393939394" y="1104.6033333333332"/>
      <point x="257.99439393939394" y="1089.1675757575758"/>
      <point x="157.78772727272727" y="1057.1675757575758" type="curve"/>
      <point x="157.78772727272727" y="893.3577272727273" type="line"/>
      <point x="258.6592424242424" y="926.4471212121211"/>
      <point x="368.3519696969697" y="940.4471212121211"/>
      <point x="450.7430303030303" y="940.4471212121211" type="curve" smooth="yes"/>
      <point x="634.4860606060606" y="940.4471212121211"/>
      <point x="723.7151515151515" y="888.3130303030302"/>
      <point x="723.7151515151515" y="704.8101515151515" type="curve" smooth="yes"/>
    </contour>
  </outline>
</glyph>
<glyph name="eth" format="2">
  <advance width="1139.3406060606062"/>
  <unicode hex="00F0"/>
  <outline>
    <contour>
      <point x="570.8881818181818" y="-20.346363636363638" type="curve" smooth="yes"/>
      <point x="867.0333333333333" y="-20.346363636363638"/>
      <point x="1052.0221212121212" y="164.2569696969697"/>
      <point x="1052.8042424242424" y="589.944090909091" type="curve" smooth="yes"/>
      <point x="1053.5863636363636" y="981.910606060606"/>
      <point x="827.5863636363637" y="1402.5698484848485"/>
      <point x="539.8936363636365" y="1616.0" type="curve"/>
      <point x="288.0783333333333" y="1616.0" type="line"/>
      <point x="552.6034848484849" y="1420.4301515151515"/>
      <point x="721.7989393939393" y="1180.128484848485"/>
      <point x="795.4078787878788" y="935.8268181818182" type="curve"/>
      <point x="872.4301515151515" y="920.2010606060607" type="line"/>
      <point x="796.2960606060606" y="1055.3016666666667"/>
      <point x="679.0334848484848" y="1100.6927272727273"/>
      <point x="553.6368181818182" y="1100.6927272727273" type="curve" smooth="yes"/>
      <point x="274.65363636363634" y="1100.6927272727273"/>
      <point x="86.49166666666666" y="931.5251515151515"/>
      <point x="86.49166666666666" y="542.3463636363637" type="curve" smooth="yes"/>
      <point x="86.49166666666666" y="153.86030303030304"/>
      <point x="274.65363636363634" y="-20.346363636363638"/>
    </contour>
    <contour>
      <point x="570.8881818181818" y="143.4187878787879" type="curve" smooth="yes"/>
      <point x="399.9048484848485" y="143.4187878787879"/>
      <point x="296.9271212121213" y="241.2177272727273"/>
      <point x="296.9271212121213" y="543.7821212121212" type="curve" smooth="yes"/>
      <point x="296.9271212121213" y="843.0839393939393"/>
      <point x="400.68696969696975" y="940.4471212121211"/>
      <point x="569.6703030303031" y="940.4471212121211" type="curve" smooth="yes"/>
      <point x="738.6536363636363" y="940.4471212121211"/>
      <point x="842.4134848484848" y="843.0839393939393"/>
      <point x="842.4134848484848" y="539.3463636363637" type="curve" smooth="yes"/>
      <point x="842.4134848484848" y="250.3518181818182"/>
      <point x="738.2178787878788" y="143.4187878787879"/>
    </contour>
    <contour>
      <point x="198.74863636363636" y="1211.6313636363636" type="line"/>
      <point x="1026.3293939393939" y="1354.3966666666668" type="line"/>
      <point x="1003.2512121212121" y="1476.9216666666666" type="line"/>
      <point x="175.67045454545453" y="1334.1563636363637" type="line"/>
    </contour>
  </outline>
</glyph>
<glyph name="divide" format="2">
  <advance width="1083.1172727272728"/>
  <unicode hex="00F7"/>
  <outline>
    <contour>
      <point x="139.23469696969696" y="677.9442424242424" type="line"/>
      <point x="943.8825757575758" y="677.9442424242424" type="line"/>
      <point x="943.8825757575758" y="842.0557575757576" type="line"/>
      <point x="139.23469696969696" y="842.0557575757576" type="line"/>
    </contour>
    <contour>
      <point x="541.5586363636364" y="263.1957575757575" type="curve" smooth="yes"/>
      <point x="620.9663636363637" y="263.1957575757575"/>
      <point x="673.9495454545455" y="312.614696969697"/>
      <point x="673.9495454545455" y="388.5475757575757" type="curve" smooth="yes"/>
      <point x="673.9495454545455" y="464.48045454545456"/>
      <point x="622.530606060606" y="515.1172727272727"/>
      <point x="541.5586363636364" y="515.1172727272727" type="curve" smooth="yes"/>
      <point x="460.58666666666664" y="515.1172727272727"/>
      <point x="409.16772727272723" y="466.044696969697"/>
      <point x="409.16772727272723" y="388.5475757575757" type="curve" smooth="yes"/>
      <point x="409.16772727272723" y="311.0504545454545"/>
      <point x="462.15090909090907" y="263.1957575757575"/>
    </contour>
    <contour>
      <point x="541.5586363636364" y="1004.8827272727273" type="curve" smooth="yes"/>
      <point x="620.9663636363637" y="1004.8827272727273"/>
      <point x="673.9495454545455" y="1054.3016666666667"/>
      <point x="673.9495454545455" y="1130.2345454545455" type="curve" smooth="yes"/>
      <point x="673.9495454545455" y="1206.1674242424242"/>
      <point x="622.530606060606" y="1256.8042424242424"/>
      <point x="541.5586363636364" y="1256.8042424242424" type="curve" smooth="yes"/>
      <point x="460.58666666666664" y="1256.8042424242424"/>
      <point x="409.16772727272723" y="1207.7316666666666"/>
      <point x="409.16772727272723" y="1130.2345454545455" type="curve" smooth="yes"/>
      <point x="409.16772727272723" y="1052.7374242424241"/>
      <point x="462.15090909090907" y="1004.8827272727273"/>
    </contour>
  </outline>
</glyph>
<glyph name="thorn" format="2">
  <advance width="1159.379696969697"/>
  <unicode hex="00FE"/>
  <outline>
    <contour>
      <point x="141.45257575757574" y="-440.0" type="line"/>
      <point x="349.0612121212122" y="-440.0" type="line"/>
      <point x="349.0612121212122" y="-7.256969696969699" type="line"/>
      <point x="396.54727272727274" y="-13.519545454545456"/>
      <point x="454.7316666666667" y="-19.173181818181817"/>
      <point x="510.87136363636364" y="-19.173181818181817" type="curve" smooth="yes"/>
      <point x="878.8098484848485" y="-19.173181818181817"/>
      <point x="1072.8880303030303" y="175.905"/>
      <point x="1072.8880303030303" y="564.3016666666666" type="curve" smooth="yes"/>
      <point x="1072.8880303030303" y="954.9609090909091"/>
      <point x="882.6310606060606" y="1104.6033333333332"/>
      <point x="655.8936363636365" y="1104.6033333333332" type="curve" smooth="yes"/>
      <point x="526.3237878787879" y="1104.6033333333332"/>
      <point x="425.7986363636364" y="1054.0781818181817"/>
      <point x="360.145" y="976.2960606060606" type="curve"/>
      <point x="349.0612121212122" y="976.2960606060606" type="line"/>
      <point x="349.0612121212122" y="1616.0" type="line"/>
      <point x="141.45257575757574" y="1616.0" type="line"/>
    </contour>
    <contour>
      <point x="512.3071212121213" y="144.98303030303032" type="curve" smooth="yes"/>
      <point x="456.3406060606061" y="144.98303030303032"/>
      <point x="393.329393939394" y="152.0277272727273"/>
      <point x="349.0612121212122" y="162.11712121212125" type="curve"/>
      <point x="349.0612121212122" y="817.0727272727272" type="line"/>
      <point x="407.0277272727273" y="895.3130303030302"/>
      <point x="498.69818181818187" y="929.8884848484848"/>
      <point x="586.3686363636364" y="929.8884848484848" type="curve" smooth="yes"/>
      <point x="745.910606060606" y="929.8884848484848"/>
      <point x="862.4525757575757" y="845.614696969697"/>
      <point x="862.4525757575757" y="546.9162121212121" type="curve" smooth="yes"/>
      <point x="862.4525757575757" y="260.52500000000003"/>
      <point x="744.3016666666667" y="144.98303030303032"/>
    </contour>
  </outline>
</glyph>
